<svg width="38" height="43" viewBox="0 0 38 43" fill="none" xmlns="http://www.w3.org/2000/svg">
<path d="M27.7544 6.33671C27.0328 5.34534 25.9116 4.72149 24.6884 4.63093C23.4653 4.54078 22.2646 4.99326 21.4052 5.8681C20.5451 4.99364 19.344 4.54151 18.1209 4.63198C16.8975 4.72213 15.7758 5.34568 15.0532 6.33706C13.4274 8.55595 14.6384 11.4073 15.2363 12.5313C16.3627 14.6423 18.8356 16.8183 21.4264 16.893C25.5728 16.7847 30.5336 10.6425 27.7543 6.33698L27.7544 6.33671ZM26.2173 11.8081C23.4359 16.4793 19.3584 16.4385 16.5915 11.8091C16.2322 11.1328 15.1493 8.80453 16.2939 7.24206L16.2936 7.2424C16.827 6.51671 17.6915 6.1108 18.5903 6.16363C19.4891 6.21646 20.3001 6.72101 20.7448 7.50391C20.885 7.73324 21.1338 7.87309 21.4026 7.87378C21.671 7.87412 21.9205 7.73529 22.0614 7.50665C22.5054 6.72199 23.3171 6.21603 24.2172 6.16294C25.1171 6.11015 25.9826 6.51705 26.5156 7.24444C27.6585 8.80481 26.5756 11.133 26.2174 11.8084L26.2173 11.8081Z" fill="#4CC9F0"/>
<path d="M2.97504 43H33.6893C34.3001 42.9993 34.8857 42.7562 35.3176 42.3247C35.7492 41.8927 35.9922 41.3072 35.9929 40.6964V25.3392C36.4001 25.3389 36.7902 25.1768 37.0782 24.8888C37.3661 24.6009 37.5282 24.2108 37.5286 23.8036V19.1964C37.5282 18.7892 37.3661 18.3991 37.0782 18.1111C36.7902 17.8232 36.4001 17.6611 35.9929 17.6607H30.6179C25.5394 17.8242 25.5493 25.1799 30.6179 25.3393H34.4572V40.6964C34.4568 41.1204 34.1133 41.4639 33.6893 41.4643H2.97507C2.55104 41.4639 2.20756 41.1204 2.20721 40.6964V2.30359C2.20756 1.87956 2.55104 1.53608 2.97507 1.53574H6.81435V39.1607C6.82258 39.5789 7.164 39.9135 7.58221 39.9135C8.00041 39.9135 8.34183 39.5786 8.35006 39.1607V1.53574H33.6893C34.1133 1.53608 34.4568 1.87956 34.4572 2.30359V15.3572C34.4572 15.7812 34.801 16.125 35.225 16.125C35.6491 16.125 35.9929 15.7812 35.9929 15.3572V2.30359C35.9922 1.69274 35.7492 1.10723 35.3176 0.675301C34.8857 0.243722 34.3002 0.000684489 33.6893 0H2.97504C2.36419 0.000685542 1.77868 0.243722 1.34675 0.675301C0.915171 1.10722 0.672132 1.69273 0.671448 2.30359V40.6964C0.672133 41.3073 0.915171 41.8928 1.34675 42.3247C1.77867 42.7563 2.36418 42.9993 2.97504 43V43ZM28.3143 21.5C28.315 20.8891 28.558 20.3036 28.9896 19.8717C29.4215 19.4401 30.007 19.1971 30.6179 19.1964H35.9929V23.8035H30.6179C30.007 23.8028 29.4215 23.5598 28.9896 23.1282C28.558 22.6963 28.315 22.1108 28.3143 21.4999V21.5Z" fill="#4CC9F0"/>
<path d="M30.6179 20.7322C30.1997 20.7404 29.8647 21.0818 29.8647 21.5C29.8647 21.9182 30.1997 22.2597 30.6179 22.2679C31.0361 22.2597 31.371 21.9182 31.371 21.5C31.371 21.0818 31.0361 20.7404 30.6179 20.7322Z" fill="#4CC9F0"/>
<path d="M29.85 29.9464C29.85 29.7428 29.7691 29.5474 29.6251 29.4035C29.4812 29.2595 29.2858 29.1786 29.0821 29.1786H13.725C13.301 29.1786 12.9572 29.5224 12.9572 29.9464C12.9572 30.3705 13.301 30.7143 13.725 30.7143H29.0821C29.2858 30.7143 29.4812 30.6334 29.6251 30.4894C29.7691 30.3455 29.85 30.1501 29.85 29.9464Z" fill="#4CC9F0"/>
<path d="M15.2607 34.5535C14.8425 34.5617 14.5076 34.9031 14.5076 35.3213C14.5076 35.7395 14.8425 36.0809 15.2607 36.0892H27.5464C27.9646 36.081 28.2996 35.7395 28.2996 35.3213C28.2996 34.9031 27.9646 34.5617 27.5464 34.5535H15.2607Z" fill="#4CC9F0"/>
</svg>
