<svg width="13" height="19" viewBox="0 0 13 19" fill="none" xmlns="http://www.w3.org/2000/svg">
<path d="M3.29254 6.90412V4.7515C3.29254 3.35555 4.42827 2.21982 5.82422 2.21982C7.22017 2.21982 8.3559 3.35555 8.3559 4.7515V6.90412C8.73937 6.9486 9.12526 7.00284 9.51262 7.06692C9.63569 7.0873 9.75712 7.11451 9.87623 7.14828V4.75159C9.87623 3.66854 9.45493 2.65079 8.68997 1.88584C7.92502 1.12088 6.90727 0.699585 5.82422 0.699585C4.74118 0.699585 3.72342 1.12088 2.95847 1.88584C2.19352 2.65079 1.77222 3.66854 1.77222 4.75159V7.14828C1.8914 7.11451 2.01275 7.0873 2.13582 7.06692C2.52309 7.00284 2.90907 6.9486 3.29254 6.90412Z" fill="#A5FFCF"/>
<path d="M9.40479 7.89183C8.41709 7.72843 7.17427 7.58765 5.82426 7.58765C4.47425 7.58765 3.23143 7.72843 2.24373 7.89183C0.948917 8.10602 0 9.22672 0 10.5391V15.8048C0 17.2651 2.6076 18.4488 5.82426 18.4488C9.04092 18.4488 11.6485 17.265 11.6485 15.8048V10.5391C11.6485 9.22672 10.6996 8.10602 9.40479 7.89183ZM7.23654 12.5188C7.1075 12.7369 6.92907 12.9227 6.71712 13.0606L7.10275 15.9916H4.54559L4.93122 13.0606C4.71928 12.9227 4.54084 12.7369 4.41181 12.5188C4.26291 12.2671 4.18423 11.9788 4.18423 11.6849C4.18423 10.7806 4.91991 10.0451 5.82409 10.0451C6.72827 10.0451 7.46394 10.7807 7.46394 11.6849C7.46394 11.9788 7.38526 12.2671 7.23636 12.5188H7.23654Z" fill="#A5FFCF"/>
<path d="M2.61141 6.89936C2.99151 6.83648 3.37637 6.78233 3.75526 6.73837L3.99216 6.71091V4.31983C3.99216 3.07148 5.00776 2.05589 6.25611 2.05589C7.50446 2.05589 8.52005 3.07148 8.52005 4.31983V6.71091L8.75696 6.73837C9.13585 6.78233 9.5207 6.83648 9.9008 6.89936C10.0129 6.91793 10.1254 6.94306 10.2352 6.97415L10.5759 7.07054V4.31983C10.5759 3.16527 10.1267 2.08024 9.31117 1.26476C8.4957 0.44911 7.41066 0 6.25611 0C5.10155 0 4.01652 0.449109 3.20095 1.26468C2.38539 2.08024 1.93628 3.16519 1.93628 4.31974V7.07054L2.27691 6.97415C2.38677 6.94306 2.49922 6.91793 2.61133 6.89936H2.61141ZM2.2041 4.31983C2.2041 3.23678 2.6254 2.21903 3.39036 1.45408C4.15531 0.689038 5.17306 0.267738 6.25611 0.267738C7.33915 0.267738 8.3569 0.689038 9.12186 1.45399C9.88681 2.21895 10.3081 3.2367 10.3081 4.31974V6.71643C10.1889 6.68266 10.0676 6.65546 9.94451 6.63507C9.55724 6.57099 9.17126 6.51675 8.78779 6.47227V4.31966C8.78779 2.9237 7.65206 1.78797 6.25611 1.78797C4.86015 1.78797 3.72443 2.9237 3.72443 4.31966V6.47227C3.34096 6.51675 2.95507 6.57099 2.56771 6.63507C2.44464 6.65546 2.3232 6.68266 2.2041 6.71643V4.31983Z" fill="#41617F"/>
<path d="M12.1625 9.07664C12.0429 8.75588 11.8699 8.46058 11.6481 8.19881C11.4262 7.93694 11.1633 7.71783 10.8665 7.54734C10.5611 7.37193 10.2292 7.25369 9.88004 7.19591C8.64551 6.99174 7.42618 6.88818 6.25581 6.88818C5.08545 6.88818 3.86612 6.99174 2.63159 7.19591C2.28241 7.25369 1.9505 7.37193 1.6451 7.54734C1.34843 7.71774 1.08544 7.93694 0.863565 8.19881C0.641774 8.46058 0.468695 8.75596 0.349162 9.07664C0.226175 9.40665 0.163818 9.75342 0.163818 10.1073V15.3731C0.163818 15.5906 0.211579 15.807 0.305806 16.016C0.394332 16.2125 0.524747 16.4038 0.693336 16.5848C1.01091 16.9256 1.4595 17.229 2.02676 17.4866C2.58089 17.7382 3.22398 17.9352 3.93824 18.0724C4.67288 18.2134 5.4526 18.2849 6.25581 18.2849C7.05903 18.2849 7.83875 18.2134 8.57339 18.0724C9.28765 17.9352 9.93074 17.7382 10.4849 17.4866C11.0521 17.229 11.5007 16.9257 11.8183 16.5848C11.9869 16.4038 12.1173 16.2125 12.2058 16.016C12.3001 15.807 12.3478 15.5907 12.3478 15.3731V10.1073C12.3478 9.75342 12.2855 9.40665 12.1625 9.07664ZM12.0801 15.3731C12.0801 16.8334 9.47248 18.0171 6.25581 18.0171C3.03915 18.0171 0.431643 16.8334 0.431643 15.3731V10.1073C0.431643 8.795 1.38056 7.6743 2.67538 7.46011C3.66307 7.2967 4.9059 7.15592 6.2559 7.15592C7.60591 7.15592 8.84873 7.2967 9.83643 7.46011C11.1312 7.6743 12.0802 8.795 12.0802 10.1073V15.3731H12.0801Z" fill="#41617F"/>
<path d="M6.25607 9.61328C5.3518 9.61328 4.61621 10.349 4.61621 11.2531C4.61621 11.547 4.69489 11.8353 4.84379 12.087C4.97282 12.3051 5.15126 12.491 5.3632 12.6288L4.97757 15.5598H7.53473L7.1491 12.6288C7.36105 12.491 7.53948 12.3051 7.66851 12.087C7.81741 11.8353 7.89609 11.547 7.89609 11.2531C7.89609 10.3489 7.16042 9.61328 6.25624 9.61328H6.25607ZM6.93828 12.444L6.86055 12.4886L7.22942 15.2921H5.28279L5.65167 12.4886L5.57394 12.444C5.14841 12.1995 4.88404 11.7433 4.88404 11.2531C4.88404 10.4966 5.49957 9.88102 6.25615 9.88102C7.01273 9.88102 7.62827 10.4966 7.62827 11.2531C7.62827 11.7433 7.3639 12.1995 6.93828 12.444Z" fill="#41617F"/>
</svg>
