<?xml version="1.0" encoding="utf-8"?>
<svg width="101" height="100" viewBox="0 0 101 100" fill="none" xmlns="http://www.w3.org/2000/svg">
  <path d="M21.1416 87.9131C18.9767 92.7708 16.8119 92.7708 14.647 87.9131H21.1416Z" fill="#685161"/>
  <path d="M17.8935 91.666C19.0341 91.666 20.1291 90.453 21.2412 87.9573L21.0403 87.8684C19.9823 90.2428 18.9234 91.447 17.8935 91.447C16.8636 91.447 15.8046 90.2428 14.7466 87.8684L14.5457 87.9573C15.6578 90.453 16.7528 91.666 17.8935 91.666Z" fill="#6B184E"/>
  <g opacity="0.55">
    <path d="M17.1429 91.3605C18.4756 92.0542 19.8088 90.9038 21.1416 87.9128H19.6414C18.8097 89.781 17.9741 90.9314 17.1429 91.3605Z" fill="white"/>
  </g>
  <path d="M17.8928 92.1965C19.2664 92.1965 20.5209 90.8801 21.7275 88.1725L20.5526 87.6527C19.2875 90.4917 18.3429 90.9156 17.8928 90.9156C17.4426 90.9156 16.498 90.4917 15.2329 87.6527L14.058 88.1725C15.2646 90.8806 16.5191 92.1965 17.8928 92.1965Z" fill="#6B184E"/>
  <path d="M73.8574 87.9131C71.6925 92.7708 69.5277 92.7708 67.3628 87.9131H73.8574Z" fill="#685161"/>
  <path d="M70.6103 91.666C71.7509 91.666 72.8459 90.453 73.958 87.9573L73.7571 87.8684C72.6991 90.2428 71.6402 91.447 70.6103 91.447C69.5803 91.447 68.5214 90.2428 67.4634 87.8684L67.2625 87.9573C68.3746 90.4525 69.4696 91.666 70.6103 91.666Z" fill="#6B184E"/>
  <g opacity="0.55">
    <path d="M69.8596 91.3605C71.1924 92.0542 72.5256 90.9038 73.8584 87.9128H72.3582C71.5265 89.781 70.6909 90.9314 69.8596 91.3605Z" fill="white"/>
  </g>
  <path d="M47.4176 32.6043L54.1681 19.1482L51.9944 19.4709C50.7935 19.6492 49.8915 18.4029 50.4401 17.3239L57.2754 3.88391L53.1738 16.8001L55.4481 16.4099C56.5158 16.2269 57.3695 17.284 56.9611 18.2838L50.2955 34.6025" fill="#DBE3EE"/>
  <path d="M50.3973 34.6437L57.063 18.3249C57.27 17.8182 57.1882 17.2608 56.8436 16.8347C56.4994 16.4082 55.9706 16.2089 55.4295 16.3022L53.3328 16.6617L57.3799 3.91717L57.1772 3.83484L50.342 17.2748C50.0655 17.8187 50.1138 18.4387 50.4716 18.9332C50.8299 19.4276 51.4048 19.6697 52.0101 19.5795L53.975 19.2879L47.319 32.5557L47.5155 32.6538L54.3605 19.0093L51.9776 19.3627C51.4558 19.4403 50.9587 19.2318 50.6497 18.8048C50.3406 18.3779 50.2989 17.8428 50.5376 17.3737L56.7632 5.13237L53.0141 16.9385L55.4664 16.5181C55.9275 16.4392 56.3785 16.6087 56.6722 16.9722C56.9658 17.3357 57.0357 17.8108 56.859 18.243L50.1934 34.5618L50.3969 34.6441L50.3973 34.6437Z" fill="#6B184E"/>
  <g opacity="0.3">
    <path d="M55.2297 10.3313L57.2764 3.88391L50.4402 17.323C49.8916 18.4033 50.7936 19.65 51.9936 19.4705L52.4908 19.3978C51.7 19.1097 51.2437 18.166 51.6723 17.3225L55.2297 10.3308V10.3313Z" fill="#6B184E"/>
  </g>
  <g opacity="0.3">
    <path d="M47.4183 32.6042L50.2961 34.6024L50.5682 33.9363C49.6961 32.8573 49.5225 31.3754 50.1212 30.1252L54.9011 20.1439C55.1661 19.6158 54.5903 19.0622 54.0698 19.3447L47.4183 32.6047V32.6042Z" fill="#6B184E"/>
  </g>
  <path d="M25.6554 3.88379L35.4125 25.9672H35.4147C35.4147 25.9672 35.4147 25.9694 35.4169 25.9716L39.2293 34.6028L42.2764 32.9677L41.5691 31.7293L25.6554 3.88379Z" fill="#DBE3EE"/>
  <path d="M39.1767 34.7553L42.4277 33.0107L41.6651 31.6751L25.7514 3.82959L25.5553 3.92812L35.305 25.9954V26.0129L35.3195 26.0282L39.1767 34.7558V34.7553ZM42.1258 32.924L39.2822 34.4501L35.5248 25.9432V25.8574H35.4843L26.6156 5.78443L42.1253 32.9236L42.1258 32.924Z" fill="#6B184E"/>
  <path d="M50.2957 35.2432C50.5493 35.2432 50.7898 35.0925 50.8913 34.8438L57.5569 18.525C57.8378 17.8371 57.7266 17.0804 57.2594 16.5019C56.7921 15.923 56.0743 15.6528 55.3393 15.7789L54.1055 15.9904L57.8888 4.07703C57.9899 3.7591 57.829 3.4171 57.5187 3.29098C57.2084 3.16486 56.8536 3.29667 56.702 3.59445L49.8667 17.0348C49.5036 17.7482 49.57 18.5947 50.0399 19.2437C50.5098 19.8926 51.2953 20.2228 52.0892 20.1046L53.0408 19.9631L46.8429 32.3184C46.6842 32.6346 46.813 33.0195 47.1308 33.1776C47.4486 33.3356 47.8346 33.2073 47.9933 32.8907L54.7437 19.4346C54.851 19.2209 54.8299 18.9656 54.6888 18.772C54.5481 18.5785 54.3116 18.4786 54.0738 18.5145L51.9001 18.8373C51.5788 18.8841 51.2733 18.7563 51.083 18.494C50.8927 18.2312 50.8672 17.9019 51.014 17.6133L54.2822 11.187L52.5608 16.6066C52.4931 16.8198 52.5419 17.0523 52.6892 17.2209C52.8364 17.3895 53.0615 17.4688 53.2826 17.4311L55.5569 17.041C55.9424 16.974 56.1749 17.203 56.2567 17.3046C56.3385 17.4057 56.513 17.6807 56.3653 18.0425L49.6997 34.3612C49.566 34.6888 49.7238 35.0628 50.0526 35.1959C50.1322 35.2279 50.214 35.2432 50.2948 35.2432H50.2957Z" fill="#6B184E"/>
  <path d="M57.2752 6.44559C55.855 6.44559 54.7037 5.29864 54.7037 3.8838C54.7037 2.46897 55.855 1.32202 57.2752 1.32202C58.6954 1.32202 59.8467 2.46897 59.8467 3.8838C59.8467 5.29864 58.6954 6.44559 57.2752 6.44559Z" fill="#E67E22"/>
  <g opacity="0.3">
    <path d="M56.1383 1.58887C56.0632 1.82972 56.0223 2.0859 56.0223 2.35127C56.0223 3.76616 57.1735 4.91305 58.5937 4.91305C59.0025 4.91305 59.3876 4.8154 59.7305 4.64637C59.4047 5.68903 58.4285 6.44574 57.275 6.44574C55.8548 6.44574 54.7036 5.29885 54.7036 3.88396C54.7036 2.87633 55.2891 2.00707 56.1383 1.58887Z" fill="#6B184E"/>
  </g>
  <g opacity="0.55">
    <path d="M56.3117 2.06903C56.8945 2.06903 57.4326 2.26346 57.8651 2.58795C57.848 2.59233 57.833 2.60065 57.8181 2.60941C57.6189 2.72458 57.6229 3.10469 57.8286 3.45896C58.0343 3.81323 58.3623 4.00547 58.5614 3.89249C58.6344 3.85176 58.6792 3.77513 58.6985 3.67704C58.8163 3.97175 58.8827 4.29406 58.8827 4.63125C58.8827 5.23338 58.6726 5.78602 58.3253 6.22393C59.2212 5.82237 59.8467 4.92596 59.8467 3.88417C59.8467 2.46884 58.6937 1.32239 57.2752 1.32239C56.4567 1.32239 55.7279 1.70249 55.2585 2.29368C55.5798 2.14829 55.9358 2.06946 56.3108 2.06946L56.3117 2.06903Z" fill="white"/>
  </g>
  <path d="M57.2757 7.08629C59.048 7.08629 60.4902 5.6495 60.4902 3.88384C60.4902 2.11818 59.048 0.681396 57.2757 0.681396C55.5033 0.681396 54.0611 2.11818 54.0611 3.88384C54.0611 5.6495 55.5033 7.08629 57.2757 7.08629ZM57.2757 1.96273C58.339 1.96273 59.2045 2.82454 59.2045 3.88384C59.2045 4.94315 58.3394 5.8054 57.2757 5.8054C56.2119 5.8054 55.3473 4.94359 55.3473 3.88384C55.3473 2.8241 56.2124 1.96273 57.2757 1.96273Z" fill="#6B184E"/>
  <path d="M39.2317 35.2432C39.3183 35.2432 39.4062 35.2257 39.4901 35.1889C39.8154 35.0466 39.9627 34.6687 39.8198 34.3446L31.2768 15.0099L41.7201 33.284C41.8955 33.5914 42.288 33.6991 42.597 33.5235C42.9056 33.3484 43.0133 32.9573 42.8374 32.6499L26.2169 3.56688C26.0477 3.27041 25.6749 3.15875 25.3694 3.31158C25.0635 3.46485 24.9321 3.82963 25.0701 4.14186L38.6431 34.8605C38.749 35.1005 38.9846 35.2432 39.2317 35.2432Z" fill="#6B184E"/>
  <path d="M25.657 6.44559C24.2369 6.44559 23.0856 5.29864 23.0856 3.8838C23.0856 2.46897 24.2369 1.32202 25.657 1.32202C27.0772 1.32202 28.2285 2.46897 28.2285 3.8838C28.2285 5.29864 27.0772 6.44559 25.657 6.44559Z" fill="#E67E22"/>
  <g opacity="0.3">
    <path d="M24.2365 1.83838C24.2027 2.00391 24.1847 2.17557 24.1847 2.35117C24.1847 3.76607 25.3359 4.91296 26.7561 4.91296C27.1904 4.91296 27.5983 4.80479 27.957 4.61561C27.7188 5.78484 26.681 6.6646 25.4374 6.6646C24.0172 6.6646 22.8659 5.51771 22.8659 4.10282C22.8659 3.12058 23.4216 2.26841 24.2365 1.83838Z" fill="#6B184E"/>
  </g>
  <g opacity="0.55">
    <path d="M24.6935 2.06915C25.2764 2.06915 25.8144 2.26358 26.2469 2.58807C26.2298 2.59245 26.2149 2.60077 26.1999 2.60953C26.0008 2.7247 26.0047 3.10481 26.2105 3.45908C26.4162 3.81335 26.7441 4.00559 26.9432 3.89261C27.0162 3.85189 27.061 3.77525 27.0804 3.67716C27.1982 3.97187 27.2645 4.29418 27.2645 4.63137C27.2645 5.2335 27.0544 5.78614 26.7072 6.22405C27.603 5.82249 28.2285 4.92608 28.2285 3.88429C28.2285 2.46896 27.0755 1.32251 25.657 1.32251C24.8386 1.32251 24.1098 1.70262 23.6403 2.2938C23.9616 2.14841 24.3177 2.06959 24.6926 2.06959L24.6935 2.06915Z" fill="white"/>
  </g>
  <path d="M25.6575 7.08629C27.4298 7.08629 28.8721 5.6495 28.8721 3.88384C28.8721 2.11818 27.4298 0.681396 25.6575 0.681396C23.8852 0.681396 22.4429 2.11818 22.4429 3.88384C22.4429 5.6495 23.8852 7.08629 25.6575 7.08629ZM25.6575 1.96273C26.7208 1.96273 27.5863 2.82454 27.5863 3.88384C27.5863 4.94315 26.7213 5.8054 25.6575 5.8054C24.5938 5.8054 23.7291 4.94359 23.7291 3.88384C23.7291 2.8241 24.5942 1.96273 25.6575 1.96273Z" fill="#6B184E"/>
  <path d="M12.4253 39.2399H76.4524C79.3642 39.2399 81.7246 41.5914 81.7246 44.4922V82.6605C81.7246 85.5613 79.3642 87.9129 76.4524 87.9129H12.4253C9.5136 87.9129 7.15317 85.5613 7.15317 82.6605V44.4922C7.15317 41.5914 9.5136 39.2399 12.4253 39.2399Z" fill="#E67E22"/>
  <g opacity="0.3">
    <path d="M7.15456 44.4914V82.661C7.15456 85.5622 9.51416 87.9129 12.4263 87.9129H76.4538C78.1958 87.9129 79.7431 87.0695 80.7031 85.7693C79.9383 86.2007 79.0552 86.4459 78.1145 86.4459H14.087C11.1749 86.4459 8.81525 84.0935 8.81525 81.1919V43.0248C8.81525 41.8613 9.1946 40.7875 9.83549 39.9165C8.23458 40.8195 7.15456 42.5295 7.15456 44.4914Z" fill="#6B184E"/>
  </g>
  <g opacity="0.55">
    <path d="M8.1378 41.4387C8.96947 40.8922 9.96377 40.5743 11.0328 40.5743H75.0603C77.9703 40.5743 80.3321 42.9267 80.3321 45.8261V83.9958C80.3321 85.1335 79.9677 86.1906 79.3461 87.0507C80.7795 86.1135 81.7246 84.4972 81.7246 82.6615V44.4914C81.7246 41.5924 79.3632 39.2395 76.4529 39.2395H12.4254C10.6574 39.2395 9.09078 40.1061 8.13736 41.4383L8.1378 41.4387Z" fill="white"/>
  </g>
  <g opacity="0.3">
    <path d="M13.8974 56.6843C12.3353 55.128 12.3353 52.6049 13.8974 51.0486C15.4595 49.4924 17.9922 49.4924 19.5543 51.0486C21.1165 52.6049 21.1165 55.128 19.5543 56.6843C17.9922 58.2405 15.4595 58.2405 13.8974 56.6843Z" fill="#6B184E"/>
  </g>
  <path d="M53.1738 39.2395C52.2802 35.4349 48.8538 32.6042 44.7627 32.6042C40.6716 32.6042 37.2474 35.4349 36.3538 39.2395" fill="#E67E22"/>
  <g opacity="0.55">
    <path d="M37.3961 36.7185C38.9776 34.8955 41.3179 33.7424 43.9276 33.7424C44.6775 33.7424 45.4085 33.8383 46.1026 34.0201C45.674 34.0266 45.3632 34.1501 45.2775 34.3831C45.121 34.8166 45.8195 35.4656 46.8376 35.8326C47.8578 36.2 48.8112 36.1466 48.9699 35.7108C49.0125 35.5957 48.9914 35.463 48.9207 35.3246C50.2921 36.2937 51.3677 37.6539 51.9831 39.24H53.1748C52.2812 35.4354 48.8547 32.6047 44.7637 32.6047C41.6436 32.6047 38.9135 34.2508 37.3961 36.7185Z" fill="white"/>
  </g>
  <g opacity="0.3">
    <path d="M16.7255 69.2758C14.5163 69.2758 12.7254 67.4916 12.7254 65.2908C12.7254 63.0899 14.5163 61.3058 16.7255 61.3058C18.9347 61.3058 20.7256 63.0899 20.7256 65.2908C20.7256 67.4916 18.9347 69.2758 16.7255 69.2758Z" fill="#6B184E"/>
  </g>
  <g opacity="0.55">
    <path d="M10.4279 49.2379V80.8341C10.4279 82.7215 11.9642 84.2498 13.8565 84.2498H20.3195C21.6782 84.2498 22.8505 83.4642 23.4053 82.3243C22.8804 82.6488 22.2633 82.8345 21.6008 82.8345H15.1396C13.2451 82.8345 11.711 81.3058 11.711 79.4188V47.8226C11.711 47.2888 11.8332 46.783 12.0539 46.3324C11.0789 46.9345 10.4275 48.0105 10.4275 49.2379H10.4279Z" fill="white"/>
  </g>
  <path d="M12.4258 88.5531H76.4529C79.7145 88.5531 82.3682 85.9099 82.3682 82.6606V44.4922C82.3682 41.2429 79.7145 38.5992 76.4529 38.5992H12.4258C9.16422 38.5992 6.51054 41.2429 6.51054 44.4922V82.6606C6.51054 85.9099 9.16422 88.5531 12.4258 88.5531ZM76.4529 39.8806C79.0055 39.8806 81.082 41.9493 81.082 44.4922V82.6606C81.082 85.2035 79.0055 87.2722 76.4529 87.2722H12.4258C9.87325 87.2722 7.79672 85.2031 7.79672 82.6606V44.4922C7.79672 41.9493 9.87325 39.8806 12.4258 39.8806H76.4529Z" fill="#6B184E"/>
  <path d="M32.7837 44.66H73.5001C75.3937 44.66 76.9287 46.1893 76.9287 48.0757V79.6724C76.9287 81.5588 75.3937 83.0881 73.5001 83.0881H32.7837C30.8902 83.0881 29.3551 81.5588 29.3551 79.6724V48.0757C29.3551 46.1893 30.8902 44.66 32.7837 44.66Z" fill="#685161"/>
  <path d="M32.7842 83.1975H73.5005C75.4518 83.1975 77.0391 81.6162 77.0391 79.6723V48.0761C77.0391 46.1322 75.4518 44.5509 73.5005 44.5509H32.7842C30.833 44.5509 29.2457 46.1322 29.2457 48.0761V79.6723C29.2457 81.6162 30.833 83.1975 32.7842 83.1975ZM73.5005 44.7694C75.3305 44.7694 76.8193 46.2526 76.8193 48.0757V79.6718C76.8193 81.4949 75.3305 82.9781 73.5005 82.9781H32.7842C30.9543 82.9781 29.4655 81.4949 29.4655 79.6718V48.0757C29.4655 46.2526 30.9543 44.7694 32.7842 44.7694H73.5005Z" fill="#6B184E"/>
  <g opacity="0.55">
    <path d="M28.0711 49.2865V80.8827C28.0711 82.7701 29.6056 84.2984 31.4997 84.2984H72.216C73.4503 84.2984 74.5304 83.6494 75.1348 82.6759C74.6482 82.9387 74.0934 83.088 73.5018 83.088H32.7854C30.8909 83.088 29.3568 81.5592 29.3568 79.6723V48.0761C29.3568 47.4183 29.5432 46.8035 29.8645 46.2828C28.795 46.8613 28.0706 47.9885 28.0706 49.2865H28.0711Z" fill="white"/>
  </g>
  <path d="M18.372 56.6864C16.1628 56.6864 14.3719 54.9023 14.3719 52.7014C14.3719 50.5006 16.1628 48.7164 18.372 48.7164C20.5812 48.7164 22.3721 50.5006 22.3721 52.7014C22.3721 54.9023 20.5812 56.6864 18.372 56.6864Z" fill="#C3B9C0"/>
  <g opacity="0.3">
    <path d="M29.6314 46.7374C30.0687 46.5346 30.5571 46.4212 31.0714 46.4212H71.7877C73.6823 46.4212 75.2163 47.9499 75.2163 49.8369L76.9307 63.8737V48.0756C76.9307 46.1882 75.3961 44.6599 73.502 44.6599H32.7857C31.3694 44.6599 30.1518 45.516 29.6314 46.7374Z" fill="#6B184E"/>
  </g>
  <g opacity="0.55">
    <path d="M20.882 55.804L14.5962 51.3811L15.1883 50.4299L21.3906 54.9737L20.882 55.804Z" fill="white"/>
  </g>
  <g opacity="0.55">
    <path d="M15.1886 50.2877C15.8102 49.8905 16.5495 49.6623 17.3403 49.6623C19.5496 49.6623 21.3391 51.4472 21.3391 53.6482C21.3391 54.5555 21.0349 55.3902 20.5268 56.0585C21.6367 55.3517 22.3721 54.1115 22.3721 52.7023C22.3721 50.5014 20.5804 48.7164 18.3711 48.7164C17.0726 48.7164 15.9197 49.3334 15.1886 50.2877Z" fill="white"/>
  </g>
  <path d="M32.7842 83.7287H73.5005C75.7459 83.7287 77.5723 81.9092 77.5723 79.6723V48.0762C77.5723 45.8393 75.7459 44.0198 73.5005 44.0198H32.7842C30.5389 44.0198 28.7125 45.8393 28.7125 48.0762V79.6723C28.7125 81.9088 30.5389 83.7287 32.7842 83.7287ZM73.5005 45.3007C75.0368 45.3007 76.2865 46.5457 76.2865 48.0762V79.6723C76.2865 81.2029 75.0368 82.4478 73.5005 82.4478H32.7842C31.2479 82.4478 29.9982 81.2029 29.9982 79.6723V48.0762C29.9982 46.5457 31.2479 45.3007 32.7842 45.3007H73.5005Z" fill="#6B184E"/>
  <path d="M15.141 83.7287H21.6031C23.8484 83.7287 25.6748 81.9092 25.6748 79.6723V48.0762C25.6748 45.8393 23.8484 44.0198 21.6031 44.0198H15.141C12.8961 44.0198 11.0693 45.8393 11.0693 48.0762V79.6723C11.0693 81.9088 12.8957 83.7287 15.141 83.7287ZM21.6031 45.3007C23.1394 45.3007 24.3891 46.5457 24.3891 48.0762V79.6723C24.3891 81.2029 23.1394 82.4478 21.6031 82.4478H15.141C13.6047 82.4478 12.3555 81.2029 12.3555 79.6723V48.0762C12.3555 46.5457 13.6051 45.3007 15.141 45.3007H21.6031Z" fill="#6B184E"/>
  <g opacity="0.3">
    <path d="M11.9857 46.4226C12.4613 46.1708 13.006 46.0298 13.5822 46.0298H20.0434C21.938 46.0298 23.4721 47.5585 23.4721 49.4455V81.0417C23.4721 81.7226 23.273 82.3567 22.9279 82.8905C24.0167 82.3182 24.7578 81.1805 24.7578 79.8676V48.2714C24.7578 46.384 23.2233 44.8557 21.3292 44.8557H14.868C13.6574 44.8557 12.5941 45.4793 11.9857 46.4226Z" fill="#6B184E"/>
  </g>
  <path d="M18.3725 57.327C20.9325 57.327 23.0156 55.2517 23.0156 52.7013C23.0156 50.1509 20.9325 48.0757 18.3725 48.0757C15.8124 48.0757 13.7293 50.1509 13.7293 52.7013C13.7293 55.2517 15.8124 57.327 18.3725 57.327ZM18.3725 49.3566C20.2235 49.3566 21.7299 50.8569 21.7299 52.7013C21.7299 54.5458 20.2239 56.0461 18.3725 56.0461C16.521 56.0461 15.015 54.5458 15.015 52.7013C15.015 50.8569 16.521 49.3566 18.3725 49.3566Z" fill="#6B184E"/>
  <path d="M18.372 67.8593C16.1628 67.8593 14.3719 66.0751 14.3719 63.8743C14.3719 61.6734 16.1628 59.8893 18.372 59.8893C20.5812 59.8893 22.3721 61.6734 22.3721 63.8743C22.3721 66.0751 20.5812 67.8593 18.372 67.8593Z" fill="#C3B9C0"/>
  <g opacity="0.55">
    <path d="M15.2828 61.3413L19.6925 67.6367L20.3281 66.8493L16.0775 60.8569L15.2828 61.3413Z" fill="white"/>
  </g>
  <g opacity="0.55">
    <path d="M15.4994 61.101C16.0502 60.815 16.6739 60.6548 17.3381 60.6548C19.5474 60.6548 21.3369 62.4397 21.3369 64.6385C21.3369 65.721 20.9061 66.6988 20.2054 67.4161C21.4934 66.7544 22.3721 65.4157 22.3721 63.8743C22.3721 61.6734 20.5804 59.8884 18.3711 59.8884C17.2441 59.8884 16.226 60.3539 15.4994 61.101Z" fill="white"/>
  </g>
  <path d="M18.3725 68.4994C20.9325 68.4994 23.0156 66.4241 23.0156 63.8737C23.0156 61.3233 20.9325 59.248 18.3725 59.248C15.8124 59.248 13.7293 61.3233 13.7293 63.8737C13.7293 66.4241 15.8124 68.4994 18.3725 68.4994ZM18.3725 60.5294C20.2235 60.5294 21.7299 62.0297 21.7299 63.8737C21.7299 65.7178 20.2239 67.2185 18.3725 67.2185C16.521 67.2185 15.015 65.7182 15.015 63.8737C15.015 62.0292 16.521 60.5294 18.3725 60.5294Z" fill="#6B184E"/>
  <path d="M21.1401 77.5904C21.4953 77.5904 21.7832 77.3036 21.7832 76.9502V71.7198C21.7832 71.3659 21.4953 71.0791 21.1401 71.0791C20.7849 71.0791 20.497 71.3659 20.497 71.7198V76.9502C20.497 77.304 20.7849 77.5904 21.1401 77.5904Z" fill="#6B184E"/>
  <path d="M15.604 77.5905C15.9592 77.5905 16.2471 77.3037 16.2471 76.9503V71.7199C16.2471 71.3661 15.9592 71.0792 15.604 71.0792C15.2488 71.0792 14.9609 71.3661 14.9609 71.7199V76.9503C14.9609 77.3041 15.2488 77.5905 15.604 77.5905Z" fill="#6B184E"/>
  <path d="M18.3716 77.5904C18.7267 77.5904 19.0146 77.3036 19.0146 76.9502V71.7198C19.0146 71.3659 18.7267 71.0791 18.3716 71.0791C18.0164 71.0791 17.7285 71.3659 17.7285 71.7198V76.9502C17.7285 77.304 18.0164 77.5904 18.3716 77.5904Z" fill="#6B184E"/>
  <path d="M14.3716 47.8444C13.9771 47.8444 13.6573 47.5258 13.6573 47.1327C13.6573 46.7397 13.9771 46.4211 14.3716 46.4211C14.7661 46.4211 15.0859 46.7397 15.0859 47.1327C15.0859 47.5258 14.7661 47.8444 14.3716 47.8444Z" fill="#6B184E"/>
  <path d="M22.3716 47.8444C21.9771 47.8444 21.6573 47.5258 21.6573 47.1327C21.6573 46.7397 21.9771 46.4211 22.3716 46.4211C22.7661 46.4211 23.0859 46.7397 23.0859 47.1327C23.0859 47.5258 22.7661 47.8444 22.3716 47.8444Z" fill="#6B184E"/>
  <path d="M14.3716 81.3268C13.9771 81.3268 13.6573 81.0082 13.6573 80.6152C13.6573 80.2222 13.9771 79.9036 14.3716 79.9036C14.7661 79.9036 15.0859 80.2222 15.0859 80.6152C15.0859 81.0082 14.7661 81.3268 14.3716 81.3268Z" fill="#6B184E"/>
  <path d="M22.3716 81.3268C21.9771 81.3268 21.6573 81.0082 21.6573 80.6152C21.6573 80.2222 21.9771 79.9036 22.3716 79.9036C22.7661 79.9036 23.0859 80.2222 23.0859 80.6152C23.0859 81.0082 22.7661 81.3268 22.3716 81.3268Z" fill="#6B184E"/>
  <path d="M53.174 39.8802C53.2223 39.8802 53.2716 39.8745 53.3208 39.8631C53.6663 39.7825 53.8812 39.4379 53.8003 39.0937C52.8144 34.8959 49.0983 31.9636 44.7633 31.9636C40.4282 31.9636 36.7143 34.8954 35.7284 39.0937C35.6475 39.4379 35.862 39.7825 36.2079 39.8631C36.5534 39.9432 36.8994 39.73 36.9803 39.3853C37.8295 35.77 41.03 33.2445 44.7633 33.2445C48.4965 33.2445 51.6992 35.7695 52.5485 39.3853C52.6179 39.6805 52.8821 39.8802 53.174 39.8802Z" fill="#6B184E"/>
  <g opacity="0.3">
    <path d="M31.0709 57.1624V79.6719C31.0709 80.6151 31.8383 81.3797 32.7852 81.3797H73.5015C74.4483 81.3797 75.2158 80.6151 75.2158 79.6719V73.9466C75.2158 73.4286 74.7094 73.0581 74.214 73.2166C54.5838 79.4932 38.4618 74.1608 31.7113 57.0428C31.5768 56.7021 31.0704 56.7963 31.0704 57.1624H31.0709Z" fill="#6B184E"/>
  </g>
  <g opacity="0.15">
    <path d="M63.317 52.1667C61.3003 53.8027 62.5803 56.2445 64.6903 58.8255C66.8002 61.4066 68.9413 63.1499 70.9576 61.5143C72.9744 59.8783 72.8983 56.4599 70.7884 53.8785C68.6785 51.297 65.3334 50.5306 63.3166 52.1667H63.317Z" fill="white"/>
  </g>
  <g opacity="0.15">
    <path d="M56.2632 49.5349C55.9216 50.6428 57.0069 51.234 58.436 51.6715C59.865 52.1089 61.0967 52.2267 61.4382 51.1188C61.7798 50.0109 60.8984 48.758 59.4694 48.3206C58.0404 47.8831 56.6047 48.427 56.2632 49.5349Z" fill="white"/>
  </g>
  <path d="M15.4541 49.8978L22.0254 54.4427L21.2922 55.4949L14.7208 50.95L15.4541 49.8978Z" fill="#6B184E"/>
  <path d="M16.5363 60.2765L21.2461 66.7179L20.2068 67.472L15.4971 61.0306L16.5363 60.2765Z" fill="#6B184E"/>
  <path d="M70.6105 92.1965C71.9842 92.1965 73.2387 90.8801 74.4453 88.1725L73.2703 87.6527C72.0053 90.4917 71.0611 90.9156 70.6105 90.9156C70.16 90.9156 69.2158 90.4917 67.9507 87.6527L66.7757 88.1725C67.9823 90.8806 69.2369 92.1965 70.6105 92.1965Z" fill="#6B184E"/>
  <g opacity="0.3">
    <path d="M35.4179 25.9713L39.2303 34.6025L42.2773 32.9674L41.5701 31.729C38.09 31.8187 35.497 26.146 35.4174 25.9713H35.4179Z" fill="#6B184E"/>
  </g>
  <g opacity="0.3">
    <path d="M39.8239 34.6034C39.8239 34.6034 39.045 38.3813 52.9512 38.4631L52.3463 39.24H36.8568C36.8568 39.24 36.1975 37.3403 39.8239 34.6034Z" fill="#6B184E"/>
  </g>
  <path d="M10.8108 91.8388C12.2184 92.1249 13.6263 92.1935 15.0342 92.2289C15.7381 92.2481 16.4418 92.2521 17.1457 92.247C17.8497 92.2484 18.5533 92.2351 19.2573 92.2259C20.6649 92.209 22.0728 92.2049 23.4806 92.2075H69.937L72.0485 92.2086L73.1043 92.2219L74.1601 92.2447C75.568 92.2514 76.9756 92.2348 78.3835 91.8388C78.4519 91.8196 78.497 91.7211 78.4841 91.6194C78.4742 91.5416 78.4331 91.4841 78.3835 91.47C76.9758 91.074 75.568 91.0574 74.1601 91.0641L73.1043 91.0869L72.0485 91.1002L69.937 91.1013H23.4806C22.073 91.1039 20.6651 91.0998 19.2573 91.0829C18.5533 91.0737 17.8494 91.0604 17.1457 91.0619C16.4418 91.0567 15.7378 91.0608 15.0342 91.0799C13.6263 91.115 12.2187 91.1835 10.8108 91.47C10.7423 91.4841 10.6945 91.5777 10.7037 91.6795C10.7114 91.7639 10.7565 91.8277 10.8108 91.8388Z" fill="#6B184E"/>
  <path d="M0 93.541C0 95.4547 19.6995 97.0058 44 97.0058C68.3005 97.0058 88 95.4547 88 93.541C88 92.8859 85.6946 92.2742 81.6872 91.7509H6.31277C2.30543 92.2746 0 92.8864 0 93.541Z" fill="#6B184E"/>
  <circle cx="84" cy="82.3436" r="17" fill="#F72585"/>
  <path fill-rule="evenodd" clip-rule="evenodd" d="M91.9345 84.4523C91.8591 83.7372 91.5431 80.5647 91.4197 79.4393C91.2529 77.9147 89.9864 76.771 88.4654 76.7698C87.7552 76.7693 87.1207 76.9972 86.5663 77.4453C86.5132 77.4882 86.4386 77.5445 86.3822 77.5369C85.9103 77.4702 85.4403 77.3897 84.9515 77.3105V76.5934C84.9515 76.5934 84.9444 76.3436 84.6705 76.3436H83.2944C83.0203 76.3436 83.0134 76.5934 83.0134 76.5934V77.3105C82.5246 77.3896 82.0544 77.47 81.5827 77.5369C81.5263 77.5445 81.4516 77.4881 81.3986 77.4453C80.8443 76.9972 80.2097 76.7693 79.4994 76.7698C77.9784 76.771 76.712 77.9146 76.5449 79.4393C76.4218 80.565 76.1057 83.7374 76.0304 84.4523C75.919 85.509 76.0577 86.9331 77.4079 87.2566C78.6626 87.5574 79.7587 87.0569 80.4488 86.0839C80.8695 85.4906 81.3305 84.9256 81.7803 84.3529C81.8231 84.2982 81.9136 84.2512 81.9823 84.2508H85.9824C86.0512 84.2512 86.1417 84.2982 86.1847 84.3529C86.6344 84.9256 87.0953 85.4906 87.5161 86.0839C88.2062 87.0571 89.3023 87.5574 90.557 87.2566C91.9071 86.9331 92.0459 85.509 91.9345 84.4523ZM81.7843 81.7183C81.7843 81.7934 81.7234 81.8543 81.6482 81.8543H80.6279V82.8747C80.6279 82.9498 80.5668 83.0106 80.4918 83.0106H79.7661C79.691 83.0106 79.63 82.9498 79.63 82.8747V81.8543H78.6097C78.5345 81.8543 78.4736 81.7932 78.4736 81.7183V80.9926C78.4736 80.9175 78.5345 80.8565 78.6097 80.8565H79.63V79.8361C79.63 79.761 79.6911 79.7002 79.7661 79.7002H80.4918C80.5669 79.7002 80.6279 79.7611 80.6279 79.8361V80.8565H81.6482C81.7234 80.8565 81.7843 80.9176 81.7843 80.9926V81.7183ZM87.1776 81.6858C87.1776 81.773 87.12 81.8438 87.0485 81.8438H86.3298C86.2585 81.8438 86.2007 81.7731 86.2007 81.6858L86.2008 81.0248C86.2008 80.9376 86.2583 80.8668 86.3299 80.8668H87.0486C87.1199 80.8668 87.1777 80.9375 87.1777 81.0248L87.1776 81.6858ZM88.5108 83.0478C88.5108 83.1191 88.4402 83.1769 88.3528 83.1769H87.6916C87.6044 83.1769 87.5337 83.1193 87.5337 83.0478L87.5338 82.329C87.5338 82.2576 87.6044 82.1998 87.6917 82.1998H88.353C88.4402 82.1998 88.5109 82.2574 88.5109 82.329L88.5108 83.0478ZM88.5108 80.3817C88.5108 80.453 88.4402 80.5108 88.3528 80.5108H87.6916C87.6044 80.5108 87.5337 80.4532 87.5337 80.3817V79.663C87.5337 79.5916 87.6043 79.5338 87.6916 79.5338H88.3528C88.4401 79.5338 88.5108 79.5914 88.5108 79.663V80.3817ZM89.8438 81.6858C89.8438 81.773 89.7863 81.8438 89.7147 81.8438H88.996C88.9245 81.8438 88.8669 81.7731 88.8669 81.6858V81.0248C88.8669 80.9376 88.9245 80.8668 88.996 80.8668H89.7147C89.7861 80.8668 89.8438 80.9376 89.8438 81.0248V81.6858Z" fill="white"/>
</svg>