<?xml version="1.0" ?>
<!-- Uploaded to: SVG Repo, www.svgrepo.com, Generator: SVG Repo Mixer Tools -->
<svg width="800px" height="800px" viewBox="0 -1 58 58" version="1.1" xmlns="http://www.w3.org/2000/svg" xmlns:xlink="http://www.w3.org/1999/xlink">
<title/>
<desc/>
<g fill="none" fill-rule="evenodd" id="Page-1" stroke="none" stroke-width="1">
<g id="005---Hat">
<path d="M49.53,27.84 C54.76,30.83 58,34.95 58,39.5 C58,48.61 45.02,56 29,56 C12.98,56 0,48.61 0,39.5 C0,34.95 3.24,30.83 8.47,27.84 L49.53,27.84 Z" fill="#63544A" id="Path"/>
<path d="M50.853,34.283 C50.9440357,34.7239802 50.7291191,35.1714162 50.328,35.376 C48.37,36.371 41.971,39 29,39 C16.029,39 9.63,36.371 7.672,35.376 C7.2708809,35.1714162 7.05596428,34.7239802 7.147,34.283 L8.47,27.84 L12.2,9.72 C13.3021161,4.37419206 17.8696526,0.44331762 23.32,0.15 C25.09,0.06 27.02,0 29,0 C30.98,0 32.91,0.06 34.68,0.15 C40.1303474,0.44331762 44.6978839,4.37419206 45.8,9.72 L49.53,27.84 L50.853,34.283 Z" fill="#766458" id="Path"/>
<path d="M50.852,34.283 C50.9430357,34.7239802 50.7281191,35.1714162 50.327,35.376 C48.368,36.372 41.97,39 29,39 C16.03,39 9.632,36.372 7.673,35.376 C7.2718809,35.1714162 7.05696428,34.7239802 7.148,34.283 L7.74,31.41 C9.77,32.43 16.17,35 29,35 C41.83,35 48.23,32.43 50.26,31.41 L50.852,34.283 Z" fill="#F9E6A1" id="Path"/>
<path d="M4.588,43 C4.1981523,43.0001855 3.84373601,42.7737962 3.68,42.42 C3.24307139,41.5079139 3.01097858,40.51128 3,39.5 C3.00216845,38.8844928 3.09001151,38.272284 3.261,37.681 C3.41287832,37.1497021 3.96670207,36.8421217 4.49799999,36.994 C5.02929792,37.1458783 5.33687829,37.6997021 5.185,38.231 C5.06425439,38.6432588 5.00198006,39.070427 5,39.5 C5.01138416,40.2210156 5.17997269,40.9308621 5.494,41.58 C5.72567576,42.0809339 5.50771332,42.674848 5.007,42.907 C4.87594233,42.9686421 4.73282989,43.0004069 4.588,43 Z" fill="#766458" id="Path"/>
<path d="M21,52.314 C20.9409966,52.3144308 20.8820795,52.3094094 20.824,52.299 C14.73,51.214 9.578,48.945 6.318,45.91 C5.91400371,45.5333418 5.8918418,44.9004963 6.2685,44.4965 C6.6451582,44.0925037 7.27800371,44.0703418 7.682,44.447 C10.619,47.182 15.538,49.326 21.175,50.33 C21.6837572,50.4221038 22.0384196,50.886842 21.9929912,51.4018694 C21.9475629,51.9168969 21.5170245,52.3123759 21,52.314 Z" fill="#766458" id="Path"/>
<path d="M13.762,23 C13.6947679,23.0002971 13.6277041,22.9932554 13.562,22.979 C13.3020346,22.9257891 13.0738771,22.7714352 12.9277683,22.5499276 C12.7816596,22.3284199 12.7295808,22.0579227 12.783,21.798 L15.146,10.324 C15.2666145,9.73513482 15.446186,9.15990306 15.682,8.607 C15.8990479,8.09889806 16.486898,7.86295215 16.995,8.08000005 C17.5031019,8.29704794 17.7390479,8.88489804 17.522,9.393 C17.3378411,9.82227132 17.1981127,10.2692682 17.105,10.727 L14.74,22.2 C14.6450972,22.6649308 14.2365171,22.9991477 13.762,23 Z" fill="#8A7567" id="Path"/>
<path d="M12.526,29 C12.4587793,29.0000732 12.3917395,28.993034 12.326,28.979 C11.7854399,28.8672518 11.43766,28.3386443 11.549,27.798 L11.961,25.798 C12.0823886,25.2688406 12.6038122,24.9331949 13.135741,25.0418072 C13.6676698,25.1504195 14.015773,25.6636103 13.92,26.198 L13.508,28.198 C13.413627,28.6651988 13.0026343,29.0008568 12.526,29 Z" fill="#8A7567" id="Path"/>
</g>
</g>
</svg>