<svg width="160" height="176" viewBox="0 0 160 176" fill="none" xmlns="http://www.w3.org/2000/svg">
<path d="M86.6932 176C85.8225 176 85.0693 175.383 84.8932 174.54L82.154 161.373C80.8431 158.894 77.9377 157.66 75.2377 158.434L58.9006 163.146C49.1081 165.968 38.7678 161.393 34.3069 152.262L24.7297 132.648L13.9883 130.982C11.6209 130.62 9.52743 129.248 8.25568 127.21C6.98393 125.182 6.6611 122.704 7.36546 120.411L14.4188 97.4565L11.7774 88.2668C1.39802 52.2037 22.3623 14.3966 58.4995 3.98229L62.8626 2.71846C92.9835 -5.97158 125.286 6.67649 141.408 33.4618C151.102 49.5683 153.812 69.2017 148.843 87.3459L142.357 111.006C140.126 119.167 141.056 127.769 144.998 135.234L153.959 173.796C154.076 174.334 153.939 174.893 153.587 175.324C153.235 175.755 152.716 176 152.159 176H86.6932ZM59.5169 7.49945C42.9842 12.2706 29.2787 23.1944 20.9145 38.2722C12.5503 53.3499 10.5644 70.7398 15.309 87.2382L18.0971 96.9471C18.1949 97.29 18.1949 97.6525 18.0873 97.9954L10.8872 121.469C10.4861 122.762 10.6622 124.105 11.3861 125.251C12.1003 126.397 13.2351 127.142 14.5753 127.348L26.2558 129.16C26.8428 129.248 27.3612 129.63 27.6254 130.169L37.6233 150.635C41.3016 158.159 49.8223 161.931 57.893 159.609L74.2301 154.897C78.6029 153.633 83.3084 155.632 85.4214 159.649L88.2095 172.326H149.919L141.77 136.939C137.397 128.651 136.35 119.098 138.835 110.046L145.321 86.3858C150.036 69.2017 147.463 50.597 138.287 35.3526C122.987 9.99771 92.4063 -1.97436 63.88 6.24542L59.5169 7.50925V7.49945ZM42.8668 94.5076C38.4548 96.6238 33.8178 96.7609 30.7656 94.8701C30.3547 94.6154 30.0613 94.2137 29.9439 93.7336C29.8363 93.2536 29.9145 92.7637 30.1787 92.3424C30.3645 92.0485 30.6287 91.8036 30.9417 91.6567C31.5189 91.3823 32.1743 91.4215 32.7124 91.7448C34.3265 92.7441 37.5939 92.9597 41.282 91.1962C44.9701 89.4327 46.8581 86.7483 47.0929 84.8672C47.1712 84.2402 47.5625 83.7014 48.1299 83.4271C48.4429 83.2801 48.7951 83.2213 49.1473 83.2605C49.6364 83.3193 50.0668 83.5642 50.3701 83.9561C50.6734 84.3382 50.8005 84.8183 50.7418 85.3081C50.3016 88.8645 47.2788 92.3914 42.8668 94.5076Z" fill="#7209B7"/>
</svg>
