<svg width="43" height="23" viewBox="0 0 43 23" fill="none" xmlns="http://www.w3.org/2000/svg">
<path d="M14.6103 7.58C16.7035 7.58 18.4003 5.88316 18.4003 3.79C18.4003 1.69684 16.7035 0 14.6103 0C12.5172 0 10.8203 1.69684 10.8203 3.79C10.8203 5.88316 12.5172 7.58 14.6103 7.58Z" fill="#4A0D72"/>
<path d="M28.2099 7.58C30.3031 7.58 31.9999 5.88316 31.9999 3.79C31.9999 1.69684 30.3031 0 28.2099 0C26.1168 0 24.4199 1.69684 24.4199 3.79C24.4199 5.88316 26.1168 7.58 28.2099 7.58Z" fill="#4A0D72"/>
<path d="M42.3804 20.4101C36.0004 17.1701 28.4904 16.1801 21.4104 16.1801C14.3304 16.1801 6.83043 17.1701 0.440435 20.4101C-0.559565 20.9201 0.320435 22.4301 1.32044 21.9201C7.42043 18.8201 14.6404 17.9201 21.4104 17.9301C28.1804 17.9401 35.3904 18.8301 41.5004 21.9201C42.5004 22.4301 43.3804 20.9201 42.3804 20.4101Z" fill="#4A0D72"/>
</svg>
