<svg width="147" height="131" viewBox="0 0 147 131" fill="none" xmlns="http://www.w3.org/2000/svg">
<path d="M96.5815 54.6711C101.08 53.6558 104.247 51.2531 108.313 49.2324C112.41 47.1967 115.738 45.6234 118.919 42.2557C125.001 35.8217 129.867 28.3373 135.859 21.8631L144.414 10.0307C144.776 9.56831 145.082 9.10085 145.329 8.64343C147.214 5.18017 142.845 1.70183 139.86 4.2754L138.503 5.44658" stroke="#7209B7" stroke-width="2" stroke-linecap="round" stroke-linejoin="round"/>
<path d="M99.532 41.2453C100.849 40.2902 102.503 39.3151 103.89 38.4807C118.587 29.6592 124.579 20.3551 137.301 8.4574C140.277 5.67272 137.251 0.802035 133.446 2.26977C120.608 7.22591 114.883 20.1792 101.035 23.6274C99.2153 24.5673 86.82 28.5031 82.3765 29.3878C80.562 29.7497 77.7773 29.6642 76.8675 27.8145C76.013 26.0904 77.0334 24.4115 78.0286 23.0443C79.0992 21.5715 85.0205 16.6657 86.5636 15.6604C88.1671 14.6149 94.405 11.3476 95.365 10.1212C96.3301 8.88465 98.4261 7.24099 97.074 5.54705C95.9129 4.08937 93.852 5.03435 92.3742 5.39123C90.8713 5.74811 89.303 5.99944 87.8253 6.44177C81.3411 8.39708 75.0378 11.9106 69.0965 16.2535C67.1161 17.7011 65.1758 19.2392 63.2808 20.8427C55.6205 27.1309 49.9506 35.0325 44.7381 43.4117C43.4362 45.5078 42.1595 47.6289 40.8878 49.7702C33.5239 65.0307 23.0085 78.4163 11.2264 90.2838C11.2264 90.2838 -4.41108 101.232 2.98793 109.51C12.9002 119.106 22.4606 127.193 35.9467 129.787C37.4547 130.079 38.8973 129.053 39.0933 127.535C40.8023 114.29 46.3114 99.9548 58.576 92.5257C60.7575 91.6862 62.939 90.877 65.1256 90.0677C76.0482 86.0415 86.9356 82.1761 96.888 75.8477C102.86 72.0477 126.504 50.9263 123.624 48.9006C123.624 48.9006 122.091 47.3575 119.246 49.6496" stroke="#7209B7" stroke-width="2" stroke-miterlimit="10"/>
<path d="M126.147 33.7055C127.017 33.4994 131.511 29.5335 132.787 30.3729C134.124 31.2526 133.099 33.9317 132.647 34.751C131.038 37.6714 129.254 39.9836 126.977 42.4416C126.052 43.4368 122.699 46.8347 121.699 47.6239C119.286 49.5189 117.246 51.5295 114.627 53.148C113.531 53.8216 106.016 59.8484 104.433 60.9492C103.563 61.5524 102.608 62.4018 101.688 62.8995" stroke="#7209B7" stroke-width="2" stroke-miterlimit="10"/>
</svg>
