<svg width="479" height="254" viewBox="0 0 479 254" fill="none" xmlns="http://www.w3.org/2000/svg">
<g clip-path="url(#clip0_529_5002)">
<path d="M370.59 253.88C368.92 253.88 367.51 252.47 367.51 250.8V205.33C367.51 203.66 368.92 202.25 370.59 202.25C372.26 202.25 373.67 203.63 373.67 205.33V250.8C373.67 252.5 372.29 253.88 370.59 253.88Z" fill="#7209B7"/>
<path d="M475.59 253.86C473.89 253.86 472.51 252.48 472.51 250.78V151.19C472.51 120.34 454.06 92.85 425.53 81.17L315.73 68.66C304.67 64.12 297.52 53.46 297.52 41.52V4.08C297.52 2.41 298.93 1 300.6 1C302.27 1 303.68 2.38 303.68 4.08V41.51C303.68 50.93 309.32 59.35 318.05 62.95L427.87 75.46C458.73 88.12 478.67 117.85 478.67 151.19V250.78C478.67 252.48 477.29 253.86 475.6 253.86H475.59Z" fill="#7209B7"/>
<path d="M108.1 253.88C106.4 253.88 105.01 252.5 105.01 250.8V205.33C105.01 203.63 106.39 202.25 108.08 202.25C109.77 202.25 111.17 203.63 111.17 205.33V250.8C111.17 251.62 110.85 252.39 110.26 252.97C109.92 253.31 109.19 253.88 108.09 253.88H108.1Z" fill="#7209B7"/>
<path d="M3.08977 253.86C1.38977 253.86 0.00976562 252.48 0.00976562 250.78V151.19C0.00976562 117.83 19.9498 88.1 50.8198 75.46L160.63 62.96C169.37 59.36 175.02 50.94 175.02 41.51V4.08C175.02 2.38 176.4 1 178.1 1C179.8 1 181.18 2.38 181.18 4.08V41.51C181.18 53.47 174.02 64.13 162.95 68.66L53.1398 81.18C24.5998 92.86 6.15977 120.34 6.15977 151.19V250.78C6.15977 252.48 4.77977 253.86 3.08977 253.86Z" fill="#7209B7"/>
<path d="M239.35 53.2C233.61 53.2 228.29 50.91 224.37 46.76L210.84 32.44C209.69 31.23 209.75 29.23 210.96 28.08C211.52 27.55 212.27 27.26 213.06 27.26C213.56 27.26 214.52 27.39 215.32 28.23L228.78 42.5C228.88 42.61 228.99 42.72 229.1 42.83L229.21 42.96L229.41 43.15C232.09 45.67 235.6 47.06 239.29 47.06C243.25 47.06 247.07 45.41 249.79 42.54L263.32 28.22C264.11 27.37 265.06 27.25 265.56 27.25C266.35 27.25 267.11 27.55 267.7 28.1C268.49 28.84 268.63 29.74 268.65 30.21C268.68 31.04 268.38 31.84 267.81 32.44L254.18 46.86L254.08 46.97C253.94 47.14 253.77 47.3 253.6 47.46L253.42 47.64C249.6 51.23 244.61 53.2 239.35 53.2Z" fill="#7209B7"/>
</g>
<defs>
<clipPath id="clip0_529_5002">
<rect width="478.66" height="252.88" fill="white" transform="translate(0 0.880005)"/>
</clipPath>
</defs>
</svg>
