<svg width="90" height="59" viewBox="0 0 90 59" fill="none" xmlns="http://www.w3.org/2000/svg">
<g clip-path="url(#clip0_300_3320)">
<path d="M79.8483 12.0301C83.2916 12.0301 83.2916 6.63812 79.8483 6.63812C76.4051 6.63812 76.4051 12.0301 79.8483 12.0301Z" fill="#4A0D72"/>
<path d="M54.7599 29.4041C57.6213 29.4041 57.6332 24.9108 54.7599 24.9108C51.8865 24.9108 51.8865 29.4041 54.7599 29.4041Z" fill="#4A0D72"/>
<path d="M46.3892 10.1968C48.6808 10.1968 48.6808 6.60217 46.3892 6.60217C44.0976 6.60217 44.0976 10.1968 46.3892 10.1968Z" fill="#4A0D72"/>
<path d="M5.50929 1.79732C6.66101 1.79732 6.66101 0 5.50929 0C4.35758 0 4.35758 1.79732 5.50929 1.79732Z" fill="#4A0D72"/>
<path d="M0.854875 43.0518C2.00659 43.0518 2.00659 41.2545 0.854875 41.2545C-0.29684 41.2545 -0.29684 43.0518 0.854875 43.0518Z" fill="#4A0D72"/>
<path d="M36.1663 59C37.318 59 37.318 57.2027 36.1663 57.2027C35.0146 57.2027 35.0146 59 36.1663 59Z" fill="#4A0D72"/>
<path d="M56.6121 43.9984C57.7638 43.9984 57.7638 42.201 56.6121 42.201C55.4604 42.201 55.4604 43.9984 56.6121 43.9984Z" fill="#4A0D72"/>
<path d="M89.1332 46.8142C90.2849 46.8142 90.2849 45.0168 89.1332 45.0168C87.9815 45.0168 87.9815 46.8142 89.1332 46.8142Z" fill="#4A0D72"/>
<path d="M57.5382 18.6801C58.6899 18.6801 58.6899 16.8828 57.5382 16.8828C56.3865 16.8828 56.3865 18.6801 57.5382 18.6801Z" fill="#4A0D72"/>
</g>
<defs>
<clipPath id="clip0_300_3320">
<rect width="90" height="59" fill="white"/>
</clipPath>
</defs>
</svg>
