<?xml version="1.0" encoding="utf-8"?>
<!-- Uploaded to: SVG Repo, www.svgrepo.com, Generator: SVG Repo Mixer Tools -->
<svg width="800px" height="800px" viewBox="0 0 1024 1024" class="icon"  version="1.1" xmlns="http://www.w3.org/2000/svg"><path d="M64.9 595.4a447.2 78.5 0 1 0 894.4 0 447.2 78.5 0 1 0-894.4 0Z" fill="#E18C16" /><path d="M512.1 516.9c-18.4 0-36.6 0.2-54.4 0.6 221.3 4.7 392.8 37.8 392.8 77.9 0 40.1-171.5 73.2-392.8 77.9 17.8 0.4 36 0.6 54.4 0.6 247 0 447.2-35.1 447.2-78.5 0-43.3-200.2-78.5-447.2-78.5z" fill="#F19B31" /><path d="M541.3 349.7h-58.9c-101 0-183.7 82.7-183.7 183.7v76.8h426.4v-76.8c0-101-82.7-183.7-183.8-183.7z" fill="#F1B23B" /><path d="M541.3 349.7h-35.5c101 0 183.7 82.7 183.7 183.7v76.8H725v-76.8c0.1-101-82.6-183.7-183.7-183.7z" fill="#F3C36E" /><path d="M298.7 526.4h426.4v45.3H298.7z" fill="#F15322" /></svg>