<svg width="61" height="69" viewBox="0 0 61 69" fill="none" xmlns="http://www.w3.org/2000/svg">
<g clip-path="url(#clip0_413_2700)">
<g opacity="0.2">
<path d="M23.3077 69C36.1803 69 46.6155 67.1792 46.6155 64.9332C46.6155 62.6871 36.1803 60.8663 23.3077 60.8663C10.4352 60.8663 0 62.6871 0 64.9332C0 67.1792 10.4352 69 23.3077 69Z" fill="#390565"/>
</g>
<path d="M44.5541 50.6484C44.5148 56.531 38.414 60.2915 38.414 60.2915L36.799 56.5005L35.9882 54.5983L34.6245 51.3973C34.6245 51.3973 39.2263 48.9391 40.5909 44.6208C40.6958 44.2886 40.9303 44.0548 41.2113 43.9367C41.6308 43.7587 42.1542 43.8403 42.4925 44.2373C42.9245 44.7455 43.3768 45.4158 43.7467 46.2791C44.2249 47.3931 44.5666 48.8279 44.5544 50.6486L44.5541 50.6484Z" fill="#FA9A2A"/>
<path d="M44.5539 50.6484C44.5146 56.531 38.4138 60.2914 38.4138 60.2914L36.7988 56.5005C45.5071 54.0162 41.6645 44.937 41.2111 43.9365C41.6307 43.7585 42.154 43.84 42.4923 44.237C43.4824 45.3997 44.5766 47.4166 44.5539 50.6484Z" fill="#FFFEFF"/>
<g opacity="0.3">
<path d="M44.5538 50.6484C44.5144 56.531 38.4137 60.2915 38.4137 60.2915L36.7987 56.5005L35.9878 54.5983C45.1191 55.2812 43.3426 46.1498 43.3426 46.1498C43.3426 46.1498 43.4904 46.1794 43.7464 46.2791C44.2246 47.3931 44.5663 48.8279 44.554 50.6486L44.5538 50.6484Z" fill="#4A0D72"/>
</g>
<g opacity="0.4">
<path d="M37.7009 56.9541L35.5264 51.8507C35.5264 51.8507 40.1282 49.3925 41.4927 45.0742C41.5977 44.742 41.8322 44.5083 42.1132 44.3901C42.2496 44.3321 42.3972 44.3023 42.5457 44.3011C42.5279 44.2797 42.5098 44.2578 42.492 44.2368C42.1537 43.8398 41.6304 43.7582 41.2108 43.9362C40.93 44.0541 40.6953 44.2878 40.5904 44.6203C39.2256 48.9388 34.624 51.3968 34.624 51.3968L36.7985 56.5002L38.4135 60.2912C38.4135 60.2912 38.6225 60.1624 38.9626 59.9156L37.7007 56.9539L37.7009 56.9541Z" fill="#FFFEFF"/>
</g>
<path d="M38.4134 60.7088C38.3713 60.7088 38.3289 60.7022 38.2879 60.6892C38.1732 60.6526 38.08 60.5673 38.0325 60.4562L34.2435 51.561C34.1587 51.3618 34.2398 51.1305 34.43 51.0286C34.4872 50.9979 38.9011 48.5891 40.1952 44.4941C40.3641 43.9598 40.7925 43.5739 41.3416 43.4616C41.8934 43.3488 42.4416 43.5376 42.8069 43.9663C43.8059 45.1385 44.9919 47.2498 44.9687 50.6512C44.9274 56.6964 38.8872 60.4888 38.63 60.6473C38.5642 60.6878 38.4892 60.7088 38.4134 60.7088ZM35.151 51.5743L38.5971 59.6642C39.9263 58.7161 44.1075 55.3597 44.1397 50.6453C44.1613 47.5014 43.0845 45.5729 42.1775 44.5087C42.0106 44.313 41.7597 44.227 41.5065 44.2788C41.2565 44.3298 41.0617 44.5048 40.9853 44.7466C39.7861 48.5406 36.2605 50.9077 35.1507 51.5743H35.151Z" fill="#4A0D72"/>
<path d="M43.549 63.3442C41.5255 66.0065 36.7546 65.7909 29.8407 64.3356C29.8407 64.3356 26.325 64.7667 23.2583 64.7667C20.1916 64.7667 16.676 64.3356 16.676 64.3356C9.76207 65.7909 4.99117 66.0065 2.96771 63.3442C1.19817 61.0165 0.35441 56.0265 2.64638 54.6722C4.93719 53.3178 7.00791 55.2382 7.00791 55.2382C7.62046 54.891 8.36807 54.552 8.66485 54.4204C8.74825 54.3829 8.79691 54.3626 8.79691 54.3626C9.63256 50.2745 10.8146 47.2774 11.7575 45.34C12.0012 44.8397 12.229 44.4098 12.4307 44.0503C12.9518 43.1237 13.2993 42.6642 13.2993 42.6642H33.2176C33.2176 42.6642 34.0127 43.7169 35.002 45.8517C35.8986 47.7891 36.9555 50.6182 37.7202 54.3626C37.7202 54.3626 38.7252 54.7936 39.509 55.2382C39.509 55.2382 41.5797 53.3178 43.8705 54.6722C46.1623 56.0267 45.3187 61.0167 43.5492 63.3442H43.549Z" fill="#FA9A2A"/>
<path d="M43.549 63.3442C41.5255 66.0065 36.7546 65.7909 29.8407 64.3356C29.8407 64.3356 26.325 64.7667 23.2583 64.7667C22.3448 64.7667 21.3894 64.728 20.5007 64.6748C19.5205 64.6159 18.6183 64.5376 17.937 64.4707C17.1643 64.3959 16.676 64.3358 16.676 64.3358C15.7896 64.5229 14.9379 64.6886 14.1224 64.8305C13.4402 64.9507 12.7836 65.0528 12.1532 65.1367C7.66656 65.7334 4.51415 65.3795 2.96771 63.3444C1.19817 61.0167 0.35441 56.0267 2.64638 54.6725C4.93719 53.318 7.00791 55.2384 7.00791 55.2384C7.62046 54.8913 8.36808 54.5523 8.66485 54.4206C8.9197 54.4966 9.15994 54.5954 9.38096 54.7007C10.1005 55.0478 10.7073 55.5866 11.1744 56.2366C14.5038 60.8659 17.874 59.2913 19.735 57.1372C20.5945 56.1413 21.1313 55.0217 21.1911 54.3342C21.2045 54.1799 21.1934 54.0483 21.1573 53.9439C21.1211 53.8418 21.0806 53.7398 21.0343 53.6398C20.8244 53.1771 20.5155 52.7425 20.1928 52.3671C19.9301 52.0619 19.6423 51.7807 19.3344 51.5232C18.9362 51.1898 18.5032 50.8971 18.0486 50.6453C13.1288 47.9217 13.0725 44.7591 12.9946 44.0503C13.5157 43.1237 13.2991 42.6642 13.2991 42.6642H33.2174C33.2174 42.6642 33.0008 43.1237 33.5218 44.0503C33.444 44.7594 33.3877 47.9219 28.4678 50.6453C27.6613 51.0922 26.926 51.666 26.3236 52.3671C25.9312 52.8243 25.56 53.3665 25.3594 53.9439C24.8113 55.5183 30.128 63.487 35.3423 56.2364C35.8091 55.5863 36.4161 55.0476 37.1357 54.7004C37.3567 54.5949 37.597 54.4963 37.8518 54.4204C38.1484 54.552 38.8962 54.891 39.5088 55.2382C39.5088 55.2382 41.5795 53.3178 43.8703 54.6722C46.162 56.0267 45.3185 61.0167 43.549 63.3442Z" fill="#FFFEFF"/>
<g opacity="0.3">
<path d="M45.2006 57.0267C45.0069 58.6421 44.3802 60.3226 43.549 61.4158C41.5255 64.0781 36.7546 63.8626 29.8407 62.4072C29.8407 62.4072 27.7169 62.6675 25.3311 62.7835C25.0761 61.1183 24.5238 56.6912 25.3596 53.9438C25.3596 53.9438 23.8373 56.6306 24.0572 62.003C24.0757 62.4559 23.7184 62.8381 23.2676 62.8381H23.25C22.7989 62.8381 22.441 62.4564 22.4595 62.003C22.6794 56.6306 21.157 53.9438 21.157 53.9438C21.9929 56.6912 21.4408 61.118 21.1855 62.7835C20.9541 62.7723 20.7252 62.7598 20.5005 62.7463C19.5203 62.6873 18.6181 62.609 17.9367 62.5421C17.1641 62.4673 16.6757 62.4072 16.6757 62.4072C15.7893 62.5943 14.9377 62.76 14.1222 62.9019C13.4399 63.0221 12.7834 63.1242 12.153 63.2081C7.66633 63.8048 4.51392 63.4509 2.96748 61.4158C2.13623 60.3226 1.50955 58.6421 1.31587 57.0267C1.02604 59.0767 1.79173 61.7975 2.96748 63.3441C4.51369 65.3792 7.6661 65.7331 12.153 65.1364C12.7834 65.0525 13.4399 64.9505 14.1222 64.8302C14.9377 64.6883 15.7891 64.5229 16.6757 64.3356C16.6757 64.3356 17.1641 64.3957 17.9367 64.4705C18.6179 64.5373 19.5203 64.6156 20.5005 64.6746C21.3892 64.7279 22.3446 64.7664 23.2581 64.7664C26.3248 64.7664 29.8405 64.3353 29.8405 64.3353C36.7544 65.7907 41.5253 66.0062 43.5487 63.3439C44.7245 61.7972 45.4902 59.0764 45.2004 57.0265L45.2006 57.0267Z" fill="#4A0D72"/>
</g>
<path d="M5.76742 62.1994C6.44625 62.0172 6.81014 61.1669 6.58019 60.3002C6.35024 59.4334 5.61352 58.8785 4.9347 59.0607C4.25587 59.2428 3.89198 60.0931 4.12193 60.9599C4.35188 61.8266 5.08859 62.3816 5.76742 62.1994Z" fill="#FF6C6F"/>
<path d="M4.59851 58.4549C5.01513 58.3431 5.23844 57.8212 5.09729 57.2892C4.95614 56.7571 4.50398 56.4165 4.08736 56.5283C3.67074 56.6401 3.44743 57.162 3.58858 57.694C3.72973 58.2261 4.18189 58.5667 4.59851 58.4549Z" fill="#FF6C6F"/>
<path d="M3.5466 59.7647C3.85063 59.5025 3.82886 58.9753 3.49798 58.5872C3.16709 58.1991 2.65238 58.097 2.34835 58.3592C2.04432 58.6213 2.06609 59.1485 2.39698 59.5366C2.72787 59.9248 3.24257 60.0269 3.5466 59.7647Z" fill="#FF6C6F"/>
<path d="M7.1865 57.994C7.22841 57.445 6.91386 56.973 6.48393 56.9398C6.054 56.9066 5.6715 57.3248 5.62959 57.8738C5.58768 58.4228 5.90224 58.8948 6.33217 58.928C6.7621 58.9612 7.1446 58.5431 7.1865 57.994Z" fill="#FF6C6F"/>
<path d="M42.3995 60.964C42.6295 60.0973 42.2656 59.2469 41.5868 59.0648C40.9079 58.8826 40.1712 59.4376 39.9413 60.3043C39.7113 61.171 40.0752 62.0213 40.754 62.2035C41.4329 62.3857 42.1696 61.8307 42.3995 60.964Z" fill="#FF6C6F"/>
<path d="M42.9323 57.6973C43.0734 57.1653 42.8501 56.6433 42.4335 56.5315C42.0169 56.4197 41.5647 56.7604 41.4235 57.2924C41.2824 57.8244 41.5057 58.3464 41.9223 58.4582C42.3389 58.57 42.7911 58.2293 42.9323 57.6973Z" fill="#FF6C6F"/>
<path d="M44.123 59.5439C44.4539 59.1558 44.4756 58.6286 44.1716 58.3664C43.8676 58.1042 43.3529 58.2063 43.022 58.5945C42.6911 58.9826 42.6693 59.5098 42.9733 59.7719C43.2774 60.0341 43.7921 59.932 44.123 59.5439Z" fill="#FF6C6F"/>
<path d="M40.1822 58.9342C40.6121 58.901 40.9267 58.429 40.8847 57.88C40.8428 57.331 40.4603 56.9128 40.0304 56.946C39.6005 56.9792 39.2859 57.4512 39.3278 58.0002C39.3697 58.5492 39.7522 58.9674 40.1822 58.9342Z" fill="#FF6C6F"/>
<g opacity="0.3">
<path d="M35.0021 45.8514C23.9782 50.206 14.414 46.5525 11.7578 45.3398C12.0015 44.8395 12.2293 44.4096 12.4311 44.0501C12.9521 43.1234 13.2996 42.6639 13.2996 42.6639H33.2179C33.2179 42.6639 34.0131 43.7166 35.0023 45.8514H35.0021Z" fill="#4A0D72"/>
</g>
<path d="M39.7646 55.5658L39.7145 55.6128C39.696 55.6296 39.6763 55.6506 39.6571 55.6699C39.6184 55.7083 39.5795 55.7487 39.541 55.7904C39.5021 55.8307 39.4639 55.8726 39.4273 55.9167C39.39 55.96 39.3508 56.001 39.3149 56.046C39.171 56.2249 39.0272 56.406 38.9011 56.6012C38.836 56.6972 38.77 56.7927 38.7125 56.8943C38.6535 56.9945 38.5902 57.0926 38.5383 57.1975C38.4846 57.3012 38.425 57.4021 38.3754 57.5081L38.229 57.828C38.1799 57.9347 38.1417 58.0463 38.097 58.1553L38.0321 58.3201L37.9788 58.489C37.9445 58.6023 37.9049 58.7141 37.8683 58.8273C37.8389 58.9424 37.8104 59.058 37.777 59.1729L37.7284 59.346L37.6897 59.5217C37.6626 59.6389 37.6387 59.757 37.6081 59.8751C37.5574 60.1123 37.5203 60.3533 37.4599 60.5965L37.4569 60.6086C37.4376 60.686 37.3596 60.7333 37.2824 60.7137C37.2238 60.699 37.1828 60.6499 37.1749 60.5933C37.1575 60.467 37.1429 60.3398 37.1318 60.2121C37.1223 60.0844 37.1047 59.9555 37.1084 59.8276C37.1077 59.6992 37.1135 59.5708 37.1161 59.4415C37.1179 59.377 37.1186 59.3122 37.1246 59.2479L37.1473 59.0554C37.1615 58.9268 37.1802 58.7987 37.1983 58.6701C37.2243 58.5431 37.2509 58.4158 37.2805 58.2891L37.3248 58.0987L37.3813 57.9116C37.4205 57.7872 37.4538 57.6607 37.4986 57.5377C37.6744 57.0449 37.9065 56.5702 38.191 56.1261C38.3326 55.9038 38.492 55.6916 38.663 55.4884C38.751 55.388 38.8376 55.2875 38.9354 55.1936C38.9827 55.1459 39.0306 55.0981 39.0832 55.0527C39.1092 55.0296 39.1335 55.0068 39.162 54.9835C39.1905 54.9599 39.2141 54.9392 39.2526 54.9094C39.4337 54.7693 39.6937 54.8034 39.8329 54.9856C39.9636 55.1566 39.9418 55.3971 39.7891 55.5418L39.7643 55.5651L39.7646 55.5658Z" fill="#4A0D72"/>
<path d="M37.5743 54.7524C37.3465 54.6512 37.1202 54.5284 36.8971 54.4017C36.6738 54.2738 36.4523 54.1402 36.2375 53.9762L36.2368 53.9757C36.1819 53.9338 36.1712 53.8551 36.2129 53.8001C36.2361 53.7693 36.2713 53.7523 36.307 53.7507C36.5792 53.7393 36.8422 53.7665 37.101 53.8054C37.3602 53.8455 37.6144 53.8944 37.8648 53.9718C38.084 54.0396 38.2072 54.2733 38.1398 54.4937C38.0724 54.7141 37.84 54.8381 37.6208 54.7703C37.6058 54.7656 37.5914 54.7603 37.5773 54.7542L37.574 54.7528L37.5743 54.7524Z" fill="#4A0D72"/>
<path d="M7.26645 54.9101C7.30491 54.9396 7.32854 54.9604 7.35703 54.9842C7.38553 55.0075 7.40986 55.0303 7.4358 55.0534C7.48816 55.0988 7.53635 55.1466 7.58361 55.1943C7.68138 55.2885 7.76803 55.3886 7.85606 55.4891C8.02727 55.6922 8.18643 55.9045 8.32799 56.1268C8.61248 56.5709 8.84485 57.0455 9.02047 57.5383C9.06518 57.6611 9.09854 57.7879 9.13769 57.9123L9.19422 58.0994L9.23847 58.2898C9.26836 58.4163 9.29477 58.5437 9.32072 58.6707C9.33879 58.7993 9.35755 58.9275 9.37169 59.0561L9.39439 59.2486C9.40018 59.3129 9.40111 59.3777 9.40296 59.4422C9.40551 59.5715 9.4113 59.6999 9.41061 59.8283C9.41431 59.9564 9.39671 60.0853 9.38721 60.2127C9.37609 60.3404 9.36149 60.4677 9.34412 60.5939C9.33323 60.6732 9.26071 60.7284 9.18194 60.7174C9.12217 60.709 9.07607 60.665 9.06217 60.6093L9.05916 60.597C8.99869 60.3537 8.96139 60.1128 8.91088 59.8756C8.88053 59.7575 8.85644 59.6393 8.82933 59.5221L8.79064 59.3464L8.74199 59.1733C8.70863 59.0582 8.6799 58.9429 8.65071 58.8278C8.61411 58.7145 8.57449 58.6025 8.5402 58.4895L8.48692 58.3205L8.42205 58.1558C8.37757 58.0467 8.33911 57.9351 8.28999 57.8284L8.14357 57.5085C8.09399 57.4025 8.03445 57.3016 7.9807 57.1979C7.92881 57.0931 7.86579 56.9952 7.80648 56.8948C7.74903 56.7932 7.683 56.6977 7.6179 56.6017C7.4921 56.4066 7.348 56.2254 7.20413 56.0464C7.16822 56.0014 7.12906 55.9604 7.09176 55.9171C7.05493 55.8731 7.01693 55.8311 6.97801 55.7908C6.93955 55.7491 6.90063 55.7088 6.86194 55.6703C6.84271 55.651 6.82302 55.6303 6.80449 55.6133L6.75444 55.5662L6.73104 55.5443C6.56424 55.387 6.55567 55.1237 6.71182 54.956C6.85847 54.7987 7.09941 54.7824 7.26622 54.9105L7.26645 54.9101Z" fill="#4A0D72"/>
<path d="M8.65391 53.9715C8.90435 53.8942 9.1585 53.845 9.41774 53.8052C9.67652 53.7663 9.93948 53.739 10.2117 53.7504C10.2805 53.7532 10.334 53.8117 10.331 53.8811C10.3294 53.9198 10.3106 53.9536 10.2824 53.9755L10.2812 53.9764C10.0664 54.1402 9.84495 54.2737 9.62162 54.4019C9.39875 54.5287 9.17217 54.6517 8.94443 54.7526L8.94327 54.753C8.73337 54.8462 8.48826 54.7505 8.39582 54.5396C8.30315 54.3285 8.39837 54.082 8.60804 53.989C8.6224 53.9827 8.63908 53.9764 8.65368 53.972L8.65391 53.9715Z" fill="#4A0D72"/>
<path d="M8.73382 65.8128C6.07465 65.8128 3.883 65.2343 2.6389 63.5979C1.28498 61.8168 0.545012 58.7749 0.954383 56.6723C1.16799 55.5756 1.68046 54.7596 2.43664 54.3127C4.28519 53.2201 6.14531 54.0263 7.05788 54.7356C7.58518 54.4527 8.14514 54.1957 8.43543 54.0664C10.0514 46.3365 12.8509 42.5693 12.9702 42.4116C13.0486 42.3079 13.1706 42.2471 13.3002 42.2471H33.2178C33.3473 42.2471 33.4694 42.3079 33.5477 42.4116C33.667 42.5695 36.4666 46.3367 38.0825 54.0664C38.3728 54.1959 38.9325 54.4527 39.4601 54.7356C40.3726 54.0261 42.2328 53.2199 44.0813 54.3127C44.8375 54.7596 45.3499 55.5756 45.5636 56.6723C45.9729 58.7747 45.233 61.8168 43.879 63.5979C41.5159 66.7064 35.7329 65.9978 29.8226 64.7573C29.3136 64.8172 26.0803 65.1835 23.2592 65.1835C20.4381 65.1835 17.2046 64.8172 16.6958 64.7573C13.897 65.3447 11.1266 65.813 8.73429 65.813L8.73382 65.8128ZM4.37091 54.6042C3.89829 54.6042 3.38397 54.7197 2.85644 55.0315C2.30297 55.3586 1.93669 55.9647 1.7678 56.8326C1.40476 58.6969 2.09098 61.5046 3.29755 63.0916C4.98925 65.3167 8.84086 65.5591 16.592 63.9273C16.6363 63.918 16.6819 63.9162 16.7271 63.9215C16.7621 63.9259 20.2539 64.3498 23.2587 64.3498C26.2636 64.3498 29.7554 63.9257 29.7904 63.9215C29.8353 63.9162 29.8812 63.918 29.9254 63.9273C37.6766 65.5588 41.5282 65.317 43.2199 63.0916C44.4263 61.5046 45.1125 58.6969 44.7494 56.8326C44.5806 55.9647 44.214 55.3586 43.6608 55.0315C41.6689 53.8541 39.865 55.4756 39.7893 55.5453C39.657 55.6667 39.4612 55.6895 39.3053 55.6012C38.5512 55.1734 37.567 54.7498 37.5573 54.7456C37.4322 54.692 37.3414 54.5799 37.314 54.4462C35.9284 47.6635 33.5533 43.8886 33.0033 43.0808H13.5142C12.9645 43.8881 10.5893 47.663 9.20343 54.4462C9.17609 54.5802 9.08528 54.692 8.96017 54.7456C8.95044 54.7498 7.96628 55.1734 7.21218 55.6012C7.05533 55.6902 6.8598 55.6671 6.72751 55.5446C6.67237 55.494 5.68265 54.6042 4.37114 54.6042H4.37091Z" fill="#4A0D72"/>
<path d="M19.7905 65.3598C17.325 66.7879 12.4197 66.653 12.0182 64.7939C11.9561 64.5056 11.9911 64.2232 12.0893 63.9555C12.2191 63.6051 12.4558 63.2784 12.722 62.9958C13.3107 62.3662 14.0417 61.9498 14.0417 61.9498C13.9594 61.6877 13.8804 61.4246 13.8049 61.1604C12.3036 55.9777 11.8301 50.669 11.8301 50.669C14.3959 50.4579 17.5754 51.9111 19.4816 52.9501C20.3377 53.4163 20.9377 53.7996 21.108 53.9107C21.1407 53.9324 21.1576 53.9436 21.1576 53.9436C21.1768 54.133 21.1993 54.3451 21.2218 54.5743C21.2285 54.6198 21.2331 54.6661 21.2363 54.7127C21.2431 54.7934 21.2509 54.8784 21.2611 54.9658C21.2906 55.264 21.3209 55.5863 21.3492 55.9255C21.63 59.2321 21.788 64.2016 19.7905 65.3598Z" fill="#FA9A2A"/>
<path d="M19.7906 65.3598C17.3251 66.7879 12.4198 66.653 12.0183 64.7939C11.6924 63.2887 14.0418 61.9501 14.0418 61.9501C13.9595 61.6879 13.8805 61.4249 13.805 61.1607C14.5619 62.701 17.6003 62.0374 19.4422 61.2082C21.4791 60.2916 21.3493 55.9255 21.3493 55.9255C21.6301 59.2321 21.7881 64.2016 19.7906 65.3598Z" fill="#FFFEFF"/>
<g opacity="0.3">
<path d="M21.3492 55.9255C21.3209 55.5863 21.2906 55.2643 21.2612 54.9658C21.251 54.8784 21.2431 54.7934 21.2364 54.7128C21.2329 54.6662 21.2285 54.6198 21.2218 54.5744C21.2139 54.4928 21.2037 54.4122 21.1914 54.3339C21.169 54.1876 21.1407 54.0468 21.108 53.9108C21.0867 53.8178 21.0617 53.7281 21.0348 53.6396C20.8249 53.1768 20.5161 52.7423 20.1934 52.3669C19.9306 52.0617 19.6429 51.7804 19.335 51.5229C19.3892 52.0153 19.4388 52.4918 19.4817 52.9499C19.6306 54.5368 19.714 55.9253 19.7353 57.1367C19.812 61.4552 19.1184 63.5422 17.9375 64.4702C17.3567 64.9251 16.6585 65.1022 15.877 65.1259C15.1292 65.1485 14.5585 65.0262 14.1232 64.8298C12.8161 64.2433 12.7225 62.9956 12.7225 62.9956L12.0898 63.9553C11.9916 64.223 11.9568 64.5054 12.0187 64.7937C12.0446 64.9151 12.091 65.0297 12.154 65.1362C13.0517 66.6642 17.4865 66.6947 19.7907 65.3596C20.0671 65.1998 20.3016 64.9661 20.5013 64.6746C21.7419 62.8586 21.592 58.7749 21.3494 55.9255H21.3492Z" fill="#4A0D72"/>
</g>
<path d="M14.5432 64.1C14.4795 64.2687 14.4324 64.4467 14.4109 64.6156C14.3859 64.785 14.3856 64.9509 14.3947 65.1126C14.4123 65.2757 14.4396 65.4337 14.4832 65.5912C14.5019 65.6697 14.5327 65.748 14.5536 65.8263C14.5814 65.9044 14.6122 65.9822 14.6351 66.0623L14.6472 66.105C14.71 66.3256 14.583 66.5558 14.3636 66.6192C14.1547 66.6793 13.9366 66.5652 13.862 66.3636C13.8247 66.2618 13.7902 66.159 13.762 66.0542C13.7497 66.0006 13.7402 65.9461 13.7295 65.8922C13.7189 65.8384 13.7082 65.7848 13.7057 65.7284L13.6925 65.5623C13.6883 65.5073 13.6938 65.45 13.6943 65.3946C13.6932 65.2834 13.714 65.1709 13.7298 65.0611C13.7726 64.8407 13.8528 64.6282 13.9672 64.4404C14.0851 64.2531 14.2281 64.0909 14.4241 63.9774C14.4658 63.9534 14.5191 63.9679 14.5429 64.0096C14.5564 64.0331 14.5578 64.0604 14.549 64.0839L14.5429 64.1H14.5432Z" fill="#4A0D72"/>
<path d="M17.6521 64.046C17.5883 64.2146 17.5413 64.3927 17.5198 64.5616C17.4948 64.731 17.4945 64.8969 17.5036 65.0586C17.5212 65.2217 17.5485 65.3797 17.5921 65.5372C17.6108 65.6157 17.6416 65.694 17.6625 65.7723C17.6903 65.8503 17.7211 65.9282 17.744 66.0083L17.7561 66.051C17.8189 66.2716 17.6919 66.5018 17.4725 66.5652C17.2635 66.6253 17.0455 66.5111 16.9709 66.3096C16.9336 66.2078 16.8991 66.105 16.8708 66.0002C16.8586 65.9466 16.8491 65.892 16.8384 65.8382C16.8278 65.7844 16.8171 65.7308 16.8146 65.6744L16.8013 65.5083C16.7972 65.4533 16.8027 65.396 16.8032 65.3405C16.802 65.2294 16.8229 65.1168 16.8386 65.0071C16.8815 64.7867 16.9617 64.5742 17.0761 64.3864C17.194 64.199 17.337 64.0369 17.533 63.9234C17.5747 63.8994 17.628 63.9136 17.6518 63.9556C17.6653 63.9791 17.6667 64.0063 17.6579 64.0299L17.6518 64.046H17.6521Z" fill="#4A0D72"/>
<path d="M12.0098 50.6529C12.1979 51.591 12.3703 52.5332 12.5459 53.4713C12.7215 54.4101 12.8941 55.3481 13.0894 56.2811C13.278 57.2154 13.4895 58.1439 13.7135 59.068C13.9315 59.9942 14.1841 60.9095 14.4368 61.8247L14.4442 61.8515C14.4952 62.0363 14.4081 62.2266 14.2457 62.3119C14.1581 62.365 14.0536 62.434 13.9591 62.5004C13.8627 62.568 13.768 62.6381 13.6753 62.7106C13.4904 62.8557 13.3148 63.0107 13.1526 63.1726C12.8297 63.4942 12.5612 63.8658 12.4664 64.2279C12.4233 64.4054 12.4178 64.5839 12.4671 64.7365C12.509 64.8808 12.6024 65.0166 12.7435 65.1401C13.0278 65.388 13.4578 65.5593 13.8989 65.6702C14.3453 65.7799 14.8165 65.838 15.2915 65.8547C15.7666 65.8734 16.2464 65.8547 16.7214 65.8004C17.6685 65.6928 18.6156 65.4563 19.4276 65.0322C19.476 65.0052 19.5316 64.9784 19.5745 64.9514L19.6926 64.8714C19.7343 64.8488 19.7679 64.8106 19.8052 64.7792C19.8407 64.7445 19.8819 64.7188 19.9136 64.6776C19.9801 64.6 20.0513 64.5278 20.1087 64.4362C20.1381 64.3917 20.172 64.3519 20.1988 64.3041L20.2801 64.1613C20.4944 63.7754 20.6409 63.3245 20.7507 62.8618C20.9692 61.9314 21.0507 60.9442 21.0815 59.9579C21.1135 58.9692 21.0753 57.9736 21.0324 56.9766C20.9956 55.9786 20.9451 54.9781 20.9559 53.9643C20.9571 53.8513 21.0491 53.7609 21.1614 53.7621C21.2578 53.763 21.3377 53.8313 21.3577 53.9219V53.9229C21.5768 54.9108 21.7267 55.9134 21.8206 56.9242C21.9086 57.9354 21.9471 58.9532 21.9329 59.9772C21.9132 61.0006 21.8516 62.033 21.6192 63.0661C21.5004 63.5813 21.3421 64.1 21.0734 64.5974L20.9692 64.7827C20.9344 64.8444 20.889 64.9029 20.8491 64.963C20.772 65.0847 20.671 65.196 20.5732 65.3081C20.5269 65.3657 20.4641 65.4132 20.4094 65.4656C20.3517 65.5159 20.2991 65.5705 20.2324 65.6122L20.0397 65.7436C19.9767 65.7832 19.9192 65.8114 19.8585 65.8456C19.3789 66.1087 18.8743 66.2848 18.3667 66.4274C17.8582 66.5677 17.3418 66.6588 16.8226 66.7178C16.3034 66.7765 15.7805 66.7961 15.2558 66.7749C14.7313 66.7548 14.204 66.6914 13.6781 66.5617C13.1561 66.4247 12.6172 66.2371 12.143 65.8188C11.9104 65.6112 11.7 65.3221 11.6076 64.98C11.5119 64.6489 11.5325 64.3062 11.6136 63.9984C11.6996 63.6929 11.8407 63.4231 12.0042 63.1882C12.1683 62.9524 12.3527 62.7432 12.5482 62.5535C12.7428 62.3625 12.9504 62.1924 13.1631 62.0323C13.2699 61.9529 13.3785 61.8764 13.489 61.8028C13.6019 61.728 13.7077 61.6607 13.8363 61.587H13.8368L13.6456 62.074C13.5715 61.8436 13.4955 61.6134 13.4249 61.3815L13.3174 61.0344L13.218 60.6851C13.1522 60.4521 13.0841 60.2198 13.0224 59.9856L12.8452 59.2817C12.7852 59.0473 12.7333 58.811 12.6805 58.5752C12.6288 58.3392 12.5716 58.1041 12.5246 57.8669C12.4296 57.393 12.3337 56.9193 12.2505 56.4437C12.0848 55.4921 11.9333 54.5384 11.8279 53.5787C11.7232 52.6185 11.6493 51.6571 11.6505 50.685C11.6505 50.5846 11.7318 50.5033 11.8316 50.5033C11.9192 50.5033 11.9922 50.566 12.0089 50.6492L12.0096 50.6526L12.0098 50.6529Z" fill="#4A0D72"/>
<path d="M26.7269 65.3598C29.1924 66.7879 34.0977 66.653 34.4992 64.7939C34.5613 64.5056 34.5263 64.2232 34.428 63.9555C34.2983 63.6051 34.0615 63.2784 33.7953 62.9958C33.2066 62.3662 32.4757 61.9498 32.4757 61.9498C32.558 61.6877 32.637 61.4246 32.7125 61.1604C34.2137 55.9777 34.6873 50.669 34.6873 50.669C32.1215 50.4579 28.942 51.9111 27.0357 52.9501C26.1797 53.4163 25.5797 53.7996 25.4094 53.9107C25.3767 53.9324 25.3598 53.9436 25.3598 53.9436C25.3406 54.133 25.3181 54.3451 25.2956 54.5743C25.2889 54.6198 25.2843 54.6661 25.281 54.7127C25.2743 54.7934 25.2664 54.8784 25.2562 54.9658C25.2268 55.264 25.1965 55.5863 25.1682 55.9255C24.8874 59.2321 24.7294 64.2016 26.7269 65.3598Z" fill="#FA9A2A"/>
<path d="M26.7269 65.3598C29.1924 66.7879 34.0977 66.653 34.4992 64.7939C34.8251 63.2887 32.4757 61.9501 32.4757 61.9501C32.558 61.6879 32.637 61.4249 32.7125 61.1607C31.9556 62.701 28.9172 62.0374 27.0754 61.2082C25.0385 60.2916 25.1682 55.9255 25.1682 55.9255C24.8874 59.2321 24.7294 64.2016 26.7269 65.3598Z" fill="#FFFEFF"/>
<g opacity="0.3">
<path d="M25.1681 55.9255C25.1964 55.5863 25.2268 55.2643 25.2562 54.9658C25.2664 54.8784 25.2742 54.7934 25.281 54.7128C25.2844 54.6662 25.2888 54.6198 25.2956 54.5744C25.3034 54.4928 25.3136 54.4122 25.3259 54.3339C25.3484 54.1876 25.3766 54.0468 25.4093 53.9108C25.4309 53.8178 25.4556 53.7281 25.4825 53.6396C25.6924 53.1768 26.0012 52.7423 26.324 52.3669C26.5867 52.0617 26.8744 51.7804 27.1823 51.5229C27.1281 52.0153 27.0785 52.4918 27.0357 52.9499C26.8867 54.5368 26.8033 55.9253 26.782 57.1367C26.7053 61.4552 27.3989 63.5422 28.5798 64.4702C29.1606 64.9251 29.8589 65.1022 30.6403 65.1259C31.3882 65.1485 31.9588 65.0262 32.3941 64.8298C33.7012 64.2433 33.7948 62.9956 33.7948 62.9956L34.4275 63.9553C34.5258 64.223 34.5605 64.5054 34.4986 64.7937C34.4727 64.9151 34.4264 65.0297 34.3633 65.1362C33.4656 66.6642 29.0309 66.6947 26.7266 65.3596C26.4502 65.1998 26.2158 64.9661 26.0161 64.6746C24.7754 62.8586 24.9253 58.7749 25.1679 55.9255H25.1681Z" fill="#4A0D72"/>
</g>
<path d="M32.0932 63.9773C32.2892 64.0905 32.4322 64.2529 32.5501 64.4402C32.6643 64.6283 32.7445 64.8405 32.7876 65.061C32.8036 65.1707 32.8244 65.2832 32.823 65.3944C32.8235 65.4498 32.829 65.5072 32.8249 65.5622L32.8117 65.7283C32.8091 65.7847 32.7985 65.8383 32.7878 65.8921C32.7771 65.9459 32.7679 66.0004 32.7554 66.054C32.7271 66.1591 32.6926 66.2619 32.6553 66.3634C32.5763 66.5787 32.3384 66.689 32.1243 66.6095C31.9204 66.5338 31.8113 66.3134 31.8697 66.1064L31.8822 66.0624C31.9051 65.9823 31.9359 65.9044 31.9637 65.8264C31.9846 65.7481 32.0156 65.6698 32.0342 65.5913C32.0777 65.4338 32.1051 65.2756 32.1227 65.1127C32.1317 64.951 32.1315 64.7851 32.1064 64.6157C32.0849 64.447 32.0379 64.2688 31.9742 64.1001L31.9684 64.0844C31.9512 64.0392 31.9739 63.9887 32.0189 63.9714C32.0441 63.9619 32.0715 63.9649 32.0932 63.9775V63.9773Z" fill="#4A0D72"/>
<path d="M28.9844 63.9234C29.1804 64.0367 29.3233 64.1991 29.4412 64.3864C29.5554 64.5744 29.6356 64.7867 29.6787 65.0071C29.6947 65.1169 29.7155 65.2294 29.7141 65.3406C29.7148 65.396 29.7202 65.4533 29.716 65.5083L29.7028 65.6745C29.7002 65.7308 29.6896 65.7844 29.6789 65.8383C29.6683 65.8921 29.659 65.9466 29.6465 66.0002C29.6182 66.1053 29.5837 66.208 29.5464 66.3096C29.4674 66.5249 29.2295 66.6351 29.0154 66.5557C28.8115 66.4799 28.7024 66.2595 28.7608 66.0526L28.7733 66.0086C28.7962 65.9284 28.827 65.8506 28.8548 65.7725C28.8757 65.6943 28.9067 65.616 28.9253 65.5374C28.9688 65.3799 28.9962 65.2217 29.0138 65.0589C29.0228 64.8972 29.0226 64.7313 28.9976 64.5619C28.976 64.3932 28.929 64.2149 28.8653 64.0462L28.8595 64.0306C28.8423 63.9854 28.865 63.9348 28.91 63.9176C28.9352 63.9081 28.9626 63.9111 28.9844 63.9237V63.9234Z" fill="#4A0D72"/>
<path d="M34.8664 50.6853C34.8675 51.6574 34.7936 52.619 34.6889 53.579C34.5835 54.5387 34.432 55.4924 34.2663 56.444C34.1832 56.9198 34.0873 57.3932 33.9923 57.8672C33.9452 58.1041 33.888 58.3392 33.8363 58.5755C33.7835 58.8113 33.7319 59.0476 33.6716 59.282L33.4944 59.9859C33.4328 60.22 33.3647 60.4523 33.2989 60.6853L33.1995 61.0346L33.092 61.3818C33.0213 61.6136 32.9453 61.8436 32.8712 62.0743L32.6801 61.5868H32.6805C32.8091 61.6607 32.915 61.728 33.0278 61.8028C33.1385 61.8764 33.2472 61.9529 33.3538 62.0323C33.5667 62.1924 33.7743 62.3625 33.9686 62.5536C34.1639 62.7432 34.3483 62.9522 34.5126 63.1883C34.6764 63.4234 34.8173 63.6929 34.9032 63.9984C34.9843 64.3062 35.0049 64.649 34.9092 64.9801C34.8168 65.3221 34.6064 65.611 34.3738 65.8189C33.8996 66.2371 33.3607 66.4247 32.8387 66.5617C32.3128 66.6915 31.7858 66.7551 31.261 66.7749C30.7363 66.7961 30.2134 66.7763 29.6942 66.7178C29.1753 66.6588 28.6589 66.5677 28.1501 66.4275C27.6425 66.2851 27.1379 66.1087 26.6583 65.8457C26.5976 65.8114 26.5402 65.7832 26.4772 65.7436L26.2844 65.6122C26.2177 65.5705 26.1651 65.516 26.1074 65.4656C26.053 65.4132 25.9899 65.3657 25.9436 65.3081C25.8458 65.196 25.7448 65.0847 25.6677 64.963C25.6276 64.9029 25.5824 64.8444 25.5477 64.7827L25.4434 64.5975C25.1747 64.1 25.0164 63.5813 24.8976 63.0662C24.665 62.033 24.6034 61.0006 24.5839 59.9772C24.5698 58.9534 24.6082 57.9354 24.6963 56.9242C24.7901 55.9137 24.94 54.9108 25.1592 53.9229V53.9222C25.1837 53.812 25.2924 53.7425 25.402 53.7672C25.496 53.7882 25.56 53.8718 25.5609 53.9646C25.5718 54.9784 25.5213 55.9789 25.4844 56.9769C25.4418 57.9739 25.4036 58.9693 25.4353 59.9581C25.4661 60.9444 25.5477 61.9317 25.7662 62.862C25.8757 63.3248 26.0224 63.7757 26.2367 64.1615L26.318 64.3043C26.3449 64.3521 26.3787 64.3919 26.4081 64.4365C26.4656 64.528 26.5367 64.6003 26.6032 64.6778C26.6349 64.7191 26.6762 64.7447 26.7116 64.7794C26.7489 64.8109 26.7825 64.8493 26.8242 64.8717L26.9424 64.9516C26.9852 64.9789 27.0408 65.0054 27.0893 65.0325C27.9013 65.4565 28.8484 65.6933 29.7955 65.8007C30.2706 65.8552 30.7504 65.8736 31.2254 65.855C31.7003 65.838 32.1718 65.78 32.618 65.6704C33.0591 65.5595 33.4891 65.3883 33.7733 65.1404C33.9144 65.0169 34.0078 64.881 34.0497 64.7368C34.0991 64.5842 34.0935 64.4057 34.0504 64.2281C33.9559 63.8661 33.6871 63.4944 33.3642 63.1729C33.2022 63.0109 33.0266 62.856 32.8415 62.7108C32.7489 62.6384 32.6541 62.5682 32.5577 62.5007C32.4634 62.4345 32.3589 62.3653 32.2711 62.3124C32.1023 62.2236 32.0233 62.0295 32.0724 61.852L32.08 61.8249C32.3328 60.9095 32.5855 59.9945 32.8033 59.0683C33.0273 58.144 33.2389 57.2154 33.4274 56.2813C33.623 55.3484 33.7956 54.4103 33.9709 53.4715C34.1466 52.5332 34.3187 51.591 34.507 50.6531L34.5077 50.6496C34.5274 50.5511 34.6229 50.4875 34.7209 50.5073C34.8066 50.5247 34.8659 50.6007 34.8659 50.6853H34.8664Z" fill="#4A0D72"/>
<path d="M41.6516 29.0461C41.6516 29.0461 41.8831 30.4661 41.7695 31.8352C41.7695 31.8352 42.9094 30.9927 43.5073 31.9475C44.0807 32.8632 42.9207 35.2594 41.8597 35.8934C41.8597 35.8934 43.9556 35.7061 43.0611 38.1046C42.2347 40.32 38.5092 41.6731 38.5092 41.6731C38.5092 41.6731 33.732 46.2534 25.4128 46.1481C25.4128 46.1481 24.1198 46.2544 22.3931 46.143H22.3919C20.6664 46.0314 19.3978 45.7597 19.3978 45.7597C11.1332 44.7941 6.97786 39.6368 6.97786 39.6368C6.97786 39.6368 3.45499 37.8157 2.91704 35.5122C2.64807 34.3616 2.94137 33.8383 3.33475 33.609C3.7937 33.342 4.39004 33.4737 4.39004 33.4737C3.41839 32.7085 2.57254 30.1827 3.25761 29.3483C3.97209 28.4783 4.99541 29.4607 4.99541 29.4607C5.05703 28.088 5.4671 26.7096 5.4671 26.7096C5.4671 26.7096 2.13699 23.7791 2.18958 14.938C2.21182 11.3157 2.89202 8.25431 3.7147 5.86929C3.7147 5.86929 3.7147 5.86812 3.71609 5.86603C4.35969 3.99804 5.08993 2.5448 5.65939 1.55849C6.29372 0.457085 7.68933 0.0709985 8.79327 0.692419C13.4409 3.30905 16.9564 13.1229 16.9564 13.1229C18.7169 12.649 20.6106 12.4985 22.065 12.4651C23.491 12.4335 24.4951 12.5152 24.5389 12.5192H24.54C24.54 12.5192 28.6097 12.7002 31.9847 14.0936C31.9847 14.0936 36.7195 4.81262 41.6616 2.81531C42.8357 2.34092 44.1706 2.90339 44.6597 4.07749C45.6596 6.47114 47.1817 11.3798 46.3991 17.7935C45.3269 26.5686 41.6514 29.0468 41.6514 29.0468L41.6516 29.0461Z" fill="#F89B29"/>
<path d="M18.3868 22.2582C18.7041 21.561 18.2024 20.6466 17.2664 20.2158C16.3304 19.785 15.3145 20.0009 14.9972 20.6981C14.68 21.3953 15.1816 22.3097 16.1177 22.7405C17.0537 23.1713 18.0696 22.9553 18.3868 22.2582Z" fill="#FFFEFF"/>
<path d="M31.5929 23.7412C32.576 23.4344 33.1898 22.592 32.9639 21.8598C32.738 21.1275 31.7578 20.7826 30.7747 21.0895C29.7916 21.3963 29.1778 22.2386 29.4037 22.9709C29.6297 23.7031 30.6098 24.048 31.5929 23.7412Z" fill="#FFFEFF"/>
<path d="M38.923 36.9459C37.3346 33.5334 33.9346 34.1725 31.3486 33.6611C28.7626 33.1496 25.3012 30.8396 26.031 22.1355C26.4934 16.6117 27.7099 14.4327 28.0299 12.9608C26.6196 12.7457 24.583 12.5202 24.539 12.5186C24.4952 12.5146 22.4467 12.4764 21.0205 12.5081C21.1507 14.0089 22.0802 16.3265 21.8362 21.8646C21.453 30.591 17.7263 32.4369 15.0966 32.6114C12.4668 32.7859 9.17585 31.7148 7.16652 34.8948C5.77508 37.0972 6.97794 39.6362 6.97794 39.6362C6.97794 39.6362 11.1333 44.7935 19.3978 45.7591C19.3978 45.7591 20.6667 46.0307 22.392 46.1423C24.1175 46.2537 25.4105 46.1475 25.4105 46.1475C33.73 46.2528 38.5069 41.6724 38.5069 41.6724C38.5069 41.6724 40.0228 39.3091 38.9228 36.9457L38.923 36.9459Z" fill="white"/>
<g opacity="0.3">
<path d="M42.8894 36.1631C42.8753 36.3667 42.6392 38.6124 39.3251 38.8484C39.3251 38.8484 34.0452 44.5421 22.5432 43.7993C11.0411 43.0565 6.52857 36.7304 6.52857 36.7304C3.27167 36.0699 3.3231 33.8125 3.33515 33.6086C2.942 33.8379 2.64846 34.361 2.91744 35.5118C3.45516 37.8153 6.97825 39.6364 6.97825 39.6364C6.97825 39.6364 11.1336 44.7937 19.3982 45.7593C19.3982 45.7593 20.667 46.031 22.3923 46.1426H22.3935H22.3947C24.1202 46.254 25.4132 46.1477 25.4132 46.1477C33.7326 46.253 38.5096 41.6727 38.5096 41.6727C38.5096 41.6727 42.2351 40.3196 43.0615 38.1042C43.4746 36.9977 43.2503 36.441 42.8894 36.1631Z" fill="#4A0D72"/>
</g>
<g opacity="0.3">
<path d="M23.2432 32.8681L21.3263 32.7444C21.3263 32.7444 21.4764 34.8079 20.1667 34.8146C19.3888 34.8186 18.9655 34.1624 18.7503 33.6293C18.6194 33.305 18.1739 33.2617 17.9897 33.5587C17.7747 33.9057 17.6195 34.3966 17.7972 35.0162C18.1762 36.3371 19.5811 37.1167 21.1998 36.4918C22.8185 35.8671 23.2077 34.5394 23.2427 32.8681H23.2432Z" fill="#390565"/>
</g>
<g opacity="0.3">
<path d="M23.2435 32.8682L25.1604 32.9919C25.1604 32.9919 24.7489 35.0193 26.047 35.1942C26.8182 35.2982 27.3212 34.7021 27.6027 34.2009C27.7739 33.8962 28.2213 33.9104 28.3661 34.2287C28.5352 34.6003 28.6267 35.1073 28.3716 35.6989C27.8279 36.9602 26.3352 37.5527 24.8091 36.7248C23.2831 35.897 23.066 34.5302 23.2437 32.8682H23.2435Z" fill="#390565"/>
</g>
<g opacity="0.4">
<path d="M44.6576 4.07653C44.1685 2.90266 42.8336 2.34019 41.6595 2.81435C36.7174 4.81165 31.9826 14.0926 31.9826 14.0926C30.2967 13.3962 28.4377 13.0034 26.9995 12.7832C25.5893 12.5681 24.5829 12.5203 24.5391 12.5185C24.4953 12.5145 23.4912 12.4325 22.0653 12.4644C20.6108 12.4977 18.7171 12.6483 16.9566 13.1222C16.9566 13.1222 13.4409 3.30855 8.79348 0.691686C7.68932 0.0702661 6.29393 0.456353 5.6596 1.55776C5.09038 2.54406 4.36014 3.99731 3.71631 5.86529C3.77701 5.73062 5.74973 1.40002 7.58182 1.57733C9.36665 1.75139 13.3223 6.00277 15.7658 13.6143C15.9414 14.1616 16.4993 14.4869 17.0592 14.3697C18.3066 14.1085 20.7493 13.7716 24.4441 14.0102C28.1386 14.2488 30.5186 14.897 31.7224 15.3166C32.2627 15.5049 32.8574 15.2539 33.1011 14.7339C36.4924 7.49911 40.9563 3.79156 42.7486 3.84842C44.5881 3.90807 45.9941 8.45699 46.037 8.59842C45.6362 6.66286 45.0968 5.1276 44.6576 4.07629V4.07653Z" fill="#FFFEFF"/>
</g>
<path d="M17.6542 28.2497C17.8613 26.2204 16.8296 24.4516 15.35 24.2989C13.8703 24.1461 12.5029 25.6673 12.2959 27.6966C12.0888 29.7258 13.1204 31.4947 14.6001 31.6474C16.0797 31.8001 17.4471 30.2789 17.6542 28.2497Z" fill="#4A0D72"/>
<path d="M16.7729 27.487C16.8504 26.7276 16.5016 26.0695 15.9939 26.0171C15.4862 25.9647 15.0118 26.5378 14.9343 27.2972C14.8568 28.0565 15.2055 28.7146 15.7133 28.767C16.221 28.8194 16.6954 28.2463 16.7729 27.487Z" fill="white"/>
<g opacity="0.35">
<path d="M13.7608 30.1879C14.0123 30.1428 14.151 29.7389 14.0706 29.2859C13.9903 28.8329 13.7212 28.5022 13.4696 28.5474C13.2181 28.5925 13.0793 28.9964 13.1597 29.4494C13.2401 29.9024 13.5092 30.2331 13.7608 30.1879Z" fill="white"/>
</g>
<path d="M35.1922 28.1044C34.9358 28.1517 34.6761 28.2035 34.4323 28.2561C34.1865 28.3169 33.9491 28.3726 33.7178 28.4451C33.2566 28.5842 32.8127 28.7447 32.4047 28.9833C32.3011 29.0385 32.2055 29.1098 32.1054 29.1711C32.0558 29.2028 32.0048 29.2319 31.9562 29.265L31.816 29.3745C31.7224 29.4475 31.6251 29.5141 31.5341 29.5905C31.4453 29.6707 31.3582 29.7525 31.2674 29.8305C31.2227 29.8701 31.1759 29.9076 31.1323 29.9491L31.0084 30.0819C30.9266 30.1714 30.8395 30.2562 30.7538 30.3429C30.5925 30.5267 30.4375 30.7199 30.2656 30.9023L29.5681 30.0582L29.661 30.0183C29.6892 30.0064 29.7166 29.9953 29.7425 29.9857C29.7953 29.9652 29.8495 29.9461 29.9021 29.9302C30.0078 29.8946 30.1141 29.8678 30.2207 29.8422C30.327 29.8156 30.4348 29.7984 30.542 29.779C30.6502 29.7657 30.7582 29.7504 30.8664 29.7399C31.3003 29.7035 31.7414 29.7322 32.1679 29.824L32.3276 29.8585C32.3806 29.8708 32.4325 29.8892 32.4846 29.9044C32.5884 29.9379 32.6936 29.9647 32.7948 30.0043C32.9955 30.0896 33.1949 30.1733 33.3757 30.2935C33.7477 30.5097 34.0619 30.8105 34.3126 31.1435C34.3714 31.2218 34.3561 31.3332 34.2785 31.3923C34.2298 31.4294 34.1685 31.4373 34.1149 31.4189L34.0957 31.4121C34.0016 31.3793 33.9113 31.3446 33.8237 31.3082C33.7359 31.2726 33.653 31.2316 33.5631 31.205C33.4743 31.1766 33.3884 31.1458 33.3041 31.1139C33.2626 31.0967 33.2188 31.0845 33.1746 31.0745L33.0453 31.0379C32.8766 30.9818 32.7006 30.9569 32.5328 30.9156C32.4473 30.9 32.3607 30.89 32.2754 30.8767C32.2326 30.8711 32.1906 30.8623 32.1473 30.8592L32.0176 30.852C31.6742 30.8275 31.3295 30.8385 30.9889 30.8891L30.7343 30.9294C30.6509 30.9492 30.5659 30.9631 30.483 30.9827C30.4 31.0028 30.3173 31.0228 30.2367 31.0452C30.1952 31.055 30.1577 31.0689 30.1181 31.0792C30.0977 31.0845 30.0794 31.0901 30.062 31.0957L30.0187 31.1088C29.7784 31.2833 29.4432 31.229 29.2697 30.9874C29.1404 30.8075 29.1374 30.5745 29.2435 30.3953L29.3213 30.2646C29.3948 30.1409 29.4705 30.0181 29.5498 29.8972C29.6302 29.7767 29.7027 29.6511 29.7956 29.5386C29.8889 29.4265 29.9807 29.3121 30.0778 29.2026L30.2223 29.0369C30.2735 28.984 30.3287 28.9346 30.3819 28.8834C30.4892 28.7815 30.5999 28.6834 30.7091 28.5837C30.8235 28.4896 30.9482 28.4062 31.0677 28.3179L31.2503 28.1895C31.3137 28.1501 31.3798 28.1147 31.4446 28.0774C31.5767 28.0068 31.7039 27.9287 31.8401 27.8668L32.2543 27.6943C32.3938 27.6412 32.54 27.6051 32.682 27.5613C32.8231 27.5135 32.9728 27.4956 33.118 27.4665C33.2631 27.4355 33.4127 27.4297 33.5603 27.4201C34.1518 27.3952 34.7442 27.4926 35.2689 27.806C35.3442 27.8509 35.369 27.9485 35.3243 28.0243C35.3002 28.0653 35.2606 28.0914 35.2172 28.0995L35.1922 28.1042V28.1044Z" fill="#4A0D72"/>
<path d="M23.3872 30.5791C22.0157 30.4906 21.1388 30.6753 20.625 30.8617C20.22 31.0085 20.0182 31.4671 20.1831 31.8669C20.8413 33.4616 23.1829 33.7817 23.1829 33.7817C23.1829 33.7817 25.5457 33.7654 26.4013 32.2684C26.6159 31.893 26.4741 31.4123 26.0911 31.2145C25.6051 30.9636 24.759 30.6674 23.3875 30.5789L23.3872 30.5791Z" fill="#4A0D72"/>
<path d="M25.1405 31.4887C25.1509 31.3252 24.3511 31.1405 23.3539 31.0762C22.3568 31.0119 21.54 31.0923 21.5296 31.2558C21.5192 31.4192 22.3191 31.6039 23.3162 31.6682C24.3133 31.7325 25.1301 31.6522 25.1405 31.4887Z" fill="white"/>
<path d="M23.6575 32.8402C23.6478 33.227 23.6271 33.6185 23.6114 34.0006C23.6017 34.327 23.6575 34.6523 23.7724 34.9543C23.8899 35.2553 24.0643 35.5347 24.2888 35.7656C24.5152 35.9942 24.7871 36.1752 25.0851 36.2906L25.197 36.3337L25.3128 36.3644C25.3893 36.3891 25.4685 36.4008 25.548 36.4131C25.624 36.4278 25.7138 36.439 25.7977 36.4415L26.0505 36.4478C26.3841 36.4413 26.7073 36.3828 26.9966 36.2507C27.2858 36.1188 27.5429 35.9175 27.7642 35.6615C27.8719 35.5319 27.9789 35.3947 28.0688 35.243C28.1606 35.0957 28.2461 34.9268 28.3146 34.777L28.326 34.752C28.3751 34.6451 28.5009 34.5983 28.6072 34.6477C28.6886 34.6854 28.7349 34.7688 28.7303 34.8534C28.7173 35.0829 28.6712 35.2807 28.6059 35.4874C28.5727 35.5892 28.5331 35.6889 28.4868 35.787C28.4462 35.8879 28.3872 35.98 28.3329 36.075C28.108 36.4513 27.769 36.7787 27.3659 36.9926C26.9617 37.2081 26.5117 37.2978 26.0776 37.323L25.7518 37.3263C25.643 37.3253 25.5406 37.3176 25.4263 37.3004C25.3147 37.2855 25.203 37.2694 25.0941 37.2384L24.9299 37.1967L24.77 37.1401C24.3456 36.9851 23.9533 36.737 23.6371 36.4141C23.3213 36.0911 23.073 35.7025 22.918 35.2782C22.76 34.8553 22.6951 34.3974 22.7289 33.9491C22.7593 33.5567 22.7906 33.1741 22.8295 32.7867C22.8524 32.5574 23.0558 32.3903 23.2838 32.4134C23.5009 32.4355 23.6617 32.6219 23.6568 32.8375V32.84L23.6575 32.8402Z" fill="#4A0D72"/>
<path d="M23.6571 32.8403C23.6465 33.2296 23.6289 33.6131 23.6089 34.0062C23.5855 34.4552 23.463 34.9009 23.2524 35.3001C23.0448 35.7011 22.749 36.0543 22.3947 36.3341C22.04 36.6138 21.6195 36.8095 21.1787 36.9085L21.013 36.9442L20.8448 36.9642C20.7329 36.981 20.6201 36.9826 20.5075 36.9831C20.3921 36.9854 20.2895 36.9798 20.1813 36.9668L19.8586 36.9216C19.4311 36.8409 18.9963 36.6939 18.6228 36.4283C18.2503 36.1643 17.9558 35.7959 17.7804 35.394C17.7385 35.2926 17.6917 35.1938 17.6644 35.0885C17.631 34.9855 17.6044 34.8814 17.5844 34.7761C17.5462 34.5626 17.5254 34.3606 17.5418 34.1311C17.5501 34.0137 17.6516 33.9251 17.7686 33.9335C17.8578 33.94 17.9303 34.0011 17.9558 34.0819L17.9642 34.1087C18.0133 34.2662 18.0765 34.445 18.1488 34.6027C18.2188 34.7646 18.3073 34.9145 18.3979 35.0568C18.5848 35.3392 18.8142 35.5718 19.0841 35.74C19.3544 35.9082 19.6674 36.0077 19.9973 36.0571L20.2489 36.0834C20.3323 36.0916 20.4232 36.0921 20.5003 36.0874C20.5807 36.0855 20.6609 36.0841 20.7396 36.0695L20.8585 36.0538L20.975 36.0254C21.2852 35.9495 21.5778 35.805 21.8315 35.6072C22.0836 35.407 22.2923 35.1524 22.4471 34.8688C22.5995 34.5838 22.6964 34.2686 22.7281 33.9435C22.761 33.5626 22.7904 33.1716 22.83 32.7867V32.7857C22.8537 32.5565 23.0573 32.3899 23.2853 32.4136C23.5021 32.4362 23.6627 32.6245 23.6574 32.84L23.6571 32.8403Z" fill="#4A0D72"/>
<path d="M23.1828 33.782C22.9509 37.4133 26.7275 36.7961 26.7275 36.7961C26.7275 36.7961 26.0306 40.516 22.7665 40.3051C19.5024 40.0943 19.2842 36.3154 19.2842 36.3154C19.2842 36.3154 22.9511 37.4136 23.1828 33.7822V33.782Z" fill="#4A0D72"/>
<path d="M22.9267 37.7899C21.08 37.6706 20.4248 39.1909 20.4248 39.1909C21.1852 40.1679 22.7661 40.3049 22.7661 40.3049C22.7661 40.3049 24.3515 40.3723 25.2298 39.5011C25.2298 39.5011 24.7734 37.9089 22.9267 37.7896V37.7899Z" fill="#F95877"/>
<path d="M23.0257 40.7331C22.9322 40.7331 22.8367 40.7301 22.7394 40.7238C19.8662 40.5384 18.9501 37.7749 18.8674 36.3396C18.8595 36.2031 18.9184 36.0712 19.0249 35.9862C19.1315 35.9011 19.2726 35.8741 19.403 35.913C19.4174 35.9172 20.9217 36.3499 21.8966 35.6635C22.4162 35.2976 22.7088 34.6557 22.7663 33.7549C22.7811 33.5236 22.9796 33.3486 23.2095 33.363C23.4303 33.3772 23.5998 33.5618 23.6001 33.781C23.6001 33.7901 23.5998 33.7994 23.5991 33.8088C23.5417 34.7093 23.7502 35.3839 24.2191 35.8135C25.0988 36.6197 26.6457 36.3839 26.6612 36.3816C26.7949 36.3601 26.9316 36.4058 27.0263 36.5037C27.1209 36.6015 27.1626 36.7395 27.1375 36.8737C26.8818 38.2386 25.697 40.7329 23.026 40.7331H23.0257ZM19.7777 36.8427C19.9699 37.8178 20.6235 39.7461 22.7927 39.8862C24.9695 40.0269 25.8603 38.1978 26.1719 37.2556C25.4994 37.2616 24.4332 37.1428 23.6603 36.4375C23.4099 36.2089 23.2111 35.9393 23.0642 35.6299C22.8793 35.9179 22.6477 36.1598 22.3703 36.3541C21.515 36.9536 20.44 36.934 19.7772 36.8425L19.7777 36.8427Z" fill="#4A0D72"/>
<path d="M11.7107 15.9832C11.6771 15.9618 10.1787 15.0023 9.11296 15.603C8.03659 16.2109 8.54304 18.6341 8.54304 18.6341C5.67466 18.1203 6.78022 21.6746 6.81497 21.7836C6.81497 21.7848 6.81613 21.7848 6.8159 21.7859C6.8159 21.7859 6.69728 23.0071 5.76247 22.974C4.8265 22.9409 4.15232 22.4915 3.88543 16.1545C3.61877 9.81632 5.55882 5.34708 5.91375 5.30864C6.26868 5.27136 6.84161 6.07102 6.84161 6.07102C9.18408 9.0516 11.6721 15.8765 11.7105 15.9835L11.7107 15.9832Z" fill="#FE6B6F"/>
<g opacity="0.3">
<path d="M11.7107 15.9832C11.6771 15.9618 10.1786 15.0023 9.11292 15.603C8.03656 16.2109 8.543 18.6341 8.543 18.6341C5.67462 18.1203 6.78018 21.6746 6.81493 21.7836C3.88029 14.9627 6.8418 6.0708 6.8418 6.0708C9.18428 9.05138 11.6722 15.8763 11.7107 15.9832Z" fill="#4A0D72"/>
</g>
<path d="M6.09456 5.1726C6.14506 5.19194 6.17263 5.20662 6.20761 5.2227C6.24283 5.23854 6.27272 5.25532 6.30307 5.27302C6.36423 5.30774 6.42516 5.34339 6.47983 5.38254C6.5352 5.42145 6.59336 5.45966 6.64641 5.5009L6.80256 5.62742C6.90913 5.7113 7.00087 5.80427 7.09794 5.89561C7.19618 5.98625 7.28352 6.08364 7.37248 6.18034C7.72926 6.56852 8.03438 6.99096 8.32328 7.42248C8.89088 8.29065 9.38273 9.1968 9.83519 10.12L10.1572 10.819C10.2633 11.0524 10.3762 11.2836 10.4709 11.5212L10.767 12.2303L10.915 12.5849L11.0536 12.9428L11.3283 13.6593C11.4194 13.8983 11.5141 14.136 11.5962 14.3779L12.1058 15.8234C12.1821 16.0396 12.0697 16.2768 11.8547 16.3535C11.7247 16.3999 11.5874 16.3768 11.4819 16.3036L11.4697 16.295C11.4426 16.2759 11.3944 16.2452 11.3541 16.2205C11.3105 16.1953 11.2679 16.1687 11.2227 16.1452C11.1337 16.0967 11.0422 16.0518 10.9498 16.0119C10.7649 15.9304 10.5745 15.8686 10.3864 15.8334C10.2918 15.8101 10.1992 15.8073 10.1063 15.7957C10.0157 15.7983 9.923 15.7901 9.83682 15.8066C9.74716 15.8111 9.66561 15.839 9.58174 15.8588C9.53958 15.8689 9.50274 15.8917 9.46266 15.9064C9.42374 15.9236 9.38204 15.9355 9.34705 15.9621L9.23678 16.0299C9.1967 16.0494 9.17353 16.083 9.13994 16.1072C9.07136 16.1543 9.02757 16.2235 8.97128 16.282C8.87861 16.4164 8.8098 16.5742 8.76532 16.7505C8.68446 17.1089 8.70346 17.525 8.7857 17.9333C8.80493 18.0356 8.82949 18.1378 8.85706 18.239C8.87003 18.2898 8.88532 18.3396 8.90038 18.3897L8.92401 18.4636L8.94255 18.5218C8.97267 18.6227 8.96641 18.7464 8.92031 18.8476C8.87536 18.9496 8.79659 19.0314 8.69813 19.0815C8.64878 19.106 8.59457 19.1227 8.53966 19.1286C8.48823 19.1358 8.42313 19.1295 8.38884 19.1218L8.31725 19.1076C8.26883 19.099 8.22041 19.0911 8.1713 19.085C8.07376 19.0729 7.97576 19.065 7.88031 19.0652C7.68918 19.064 7.50546 19.0885 7.35117 19.144C7.19757 19.2017 7.07825 19.2849 6.98674 19.4026C6.93971 19.4615 6.90542 19.5305 6.87021 19.6088C6.83847 19.6971 6.80325 19.7849 6.78449 19.8786C6.74047 20.0641 6.72217 20.2593 6.73097 20.4597C6.73931 20.6601 6.76873 20.864 6.81345 21.0693C6.85793 21.2715 6.9221 21.4861 6.99161 21.6739L6.99902 21.6937C7.03933 21.8023 6.98442 21.923 6.87646 21.9635C6.78982 21.9959 6.69529 21.9666 6.64039 21.8976C6.47752 21.6918 6.35983 21.4845 6.2616 21.2526C6.16406 21.0234 6.09479 20.7785 6.05842 20.5236C6.01996 20.2687 6.02691 20.0023 6.06699 19.7393C6.08459 19.6067 6.12166 19.4774 6.15966 19.3478C6.20877 19.2139 6.27017 19.0745 6.35844 18.9485C6.53011 18.6924 6.79399 18.4946 7.06597 18.3923C7.33842 18.2872 7.6125 18.2511 7.87522 18.2462C8.00704 18.2434 8.13655 18.2508 8.2649 18.2641C8.32907 18.2707 8.39301 18.2795 8.45672 18.2895L8.55287 18.3065C8.53248 18.3014 8.48174 18.2965 8.44444 18.3019C8.4039 18.3068 8.36313 18.3182 8.32675 18.3371C8.25331 18.3736 8.19586 18.4345 8.16203 18.5099C8.12774 18.585 8.12311 18.6784 8.14512 18.7518C8.15392 18.7802 8.14859 18.7625 8.14836 18.7621L8.14466 18.7509L8.13724 18.7285L8.10828 18.6393C8.09021 18.5799 8.07168 18.5207 8.05592 18.4608C8.02256 18.3415 7.99314 18.2213 7.96928 18.0992C7.87105 17.6136 7.82981 17.0963 7.94588 16.5583C8.00982 16.2906 8.11963 16.0217 8.2883 15.7801C8.4653 15.5457 8.69396 15.3462 8.94069 15.2153C8.99954 15.1759 9.06696 15.1517 9.13229 15.1237C9.19832 15.0981 9.26272 15.0657 9.33084 15.0478C9.46752 15.0121 9.60445 14.9737 9.74299 14.9646C9.88199 14.9429 10.0175 14.9513 10.1542 14.9518C10.287 14.9662 10.4225 14.9758 10.5495 15.0063C10.808 15.0571 11.0522 15.1398 11.2832 15.2428C11.3992 15.2938 11.5121 15.3502 11.6226 15.4112C11.6782 15.4411 11.7322 15.4746 11.7871 15.507C11.8431 15.5424 11.8915 15.5725 11.9571 15.6195L11.3209 16.0911L10.8194 14.6624C10.7385 14.4231 10.6456 14.1889 10.5562 13.9533L10.2865 13.2471L10.1507 12.8943L10.0057 12.546L9.71565 11.8491C9.62182 11.6154 9.51571 11.388 9.41331 11.1587L9.10449 10.4716C8.66477 9.57147 8.22204 8.67185 7.69659 7.82907C7.42901 7.4127 7.16351 6.99399 6.8665 6.60627C6.79422 6.50748 6.72309 6.40682 6.64409 6.31595C6.56602 6.22415 6.49466 6.12232 6.41195 6.03728L6.29241 5.90237C6.25233 5.85786 6.20947 5.81895 6.16823 5.77631C6.12745 5.73181 6.08506 5.6943 6.04243 5.65678C6.02112 5.63744 6.00003 5.6167 5.98011 5.60179C5.96065 5.58572 5.9354 5.56568 5.92845 5.55822L5.87539 5.50114C5.79894 5.41889 5.80334 5.29003 5.88512 5.21314C5.9435 5.15839 6.02575 5.14511 6.09572 5.17167L6.09456 5.1726Z" fill="#4A0D72"/>
<path d="M36.8218 17.6049C36.8579 17.5879 38.466 16.829 39.4467 17.5618C40.4368 18.3032 39.6264 20.6412 39.6264 20.6412C42.5365 20.5007 40.9882 23.8834 40.9396 23.9871C40.9396 23.9883 40.9384 23.9883 40.9384 23.9892C40.9384 23.9892 40.9009 25.2155 41.8322 25.3029C42.7647 25.3905 43.4906 25.0314 44.5611 18.7806C45.6317 12.5287 44.2759 7.84673 43.9287 7.76285C43.5814 7.68013 42.9116 8.39965 42.9116 8.39965C40.2093 11.0543 36.8737 17.5031 36.822 17.6044L36.8218 17.6049Z" fill="#FE6B6F"/>
<g opacity="0.3">
<path d="M36.8218 17.6049C36.8579 17.5879 38.466 16.829 39.4467 17.5618C40.4368 18.3032 39.6264 20.6412 39.6264 20.6412C42.5365 20.5007 40.9882 23.8834 40.9396 23.9871C44.7178 17.5998 42.9114 8.3999 42.9114 8.3999C40.2091 11.0545 36.8734 17.5033 36.8218 17.6047V17.6049Z" fill="#4A0D72"/>
</g>
<path d="M43.8833 8.01012C43.8754 8.01664 43.8478 8.03318 43.8265 8.0467C43.8047 8.05905 43.7811 8.07699 43.7577 8.0933C43.7107 8.12522 43.6639 8.15691 43.6178 8.19582C43.5714 8.23287 43.5239 8.26595 43.4785 8.30487L43.3428 8.42323C43.2499 8.49686 43.1662 8.58866 43.077 8.66975C42.9871 8.74967 42.9037 8.84008 42.8194 8.92885C42.4756 9.27509 42.1589 9.65629 41.8406 10.0347C41.212 10.8029 40.6586 11.6382 40.1081 12.4742L39.7145 13.1159C39.5838 13.3303 39.4497 13.5419 39.3269 13.7616L38.9507 14.4154L38.7625 14.7423L38.583 15.0745L38.2255 15.7402C38.1069 15.9625 37.9848 16.1827 37.8743 16.4097L37.1953 17.7622L36.6242 17.2126C36.6953 17.1744 36.747 17.1508 36.8072 17.1229C36.8656 17.0977 36.9235 17.0714 36.9823 17.049C37.0998 17.0027 37.2187 16.9614 37.3403 16.9258C37.5826 16.8531 37.8354 16.8027 38.0981 16.7855C38.2281 16.7715 38.3636 16.7794 38.497 16.7822C38.6326 16.7992 38.7681 16.8083 38.9034 16.8477C39.0396 16.8745 39.1708 16.9302 39.3017 16.9833C39.3672 17.0096 39.4265 17.0504 39.4891 17.0842C39.5502 17.1203 39.6142 17.1529 39.6675 17.1998C39.8957 17.3615 40.0968 17.5887 40.2427 17.8438C40.3792 18.105 40.454 18.3858 40.4832 18.6595C40.5298 19.208 40.423 19.7157 40.264 20.1848C40.2246 20.3029 40.1802 20.4182 40.132 20.5322C40.1088 20.5895 40.0829 20.6459 40.0571 20.7025L40.0171 20.7873L40.0069 20.8085L40.0018 20.819C40.0018 20.819 39.9939 20.8363 40.0062 20.8092C40.0375 20.7391 40.0446 20.6459 40.0201 20.5671C39.9962 20.4879 39.9471 20.4203 39.8788 20.3744C39.8449 20.3511 39.806 20.3344 39.7664 20.3243C39.73 20.3143 39.6791 20.3127 39.6582 20.315L39.7557 20.3104C39.8204 20.3085 39.8848 20.308 39.9492 20.3097C40.0782 20.3129 40.2075 20.3222 40.3379 20.3421C40.5979 20.3807 40.865 20.4518 41.1219 20.5911C41.3786 20.7274 41.6152 20.9579 41.753 21.2338C41.8244 21.3701 41.8679 21.5164 41.8994 21.6555C41.9207 21.7888 41.9411 21.9218 41.9416 22.0556C41.9479 22.3219 41.9207 22.5868 41.8503 22.8345C41.782 23.0826 41.6819 23.3168 41.5561 23.5314C41.4294 23.7488 41.2862 23.9394 41.0985 24.1223C41.0158 24.2029 40.8838 24.2008 40.8036 24.1179C40.7392 24.0512 40.7278 23.9524 40.7686 23.8744L40.7786 23.8553C40.8715 23.678 40.9625 23.4734 41.0323 23.2786C41.1027 23.081 41.1578 22.8823 41.1917 22.6847C41.2257 22.4871 41.2327 22.2909 41.2125 22.1012C41.2058 22.0057 41.1819 21.9141 41.1618 21.8226C41.137 21.7405 41.1115 21.6674 41.0726 21.6031C40.9968 21.4747 40.8891 21.3768 40.7441 21.2997C40.5981 21.2247 40.4188 21.1769 40.2293 21.1534C40.1345 21.141 40.0365 21.1361 39.9381 21.1357C39.8887 21.1354 39.8396 21.1368 39.7905 21.1392L39.7177 21.1441C39.6828 21.1473 39.6174 21.1452 39.5672 21.1315C39.5136 21.1184 39.462 21.0949 39.4161 21.0644C39.3248 21.0022 39.2569 20.9108 39.2254 20.8039C39.1925 20.6976 39.202 20.5744 39.2447 20.4779L39.2704 20.4224L39.3033 20.3521C39.3244 20.3043 39.3461 20.257 39.3654 20.2081C39.4054 20.1114 39.4427 20.0131 39.4749 19.914C39.6084 19.5198 39.6802 19.1095 39.6457 18.7437C39.6241 18.5631 39.576 18.3976 39.5011 18.2522C39.4527 18.187 39.4182 18.1127 39.3561 18.0572C39.326 18.0288 39.3072 17.9927 39.2699 17.968L39.1691 17.8864C39.1379 17.8554 39.0982 17.8384 39.0616 17.8163C39.0239 17.7965 38.99 17.769 38.9495 17.7539C38.8689 17.7233 38.7915 17.6851 38.703 17.6693C38.6196 17.6418 38.5267 17.6381 38.4373 17.6238C38.3437 17.6234 38.2515 17.6143 38.1546 17.6252C37.9635 17.636 37.7668 17.6728 37.5731 17.7299C37.4763 17.7576 37.3799 17.7902 37.2854 17.827C37.2377 17.8445 37.192 17.8655 37.1457 17.8848C37.1024 17.9044 37.0507 17.9286 37.0215 17.944L37.0104 17.9498C36.8084 18.0563 36.5588 17.9778 36.453 17.7748C36.389 17.652 36.3932 17.5097 36.4504 17.3943L37.1399 16.0261C37.252 15.7969 37.3762 15.5732 37.4969 15.3479L37.8604 14.6726L38.0432 14.3355L38.235 14.003L38.6189 13.338C38.7433 13.1143 38.8844 12.8997 39.0192 12.6818L39.4277 12.0299C39.9939 11.1724 40.5967 10.3371 41.2702 9.5491C41.6115 9.15836 41.9678 8.77856 42.3711 8.43954C42.4717 8.35496 42.5708 8.26968 42.6797 8.19233C42.7874 8.11427 42.8905 8.03388 43.0068 7.96422L43.1778 7.8589C43.2357 7.82488 43.2981 7.79459 43.3581 7.7629C43.4171 7.73121 43.4822 7.70372 43.5473 7.67716C43.5795 7.66364 43.6113 7.65083 43.6484 7.63964C43.6852 7.62822 43.7144 7.61727 43.767 7.60446C43.8756 7.57813 43.9852 7.64547 44.0114 7.75475C44.0302 7.8328 44.0014 7.91132 43.9437 7.95932L43.8837 8.00919L43.8833 8.01012Z" fill="#4A0D72"/>
<path d="M25.4155 45.9715C26.5843 45.8844 27.7395 45.753 28.8782 45.5419C29.4462 45.4317 30.0124 45.3147 30.5701 45.1649C30.8499 45.0943 31.127 45.0136 31.4043 44.9342C31.6793 44.847 31.956 44.7655 32.2268 44.6667C32.4997 44.574 32.7687 44.4705 33.0386 44.3699C33.3059 44.2622 33.5735 44.1557 33.8362 44.0376C34.3628 43.8041 34.883 43.5562 35.3882 43.2801C35.8958 43.0084 36.3886 42.7104 36.87 42.3965C37.1091 42.2376 37.3454 42.0745 37.5764 41.9056C37.6916 41.8208 37.8046 41.7339 37.917 41.6472C38.0268 41.5615 38.1429 41.4673 38.2367 41.3856L38.2381 41.3842C38.2789 41.3464 38.3264 41.318 38.375 41.2993C38.7038 41.1751 39.049 41.0209 39.3775 40.8611C39.7076 40.6984 40.0322 40.5246 40.3449 40.3345C40.9702 39.9563 41.5596 39.5185 42.0327 38.9991C42.2667 38.7389 42.4655 38.4562 42.6091 38.1578C42.6425 38.0813 42.6744 38.0096 42.7039 37.9282C42.7317 37.846 42.7629 37.7637 42.7843 37.6817C42.8341 37.5177 42.867 37.3546 42.8804 37.2001C42.8943 37.0456 42.8853 36.9005 42.8505 36.7819C42.8169 36.6614 42.7569 36.5733 42.6717 36.4981C42.585 36.4244 42.4657 36.3655 42.3251 36.331C42.2553 36.3133 42.1814 36.3007 42.1059 36.2937C42.0684 36.2898 42.0302 36.2881 41.9926 36.287C41.9583 36.286 41.9108 36.2872 41.8942 36.2884H41.8905C41.6724 36.304 41.4834 36.1385 41.4683 35.9193C41.4577 35.7657 41.5355 35.6264 41.6579 35.5514C41.8337 35.4442 42.0109 35.279 42.1706 35.0949C42.3302 34.909 42.4778 34.7042 42.6087 34.4875C42.8702 34.056 43.0829 33.5804 43.1953 33.106C43.2233 32.9879 43.2444 32.87 43.2548 32.756C43.2661 32.6421 43.2685 32.5305 43.2562 32.4319C43.2448 32.3329 43.2205 32.2467 43.1871 32.1849C43.1769 32.1556 43.1376 32.1167 43.1149 32.081L43.0954 32.0533L43.0727 32.034C43.0579 32.0207 43.0437 32.0072 43.0298 31.9927C43.0166 31.9764 42.9986 31.9736 42.9842 31.9622C42.9684 31.9543 42.9559 31.9387 42.9383 31.9345C42.9043 31.9242 42.8746 31.9049 42.8352 31.9023C42.7636 31.8837 42.6744 31.8886 42.5802 31.9046C42.4856 31.9186 42.3835 31.9568 42.2834 31.9995C42.2331 32.0214 42.1831 32.047 42.1342 32.074C42.1103 32.0882 42.0851 32.1015 42.0626 32.1164C42.0408 32.1295 42.013 32.1484 42.003 32.1554L41.9982 32.1588C41.8182 32.2847 41.571 32.2397 41.4459 32.0589C41.3921 31.9811 41.3696 31.8902 41.3759 31.8024C41.3919 31.5808 41.4044 31.358 41.4051 31.1329C41.4069 30.9083 41.4032 30.6825 41.3919 30.4563C41.3812 30.2303 41.3655 30.0038 41.3437 29.778C41.3222 29.5541 41.2948 29.3227 41.2624 29.1102V29.1088C41.2381 28.9511 41.3092 28.8006 41.4322 28.716C41.4572 28.699 41.5054 28.6589 41.5434 28.6295C41.5835 28.5976 41.6243 28.5594 41.6648 28.5249C41.747 28.4571 41.8237 28.3746 41.9034 28.2996C41.9843 28.2255 42.0561 28.1377 42.133 28.0575L42.2463 27.9343L42.3538 27.804L42.5686 27.5433L42.7699 27.2695C42.9087 27.0908 43.0287 26.8965 43.1535 26.7063C43.2826 26.519 43.3919 26.3177 43.5064 26.1199L43.6771 25.8226L43.8312 25.5148L43.9853 25.2072L44.0624 25.0534C44.0867 25.0014 44.1085 24.9481 44.1315 24.8954L44.4053 24.2619C44.4535 24.1575 44.4917 24.0485 44.5313 23.9401L44.6509 23.6153L44.7704 23.2905L44.8302 23.1281L44.8814 22.9624L45.0853 22.2991L45.1865 21.9673L45.2708 21.6299C45.38 21.1793 45.5081 20.7335 45.5871 20.275L45.7217 19.5913C45.743 19.4772 45.7689 19.3639 45.7868 19.2491L45.8373 18.9038C46.1396 17.0661 46.2552 15.2051 46.2043 13.3473C46.1635 12.4195 46.1023 11.4917 45.9726 10.5718C45.8465 9.65189 45.6797 8.73781 45.4631 7.83539C45.2449 6.93367 44.9801 6.04336 44.6631 5.17356C44.5804 4.95757 44.5042 4.73878 44.4153 4.52581C44.3722 4.42073 44.3288 4.30702 44.2858 4.20916L44.2225 4.07658C44.2019 4.03208 44.1727 3.9927 44.1486 3.95029C43.9454 3.61686 43.6331 3.3566 43.277 3.20002C43.097 3.12546 42.9075 3.0763 42.7145 3.05439C42.5211 3.03366 42.326 3.0488 42.1358 3.08562L41.994 3.11894L41.8562 3.16694C41.8119 3.17952 41.7596 3.20561 41.7095 3.22775L41.5585 3.29579C41.3546 3.37897 41.1625 3.49594 40.9651 3.59846C40.1909 4.04862 39.4759 4.62414 38.8062 5.24975C38.1373 5.87886 37.5162 6.56646 36.9252 7.28015C36.3351 7.99523 35.7751 8.73875 35.243 9.50323C34.7113 10.2679 34.2011 11.0492 33.7165 11.8468C33.232 12.6418 32.7629 13.4573 32.3364 14.274L32.3359 14.2749C32.2405 14.4578 32.022 14.5347 31.8353 14.4599C30.6852 13.9946 29.4756 13.6554 28.2459 13.4084C27.0159 13.1618 25.7667 12.9899 24.5148 12.9142C23.2635 12.8282 22.0027 12.838 20.7514 12.9244C19.5006 13.0113 18.2577 13.1921 17.0578 13.5058C16.859 13.5577 16.6561 13.4489 16.5854 13.2595L16.5845 13.2567C16.2653 12.392 15.9036 11.5227 15.5244 10.672C15.1451 9.81872 14.7383 8.97827 14.3083 8.15134C13.8776 7.32488 13.4168 6.51543 12.9226 5.73021C12.4271 4.94638 11.8986 4.18446 11.3153 3.4745C10.7305 2.7678 10.0948 2.10491 9.38403 1.55898C9.20124 1.43199 9.02563 1.29126 8.83403 1.18245L8.69294 1.09553C8.64614 1.06711 8.59772 1.03449 8.55532 1.01631L8.42466 0.95084L8.2882 0.899579C8.10425 0.838532 7.91265 0.798223 7.71828 0.794029C7.52413 0.791 7.32976 0.815232 7.14187 0.866027C6.76864 0.975538 6.42599 1.1934 6.18204 1.49793C6.15285 1.53684 6.11879 1.57226 6.09284 1.61373L6.01338 1.73699C5.95824 1.82856 5.90078 1.93575 5.84472 2.03454C5.72934 2.23446 5.62602 2.4416 5.51643 2.64501C5.09154 3.46681 4.71576 4.31588 4.3847 5.18195C4.05525 6.04895 3.77354 6.93437 3.53143 7.83027C3.28563 8.72593 3.107 9.63837 2.94854 10.5531C2.66172 12.389 2.53986 14.2497 2.60589 16.1112L2.61191 16.4602C2.61493 16.5765 2.62628 16.6921 2.63276 16.8081L2.67933 17.5034C2.69949 17.9685 2.76992 18.4268 2.82065 18.8879L2.86143 19.2332L2.91981 19.5753L3.03773 20.2594L3.06739 20.4304L3.10608 20.5991L3.18346 20.9367L3.26061 21.2743C3.28632 21.3869 3.31018 21.4999 3.3447 21.6096L3.53584 22.2732C3.55205 22.3284 3.56688 22.3841 3.58426 22.4389L3.64125 22.6013L3.755 22.9263L3.86852 23.2514L4.00011 23.5682C4.08815 23.7793 4.17109 23.993 4.27535 24.1955C4.3752 24.4003 4.46949 24.6084 4.5844 24.8034L4.74935 25.1007L4.92913 25.3868L5.01926 25.5299L5.1161 25.6667C5.18212 25.7561 5.24236 25.8524 5.31302 25.9363C5.38252 26.0211 5.44832 26.1126 5.52107 26.1905C5.55674 26.2301 5.59219 26.273 5.6281 26.31C5.66192 26.344 5.70455 26.3897 5.72726 26.41C5.84611 26.516 5.88711 26.6772 5.84611 26.821L5.84564 26.8226C5.78634 27.0293 5.72981 27.2553 5.68 27.4745C5.62972 27.6957 5.58524 27.9182 5.54609 28.1409C5.50601 28.3637 5.4738 28.5871 5.44693 28.8104C5.41913 29.0336 5.40314 29.2563 5.39086 29.4779C5.37859 29.6979 5.19139 29.8663 4.97246 29.854C4.87817 29.8486 4.7936 29.8109 4.72874 29.7517L4.7241 29.7473C4.71507 29.7389 4.68981 29.7167 4.66989 29.7009C4.6495 29.6832 4.6261 29.6669 4.60433 29.6496C4.55915 29.6168 4.51304 29.5849 4.46578 29.5567C4.37195 29.5014 4.27535 29.4504 4.18337 29.4243C4.09163 29.3961 4.00382 29.3798 3.93061 29.3891C3.89146 29.3866 3.85949 29.4022 3.82427 29.4078C3.80643 29.4099 3.79207 29.4236 3.77539 29.4294C3.75964 29.439 3.74133 29.4395 3.72627 29.4539C3.71075 29.4663 3.695 29.4781 3.67855 29.4893L3.65376 29.5056L3.63106 29.5306C3.60395 29.5632 3.55993 29.5967 3.54626 29.6245C3.50526 29.6816 3.47027 29.764 3.44641 29.8607C3.42162 29.9567 3.40957 30.0676 3.40656 30.1823C3.40216 30.2967 3.40818 30.4162 3.42093 30.5371C3.47213 31.022 3.62248 31.5209 3.82705 31.9827C3.92945 32.2143 4.04969 32.4364 4.1843 32.6414C4.31913 32.8443 4.47389 33.031 4.63467 33.1601C4.80542 33.2971 4.83345 33.5476 4.69723 33.7193C4.60178 33.8395 4.45119 33.8894 4.31079 33.8614L4.30662 33.8605C4.29017 33.8572 4.24314 33.85 4.20909 33.8465C4.17179 33.8428 4.13356 33.8395 4.0958 33.8386C4.02004 33.836 3.94498 33.8388 3.87362 33.8474C3.72998 33.8637 3.60395 33.9068 3.50873 33.9686C3.41444 34.0322 3.34378 34.1119 3.29513 34.227C3.24555 34.3402 3.21821 34.4831 3.21242 34.638C3.20616 34.7929 3.21798 34.9591 3.24647 35.128C3.25736 35.2119 3.27775 35.2976 3.29489 35.3827C3.31389 35.467 3.33636 35.5425 3.35976 35.6224C3.46425 35.937 3.6255 36.2427 3.8245 36.5309C4.22762 37.1069 4.75654 37.617 5.32854 38.0725C5.61466 38.3013 5.91422 38.5154 6.22096 38.7191C6.52631 38.9199 6.84903 39.1173 7.15948 39.2827C7.20581 39.3072 7.24566 39.3393 7.2781 39.3768L7.28574 39.3859C7.36683 39.4805 7.46853 39.5903 7.56514 39.6909C7.66384 39.7932 7.76531 39.8939 7.86655 39.995C8.07066 40.1961 8.2831 40.3902 8.49856 40.5805C8.93272 40.9587 9.38519 41.317 9.85085 41.6577C10.7854 42.3348 11.7749 42.9383 12.811 43.4514C13.3281 43.7095 13.8568 43.9451 14.3945 44.159C14.9303 44.3775 15.479 44.5649 16.0322 44.7366C16.3102 44.8177 16.5859 44.9086 16.8674 44.9794L17.2867 45.0978C17.4276 45.1329 17.5687 45.1677 17.7091 45.2063C17.8495 45.245 17.9906 45.2816 18.1328 45.3133L18.5582 45.4186C18.842 45.4906 19.1285 45.5484 19.4137 45.6278L19.4198 45.6295C19.4902 45.649 19.5312 45.7222 19.5117 45.793C19.4955 45.8522 19.4415 45.8909 19.3834 45.8904C19.0857 45.8881 18.7873 45.8786 18.4898 45.8567C18.1935 45.8271 17.8949 45.8061 17.6006 45.7567C17.0085 45.6763 16.424 45.547 15.845 45.3955C15.2681 45.2369 14.6947 45.0614 14.1325 44.8533C13.5674 44.6523 13.0149 44.4167 12.4716 44.1613C12.1987 44.0357 11.9318 43.898 11.6639 43.7617C11.3998 43.6184 11.1357 43.4749 10.8774 43.3206C10.3592 43.0156 9.8534 42.688 9.36596 42.3339C8.87689 41.9818 8.40682 41.6027 7.95644 41.1996C7.73195 40.9971 7.51093 40.7905 7.29663 40.5749C7.18936 40.4671 7.08441 40.3568 6.98132 40.2436C6.87683 40.128 6.77999 40.0192 6.67249 39.8864L6.79876 39.9896C6.44036 39.7983 6.11624 39.5989 5.78796 39.3836C5.46315 39.1678 5.14529 38.9409 4.83878 38.6958C4.22646 38.2067 3.64704 37.6556 3.17674 36.985C2.9446 36.6484 2.74443 36.2767 2.60937 35.8685C2.57878 35.7664 2.54774 35.6588 2.52527 35.5577C2.50442 35.4565 2.48125 35.3566 2.46712 35.252C2.43283 35.0458 2.41522 34.8302 2.42402 34.6049C2.43352 34.3805 2.47105 34.1417 2.57369 33.9057C2.67192 33.6699 2.85656 33.4464 3.0792 33.3029C3.30254 33.1582 3.54812 33.0864 3.77956 33.0594C3.89609 33.0454 4.01077 33.0415 4.12406 33.0454C4.18082 33.0471 4.23712 33.0515 4.29388 33.0573C4.35365 33.0643 4.40068 33.0699 4.4769 33.0855L4.14862 33.7859C3.88544 33.5734 3.69523 33.3313 3.52842 33.0829C3.36416 32.8332 3.22539 32.5748 3.10747 32.3084C2.98908 32.0423 2.88853 31.7697 2.80884 31.4887C2.72868 31.208 2.66705 30.9197 2.63624 30.6194C2.62049 30.4693 2.61238 30.3163 2.61794 30.1583C2.62257 30.0008 2.63832 29.8388 2.68049 29.6706C2.72219 29.5035 2.78799 29.3281 2.90475 29.1631L2.94947 29.1021C2.96476 29.0832 2.98028 29.0683 2.9958 29.0513L3.09056 28.9532L3.13874 28.9052L3.19643 28.8618L3.31389 28.778C3.35189 28.7493 3.40123 28.7318 3.44502 28.7095C3.49089 28.6901 3.53445 28.6647 3.5831 28.6528C3.67971 28.627 3.77771 28.5995 3.87524 28.5981C4.0724 28.5804 4.25658 28.6167 4.42246 28.6682C4.59112 28.7193 4.73638 28.7961 4.87562 28.8784C4.94489 28.9201 5.01045 28.9651 5.07486 29.0124C5.1066 29.0368 5.13857 29.0599 5.16985 29.0865C5.20274 29.1135 5.22892 29.1354 5.2697 29.1734L4.60294 29.443C4.61614 29.1992 4.63398 28.9564 4.66387 28.7169C4.69259 28.4772 4.72711 28.2388 4.76951 28.0028C4.81121 27.7665 4.85824 27.5316 4.91106 27.2982C4.96481 27.0631 5.02088 26.8364 5.09015 26.595L5.2083 27.0076C5.14367 26.9491 5.10729 26.9079 5.05818 26.8587C5.01231 26.8112 4.97269 26.7637 4.92983 26.7159C4.84272 26.6215 4.77067 26.522 4.69144 26.4249C4.61104 26.3284 4.54571 26.225 4.47227 26.1252L4.36547 25.974L4.26724 25.8186L4.07193 25.5073L3.89424 25.1876C3.77076 24.9768 3.66998 24.7559 3.56364 24.5375C3.45267 24.3208 3.36463 24.0955 3.27149 23.8723L3.13272 23.537L3.01294 23.1954L2.8934 22.8539L2.83363 22.6831C2.81532 22.6257 2.7998 22.5675 2.78289 22.5099L2.58319 21.8161C2.54728 21.701 2.52226 21.5835 2.49538 21.4666L2.41499 21.1154L2.3346 20.7643L2.29452 20.5886L2.2637 20.4115L2.14138 19.703L2.08114 19.3486L2.03875 18.9923C1.98616 18.517 1.91387 18.0428 1.89302 17.5656L1.84507 16.8508C1.83812 16.7317 1.82676 16.6126 1.82375 16.4933L1.81727 16.1357C1.74962 14.2302 1.87449 12.3133 2.16988 10.4264C2.33251 9.48529 2.51669 8.54675 2.76945 7.62499C3.0185 6.70276 3.30856 5.79125 3.6482 4.89792C3.98946 4.00528 4.37705 3.12989 4.81654 2.27966C4.92983 2.06879 5.03686 1.85489 5.15664 1.64705C5.21688 1.54127 5.27016 1.44085 5.33619 1.33087L5.44786 1.15775C5.48516 1.10019 5.53149 1.0487 5.57343 0.994178C5.91909 0.564753 6.40282 0.254859 6.9285 0.102474C7.19191 0.0295444 7.46598 -0.00494011 7.74029 0.000418964C8.01482 0.00671006 8.28704 0.0616989 8.54675 0.149308L8.73904 0.222471L8.92322 0.313809C8.98809 0.344099 9.03698 0.377185 9.09049 0.409573L9.24919 0.506968C9.46558 0.631159 9.6581 0.784009 9.86012 0.925443C10.6397 1.52449 11.3113 2.22886 11.9241 2.96888C12.5346 3.71193 13.08 4.49925 13.5896 5.30497C14.0977 6.11187 14.5685 6.93949 15.0075 7.78203C15.4458 8.62504 15.8594 9.4797 16.2449 10.3469C16.6318 11.2156 16.9946 12.0856 17.3275 12.9876L16.8542 12.7385C18.1198 12.4076 19.4077 12.2221 20.6961 12.1322C21.9846 12.0434 23.2762 12.0334 24.5653 12.1217C25.855 12.2 27.1348 12.3759 28.4014 12.6299C29.6677 12.8848 30.9215 13.2345 32.1346 13.7253L31.6335 13.9114C32.0783 13.0596 32.5488 12.2436 33.043 11.4318C33.5355 10.6214 34.0545 9.82687 34.5964 9.04724C35.139 8.26808 35.7112 7.50779 36.3177 6.7729C36.9256 6.03917 37.5665 5.32874 38.2666 4.67027C38.9686 4.01507 39.7243 3.40297 40.5736 2.90923C40.7921 2.79483 41.0024 2.66807 41.233 2.57278L41.4028 2.49658C41.46 2.47142 41.5128 2.44486 41.5809 2.42319L41.7753 2.35632L41.9755 2.30855C42.2442 2.25519 42.5211 2.23562 42.7942 2.26475C43.0669 2.2948 43.3345 2.36401 43.5872 2.47002C44.0893 2.68858 44.5297 3.05812 44.8179 3.52856C44.8524 3.58797 44.8918 3.64506 44.9215 3.70704L45.0102 3.89321C45.0616 4.01087 45.1017 4.11736 45.148 4.2299C45.2403 4.45125 45.3193 4.67726 45.405 4.90095C45.7328 5.80081 46.0057 6.71884 46.2307 7.64806C46.4538 8.57774 46.6257 9.51907 46.7554 10.4658C46.8889 11.4125 46.9521 12.3671 46.9938 13.3215C47.0466 15.2307 46.9266 17.1478 46.6173 19.0291L46.5654 19.3828C46.5471 19.5007 46.5207 19.6172 46.4987 19.7346L46.3604 20.4374C46.2789 20.9078 46.147 21.3689 46.0344 21.8335L45.9471 22.1814L45.8424 22.5251L45.6311 23.212L45.578 23.3837L45.5159 23.5526L45.3918 23.8905L45.2674 24.2283C45.2259 24.3409 45.186 24.4541 45.1358 24.5639L44.8494 25.2263C44.8251 25.2813 44.8024 25.337 44.7769 25.3915L44.696 25.5532L44.5341 25.8766L44.3719 26.2L44.1917 26.5148C44.0708 26.7243 43.9549 26.9365 43.8173 27.1372C43.6841 27.3401 43.5562 27.5461 43.4068 27.7395L43.1899 28.0338L42.9566 28.3173L42.8394 28.4588L42.7143 28.5951C42.6288 28.6845 42.5507 28.7787 42.459 28.8642C42.3679 28.9504 42.2841 29.0399 42.1854 29.1221C42.1367 29.1638 42.0915 29.206 42.0399 29.2472C41.985 29.2899 41.9437 29.326 41.8722 29.3756L42.0417 28.9816C42.0797 29.2298 42.1066 29.4618 42.13 29.7021C42.1529 29.9404 42.1696 30.1793 42.181 30.419C42.193 30.6585 42.197 30.8992 42.1949 31.1409C42.194 31.3822 42.1807 31.6253 42.1629 31.8688L41.5358 31.5155C41.5809 31.4831 41.6099 31.4647 41.6458 31.4421C41.6801 31.4198 41.7148 31.4011 41.7494 31.3809C41.8191 31.3422 41.89 31.3058 41.9639 31.2734C42.1124 31.2098 42.2665 31.1523 42.4402 31.1234C42.6114 31.0938 42.7986 31.0814 42.9918 31.1241C43.0884 31.1381 43.1818 31.1779 43.2745 31.2161C43.3213 31.2343 43.3611 31.265 43.4042 31.2902C43.445 31.3179 43.4916 31.3417 43.5256 31.375L43.6315 31.4734L43.6832 31.5237L43.7249 31.5775L43.8064 31.6868C43.8196 31.7057 43.8333 31.7224 43.846 31.7432L43.8826 31.8096C43.9774 31.9883 44.0205 32.1707 44.0406 32.3418C44.061 32.5139 44.0562 32.6766 44.0406 32.8334C44.026 32.9909 43.9987 33.1417 43.964 33.2884C43.8954 33.5825 43.7974 33.8602 43.6822 34.1284C43.5676 34.3968 43.4329 34.6543 43.2819 34.9029C43.1311 35.1518 42.9606 35.3904 42.766 35.6169C42.5688 35.8417 42.3494 36.0575 42.0614 36.2343L41.8249 35.4976C41.9025 35.492 41.9498 35.4924 42.01 35.4931C42.067 35.4948 42.1235 35.4973 42.1798 35.5031C42.2926 35.5139 42.4059 35.5325 42.5197 35.5614C42.7458 35.618 42.9803 35.7205 43.1832 35.893C43.3857 36.064 43.5405 36.3093 43.6079 36.5559C43.6797 36.8031 43.6866 37.0449 43.6674 37.2686C43.6475 37.493 43.6025 37.7048 43.5425 37.9047C43.5152 38.0068 43.4795 38.1028 43.4459 38.2006C43.4107 38.298 43.3662 38.4008 43.3229 38.4979C43.1371 38.8854 42.8913 39.2282 42.6181 39.5322C42.0663 40.1369 41.4215 40.609 40.7522 41.0151C40.417 41.2187 40.073 41.403 39.7234 41.5752C39.3703 41.7465 39.0235 41.9028 38.6437 42.0463L38.7821 41.9604C38.66 42.0799 38.5513 42.1771 38.4343 42.2798C38.3192 42.3807 38.2008 42.4765 38.0824 42.572C37.8454 42.7624 37.601 42.9411 37.3535 43.1151C36.858 43.4623 36.3423 43.7771 35.815 44.0697C34.7567 44.6476 33.6465 45.129 32.5004 45.4943C31.9275 45.677 31.3485 45.8403 30.7614 45.9671C30.4688 46.0349 30.1732 46.0869 29.8783 46.1418C29.7312 46.1712 29.582 46.1878 29.4337 46.2101C29.2852 46.2299 29.1376 46.2558 28.9882 46.2698C27.7981 46.407 26.5973 46.4371 25.4118 46.3245C25.315 46.3154 25.2439 46.229 25.2531 46.1316C25.2612 46.0442 25.3312 45.9778 25.4153 45.9715H25.4162H25.4155Z" fill="#4A0D72"/>
<path d="M51.5371 16.4619C50.9994 15.577 50.7341 14.5149 50.8477 13.4035C51.1231 10.7063 53.5203 8.74415 56.2022 9.02119C58.884 9.29823 60.835 11.7091 60.5595 14.4064C60.284 17.1036 57.8869 19.0655 55.205 18.7887C54.459 18.7116 53.77 18.469 53.1693 18.1016L50.9102 18.6111L51.5371 16.4619Z" fill="#FF0068"/>
<g opacity="0.5">
<path d="M56.1065 9.96076C53.6014 9.70213 51.3449 11.3975 50.834 13.8205C50.8333 13.6473 50.8407 13.4728 50.8588 13.2967C51.1343 10.5994 53.5314 8.63753 56.2133 8.91434C58.8952 9.19138 60.8461 11.6023 60.5707 14.2995C60.5526 14.4764 60.525 14.6497 60.4891 14.8198C60.4796 12.3418 58.6125 10.2196 56.1065 9.96076Z" fill="white"/>
</g>
<path d="M55.7076 19.2317C55.5274 19.2317 55.346 19.2224 55.1627 19.2035C54.4293 19.1278 53.7363 18.9062 53.1006 18.5445L51.0011 19.018C50.8577 19.0502 50.7083 19.004 50.608 18.8964C50.5077 18.7887 50.4713 18.6357 50.5128 18.494L51.0892 16.5177C50.5484 15.5549 50.3226 14.4677 50.4356 13.3609C50.7338 10.4393 53.3394 8.30591 56.2447 8.60649C57.6519 8.75188 58.9187 9.43947 59.8115 10.543C60.7044 11.6465 61.1166 13.0336 60.972 14.4488C60.6926 17.1861 58.3867 19.231 55.7076 19.2314V19.2317ZM53.1694 17.685C53.2447 17.685 53.3193 17.7057 53.3849 17.7458C53.9541 18.0939 54.5808 18.3055 55.2475 18.3745C57.6977 18.6273 59.8959 16.8285 60.1475 14.3642C60.2693 13.1706 59.9218 12.0004 59.1686 11.0698C58.4155 10.1389 57.347 9.559 56.1601 9.43644C54.9728 9.31388 53.8097 9.66339 52.8844 10.4209C51.9589 11.1781 51.3823 12.2528 51.2604 13.4464C51.1596 14.4325 51.3779 15.4002 51.8912 16.2448C51.9522 16.3452 51.9682 16.4666 51.9353 16.5796L51.5064 18.0499L53.079 17.6952C53.1092 17.6885 53.1395 17.6852 53.1699 17.6852L53.1694 17.685Z" fill="#4A0D72"/>
<g opacity="0.3">
<path d="M51.5097 16.4149C52.8467 17.5522 54.6888 18.0503 56.5179 17.5925C58.5464 17.0848 60.041 15.5311 60.5787 13.6456C60.5914 13.8956 60.5859 14.1498 60.5595 14.4066C60.284 17.1039 57.8868 19.0658 55.205 18.7889C54.459 18.7118 53.77 18.4693 53.1692 18.1018L50.9102 18.6114L51.5371 16.4622C51.5276 16.4466 51.519 16.4307 51.5097 16.4151V16.4149Z" fill="#390565"/>
</g>
<path d="M54.1427 12.5265C54.565 12.1017 55.2501 12.1777 55.6724 12.6027L55.7382 12.6689L55.804 12.6027C56.2264 12.1779 56.9114 12.1017 57.3338 12.5265C57.7561 12.9513 57.7561 13.6403 57.3338 14.065L57.268 14.1312L55.9398 15.467C55.8283 15.5791 55.6479 15.5791 55.5364 15.467L54.2082 14.1312L54.1424 14.065C53.7201 13.6403 53.7201 12.9513 54.1424 12.5265H54.1427Z" fill="white"/>
</g>
<defs>
<clipPath id="clip0_413_2700">
<rect width="61" height="69" fill="white"/>
</clipPath>
</defs>
</svg>
