<svg width="41" height="37" viewBox="0 0 41 37" fill="none" xmlns="http://www.w3.org/2000/svg">
<path d="M13.79 7.58C15.8832 7.58 17.58 5.88316 17.58 3.79C17.58 1.69684 15.8832 0 13.79 0C11.6968 0 10 1.69684 10 3.79C10 5.88316 11.6968 7.58 13.79 7.58Z" fill="#4A0D72"/>
<path d="M27.3896 7.58C29.4828 7.58 31.1796 5.88316 31.1796 3.79C31.1796 1.69684 29.4828 0 27.3896 0C25.2964 0 23.5996 1.69684 23.5996 3.79C23.5996 5.88316 25.2964 7.58 27.3896 7.58Z" fill="#4A0D72"/>
<path d="M38.8306 17.4288C33.4556 21.4213 26.7846 23.242 20.3818 24.007C13.9791 24.772 7.07598 24.573 0.902602 21.9603C-0.063857 21.5484 0.548037 19.9139 1.5145 20.3258C7.40856 22.8271 14.0475 22.9646 20.1687 22.2229C26.2898 21.4812 32.7017 19.7949 37.8508 15.9845C38.6931 15.3565 39.6728 16.8008 38.8306 17.4288Z" fill="#4A0D72"/>
<path d="M38.2764 17.8406C38.1528 22.7465 34.7565 32.9345 22.1604 34.4395C9.56423 35.9444 3.16355 26.9268 1.53773 22.2299" stroke="#4A0D72" stroke-width="2" stroke-linecap="round"/>
</svg>
