<svg width="33" height="38" viewBox="0 0 33 38" fill="none" xmlns="http://www.w3.org/2000/svg">
<path d="M31 18.9997C28.0711 18.9997 25.1413 18.9997 22.2124 18.9997C19.8935 18.9997 17.5753 18.9989 15.2563 18.9997C11.3833 19.0012 7.37531 19.0626 4.19807 16.4481C1.98718 14.6293 0.620032 11.6559 1.09363 8.80986C1.4699 6.55357 2.91981 4.60496 4.65251 3.13807C6.3101 1.73333 8.46734 0.65258 10.5817 1.10399C12.5397 1.522 14.0578 3.20955 14.7666 5.10688C15.2456 6.38808 15.3966 7.85109 14.8801 9.11753C13.5474 12.3885 11.4783 12.9425 9.4084 12.8345" stroke="#4CC9F0" stroke-width="1.5" stroke-miterlimit="10"/>
<path d="M33 25.0002C30.9497 25.0002 28.8989 25.0002 26.8487 25.0002C25.2254 25.0002 23.6027 25.0007 21.9794 25.0002C19.2683 24.9992 16.4627 24.9583 14.2386 26.7012C12.691 27.9138 11.734 29.8961 12.0655 31.7934C12.3289 33.2976 13.3439 34.5967 14.5568 35.5746C15.7171 36.5111 17.2271 37.2316 18.7072 36.9307C20.0778 36.652 21.1404 35.527 21.6367 34.2621C21.9719 33.4079 22.0776 32.4326 21.716 31.5883C20.7832 29.4077 19.3348 29.0383 17.8859 29.1103" stroke="#4CC9F0" stroke-width="1.5" stroke-miterlimit="10"/>
</svg>
