<svg width="32" height="25" viewBox="0 0 32 25" fill="none" xmlns="http://www.w3.org/2000/svg">
<path d="M8.8818 7.58C10.975 7.58 12.6718 5.88316 12.6718 3.79C12.6718 1.69684 10.975 0 8.8818 0C6.78864 0 5.0918 1.69684 5.0918 3.79C5.0918 5.88316 6.78864 7.58 8.8818 7.58Z" fill="#4A0D72"/>
<path d="M22.4921 7.58C24.5853 7.58 26.2822 5.88316 26.2822 3.79C26.2822 1.69684 24.5853 0 22.4921 0C20.399 0 18.7021 1.69684 18.7021 3.79C18.7021 5.88316 20.399 7.58 22.4921 7.58Z" fill="#4A0D72"/>
<path d="M0.172216 15.0462C3.56222 20.4562 9.05221 24.7862 15.6822 24.7762C22.3122 24.7662 27.7922 20.4662 31.1922 15.0462C31.9422 13.8462 30.0422 12.7362 29.2922 13.9362C26.3122 18.6962 21.5322 22.5662 15.6822 22.5762C9.83221 22.5862 5.05221 18.6862 2.07221 13.9362C1.32221 12.7362 -0.577784 13.8462 0.172216 15.0462V15.0462Z" fill="#4A0D72"/>
</svg>
