<svg width="41" height="44" viewBox="0 0 41 44" fill="none" xmlns="http://www.w3.org/2000/svg">
<path d="M33.8751 31.6957L37.0406 26.4932C39.5026 22.4471 40.2123 17.5024 38.9882 12.9263C36.9527 5.31516 30.0277 0 22.1486 0H21.0222C11.5674 0 3.87519 7.69223 3.87519 17.147V19.4502L0.663567 24.3851C0.300135 24.9435 0.196874 25.6304 0.380619 26.2712C0.564363 26.9113 1.01576 27.4394 1.61879 27.719L3.94786 28.8027L4.86411 34.0192C5.32113 36.6228 7.57188 38.5124 10.2148 38.5124H14.4278C15.0099 38.5124 15.5194 38.9266 15.6373 39.4963L16.3174 42.7687C16.3848 43.0922 16.6705 43.3249 17.0018 43.3249H33.2296C33.4399 43.3249 33.6392 43.2298 33.7712 43.0669C33.9041 42.9041 33.9565 42.6895 33.9137 42.4842L32.8752 37.4851C32.4609 35.4916 32.816 33.4359 33.8744 31.6958L33.8751 31.6957ZM31.5077 37.7689L32.3714 41.9273H17.5715L17.0075 39.2117C16.7552 37.9966 15.6708 37.1141 14.4298 37.1141H10.2168C8.25338 37.1141 6.58188 35.7103 6.24215 33.7774L5.26226 28.2018C5.22233 27.9769 5.07571 27.7853 4.86888 27.6896L2.20942 26.452C1.96983 26.341 1.79795 26.1398 1.72526 25.8852C1.65257 25.631 1.69157 25.3689 1.83631 25.1474L5.16054 20.0385C5.23385 19.9246 5.27378 19.7917 5.27378 19.6569V17.1463C5.27347 8.46214 12.3381 1.39762 21.0224 1.39762H22.1489C29.3959 1.39762 35.7652 6.28696 37.6387 13.2882C38.7646 17.4971 38.1117 22.0457 35.8471 25.7673L32.6817 30.9698C31.4376 33.0128 31.0205 35.4274 31.5075 37.769L31.5077 37.7689ZM13.8288 20.1803C13.3047 21.0002 12.1748 21.5086 10.8805 21.5086C9.58551 21.5086 8.45563 20.9992 7.9315 20.1803C7.72311 19.8546 7.81826 19.4229 8.14395 19.2145C8.46745 19.007 8.90076 19.1012 9.10883 19.4269C9.31971 19.7566 9.96422 20.111 10.8802 20.111C11.7964 20.111 12.4406 19.756 12.6515 19.4269C12.8589 19.1018 13.2922 19.0076 13.6164 19.2145C13.942 19.4228 14.0372 19.8546 13.8288 20.1803H13.8288ZM30.6467 9.36069C28.867 8.2844 26.7414 8.12253 24.849 8.87279C24.654 6.84416 23.5437 5.02883 21.7793 3.93297C21.5544 3.79259 21.2677 3.79259 21.0421 3.93297C19.277 5.02795 18.1665 6.84479 17.9715 8.87407C16.0724 8.12568 13.9501 8.28696 12.175 9.36041C11.9479 9.49735 11.8179 9.7516 11.8403 10.0158C12.0284 12.3037 13.3561 14.289 15.3917 15.326C16.335 15.8083 17.3539 16.0478 18.3721 16.0478C19.4168 16.0478 20.4544 15.7808 21.4118 15.2785C22.3676 15.7802 23.4045 16.0466 24.4493 16.0466C25.4666 16.0466 26.4864 15.807 27.4316 15.3263C29.4678 14.2859 30.7948 12.3006 30.983 10.0161C31.0033 9.75067 30.8732 9.49767 30.6467 9.36073L30.6467 9.36069ZM21.41 5.37139C22.7208 6.34689 23.4917 7.86266 23.4917 9.50948C23.4917 11.1566 22.7208 12.6727 21.41 13.6485C20.0992 12.6737 19.3283 11.1573 19.3283 9.50948C19.3283 7.8617 20.0992 6.34529 21.41 5.37139ZM16.0259 14.0803C14.5572 13.3319 13.5571 11.9552 13.2882 10.3418C14.7506 9.61774 16.453 9.6221 17.9273 10.3739C17.9504 10.3858 17.9735 10.3998 17.9966 10.4123C18.2056 11.9344 18.9449 13.3129 20.0795 14.3436C18.7574 14.8112 17.3047 14.7351 16.0259 14.0803L16.0259 14.0803ZM26.7952 14.0803C25.5149 14.7307 24.0621 14.809 22.7416 14.3429C23.8759 13.3122 24.6143 11.935 24.8239 10.4135C24.8504 10.3995 24.8741 10.3842 24.9016 10.3702C26.369 9.62021 28.0698 9.61615 29.5339 10.3415C29.2653 11.9524 28.2645 13.3291 26.7952 14.0802L26.7952 14.0803ZM3.03968 8.19145C4.71549 8.19145 6.07936 6.82821 6.07936 5.15177C6.07936 3.47532 4.71613 2.11209 3.03968 2.11209C1.36323 2.11209 0 3.47532 0 5.15177C0 6.82821 1.36323 8.19145 3.03968 8.19145ZM3.03968 3.50958C3.94467 3.50958 4.68179 4.24612 4.68179 5.15169C4.68179 6.05726 3.94525 6.7938 3.03968 6.7938C2.13405 6.7938 1.39757 6.05726 1.39757 5.15169C1.39757 4.24612 2.13411 3.50958 3.03968 3.50958ZM37.7793 32.9129C36.1035 32.9129 34.7396 34.2761 34.7396 35.9526C34.7396 37.629 36.1029 38.9922 37.7793 38.9922C39.4558 38.9922 40.819 37.629 40.819 35.9526C40.819 34.2761 39.4558 32.9129 37.7793 32.9129ZM37.7793 37.5941C36.8737 37.5941 36.1372 36.8576 36.1372 35.952C36.1372 35.0464 36.8737 34.3099 37.7793 34.3099C38.6849 34.3099 39.4214 35.0464 39.4214 35.952C39.4214 36.8576 38.6849 37.5941 37.7793 37.5941Z" fill="#4CC9F0"/>
</svg>
