<svg width="43" height="26" viewBox="0 0 43 26" fill="none" xmlns="http://www.w3.org/2000/svg">
<path d="M0.619564 21.6137C6.99957 24.8537 14.5096 25.8437 21.5896 25.8437C28.6696 25.8437 36.1696 24.8537 42.5596 21.6138C43.5596 21.1038 42.6796 19.5937 41.6796 20.1038C35.5796 23.2037 28.3596 24.1037 21.5896 24.0937C14.8196 24.0837 7.60957 23.1937 1.49957 20.1037C0.499566 19.5937 -0.380436 21.1037 0.619564 21.6137Z" fill="#4A0D72"/>
<path d="M14.79 7.58C16.8832 7.58 18.58 5.88316 18.58 3.79C18.58 1.69684 16.8832 0 14.79 0C12.6968 0 11 1.69684 11 3.79C11 5.88316 12.6968 7.58 14.79 7.58Z" fill="#4A0D72"/>
<path d="M28.3896 7.58C30.4828 7.58 32.1796 5.88316 32.1796 3.79C32.1796 1.69684 30.4828 0 28.3896 0C26.2964 0 24.5996 1.69684 24.5996 3.79C24.5996 5.88316 26.2964 7.58 28.3896 7.58Z" fill="#4A0D72"/>
</svg>
