<svg width="69" height="82" viewBox="0 0 69 82" fill="none" xmlns="http://www.w3.org/2000/svg">
<g clip-path="url(#clip0_345_3277)" filter="url(#filter0_f_345_3277)">
<path d="M7.95 63.66C7.31 63.66 7.34 66.91 5.68 69.09C4.24 70.99 2 71.52 2 72.32C2 73.05 4.19 72.99 5.74 74.91C7.09 76.58 7.47 79.56 8.08 79.56C8.69 79.56 8.59 76.79 10.17 74.78C11.78 72.73 13.9 72.59 13.9 71.9C13.9 71.21 11.47 70.61 10.13 68.71C8.72 66.71 8.66 63.66 7.95 63.66Z" fill="#FFD94D"/>
<path d="M53.5199 2C52.1299 2 52.1999 9.01 48.6199 13.72C45.5099 17.81 40.6799 18.96 40.6799 20.69C40.6799 22.27 45.4099 22.14 48.7599 26.28C51.6699 29.88 52.4999 36.31 53.8099 36.31C55.1199 36.31 54.9099 30.34 58.3099 26C61.7799 21.58 66.3599 21.27 66.3599 19.79C66.3599 18.31 61.1099 17 58.2299 12.9C55.1899 8.59 55.0499 2 53.5199 2V2Z" fill="#FFD94D"/>
</g>
<defs>
<filter id="filter0_f_345_3277" x="0" y="0" width="68.3601" height="81.56" filterUnits="userSpaceOnUse" color-interpolation-filters="sRGB">
<feFlood flood-opacity="0" result="BackgroundImageFix"/>
<feBlend mode="normal" in="SourceGraphic" in2="BackgroundImageFix" result="shape"/>
<feGaussianBlur stdDeviation="1" result="effect1_foregroundBlur_345_3277"/>
</filter>
<clipPath id="clip0_345_3277">
<rect width="64.36" height="77.56" fill="white" transform="translate(2 2)"/>
</clipPath>
</defs>
</svg>
