<?xml version="1.0" encoding="utf-8"?>
<svg width="111" height="95" viewBox="0 0 111 95" fill="none" xmlns="http://www.w3.org/2000/svg">
  <path d="M10.5946 1.60901H97.9956C102.883 1.60901 106.855 5.55794 106.855 10.4411V78.2659C106.855 83.1491 102.883 87.098 97.9956 87.098H10.5946C5.70683 87.098 1.73479 83.1491 1.73479 78.2659V10.4411C1.73479 5.55794 5.70683 1.60901 10.5946 1.60901Z" fill="#685161" stroke="#F28423" stroke-width="3"/>
  <g opacity="0.3">
    <path d="M3.00089 33.0537V81.3723C3.00089 83.3971 4.64836 85.0384 6.68082 85.0384H94.0818C96.1142 85.0384 97.7617 83.3971 97.7617 81.3723V69.0826C97.7617 67.9705 96.6747 67.1753 95.6113 67.5156C53.4734 80.9888 18.8661 69.5422 4.37568 32.7971C4.08694 32.0658 2.99995 32.2679 2.99995 33.0537H3.00089Z" fill="#6B184E"/>
  </g>
  <g filter="url(#filter0_d_0_1)">
    <rect x="13" y="21.0126" width="29.0698" height="13" transform="rotate(-15.2963 13 21.0126)" fill="white"/>
  </g>
  <path d="M29.6308 27.2567C29.5227 27.2863 29.4338 27.2746 29.3641 27.2218C29.2995 27.1676 29.2606 27.076 29.2474 26.9469L28.6958 21.8975C28.6817 21.7853 28.6959 21.6957 28.7384 21.6288C28.7847 21.5553 28.8593 21.5045 28.9621 21.4763C29.0702 21.4468 29.1565 21.4591 29.2211 21.5133C29.2843 21.5624 29.3231 21.6541 29.3377 21.7883L29.8894 26.8377C29.9021 26.9448 29.8879 27.0344 29.8468 27.1064C29.8108 27.1771 29.7388 27.2272 29.6308 27.2567Z" fill="black"/>
  <g filter="url(#filter1_d_0_1)">
    <rect x="59.583" y="23.3436" width="39.0698" height="13" transform="rotate(15.9975 59.583 23.3436)" fill="white"/>
  </g>
  <path d="M67.4708 35.1767C67.3734 35.1487 67.3112 35.0948 67.2842 35.015C67.2571 34.9351 67.2708 34.8391 67.3251 34.7271L69.4732 30.1082C69.5246 30.0064 69.5858 29.938 69.6569 29.9029C69.7331 29.8693 69.8225 29.8672 69.9251 29.8966C70.0225 29.9245 70.0854 29.9758 70.1139 30.0506C70.1424 30.1253 70.1295 30.2187 70.0752 30.3307L69.0843 32.4518L68.9997 32.4275C69.2116 32.1721 69.4634 32.0001 69.7551 31.9118C70.0519 31.8248 70.372 31.8306 70.7155 31.9291C70.9924 32.0085 71.2069 32.131 71.3591 32.2967C71.5179 32.4588 71.6027 32.6662 71.6135 32.9189C71.6309 33.168 71.5606 33.4614 71.4028 33.7989L70.522 35.7102C70.4772 35.8083 70.416 35.8768 70.3383 35.9155C70.262 35.9491 70.1727 35.9513 70.0701 35.9219C69.9727 35.8939 69.9098 35.8426 69.8813 35.7679C69.8542 35.688 69.8653 35.5913 69.9145 35.4778L70.7799 33.6203C70.9414 33.2894 70.9874 33.0224 70.918 32.8194C70.8501 32.6113 70.6725 32.4661 70.3854 32.3837C70.0112 32.2764 69.6807 32.3065 69.3942 32.4741C69.1076 32.6416 68.8784 32.9087 68.7066 33.2756L67.9227 34.965C67.8317 35.1664 67.681 35.2369 67.4708 35.1767ZM73.1349 36.8172C72.9196 36.7555 72.7311 36.6487 72.5693 36.4969C72.4127 36.3466 72.3022 36.1707 72.2379 35.9691C72.1736 35.7676 72.1724 35.5592 72.2341 35.3439C72.3105 35.0773 72.4433 34.8851 72.6324 34.7673C72.8281 34.6459 73.0934 34.5915 73.4282 34.6043C73.7629 34.6171 74.1764 34.694 74.6686 34.8351L75.2838 35.0115L75.1054 35.4014L74.6363 35.2669C74.2416 35.1538 73.923 35.0846 73.6805 35.0595C73.4432 35.0358 73.2618 35.0587 73.1365 35.1282C73.0111 35.1977 72.9242 35.317 72.8757 35.4862C72.811 35.7118 72.8361 35.9048 72.951 36.0654C73.071 36.2274 73.2284 36.3363 73.4232 36.3922C73.6129 36.4466 73.799 36.4555 73.9814 36.4191C74.169 36.3841 74.342 36.3033 74.5003 36.1767C74.6602 36.045 74.7896 35.874 74.8887 35.6639L75.3038 34.7675C75.4403 34.4849 75.4666 34.2483 75.3825 34.0577C75.3035 33.8687 75.1 33.7271 74.7719 33.633C74.5822 33.5786 74.3976 33.5451 74.2181 33.5325C74.0387 33.5199 73.8504 33.538 73.6533 33.5869C73.5763 33.6037 73.5104 33.6015 73.4555 33.5802C73.4005 33.5589 73.3603 33.5251 73.3347 33.479C73.3106 33.4277 73.3033 33.3756 73.3128 33.3229C73.3224 33.2702 73.3499 33.2226 73.3954 33.1801C73.4409 33.1377 73.5079 33.107 73.5966 33.088C73.8223 33.0362 74.0545 33.0195 74.2933 33.0381C74.5387 33.053 74.7691 33.0913 74.9844 33.153C75.333 33.2529 75.5908 33.399 75.7576 33.5911C75.9311 33.7795 76.0224 34.0026 76.0317 34.2605C76.041 34.5184 75.9745 34.7989 75.8321 35.1021L74.9501 36.9881C74.9105 37.0877 74.8526 37.1543 74.7763 37.1879C74.7053 37.223 74.621 37.2266 74.5236 37.1987C74.4313 37.1722 74.3709 37.1216 74.3424 37.0469C74.319 36.9736 74.3312 36.8827 74.3789 36.7744L74.6575 36.1801L74.697 36.2747C74.5715 36.4606 74.4197 36.603 74.2416 36.7017C74.0701 36.7968 73.8877 36.8527 73.6942 36.8693C73.5008 36.886 73.3144 36.8686 73.1349 36.8172ZM77.7084 38.1118C77.6007 38.0809 77.5235 38.031 77.4767 37.9621C77.4365 37.8895 77.4164 37.795 77.4165 37.6785L77.4602 34.3621C77.4647 34.2691 77.4841 34.1915 77.5186 34.1292C77.5531 34.067 77.6011 34.0253 77.6627 34.0041C77.7257 33.9778 77.7983 33.9764 77.8803 33.9999C77.9674 34.0249 78.0282 34.0645 78.0626 34.1187C78.097 34.173 78.1115 34.2576 78.1063 34.3726L77.9946 37.6362L77.7869 37.5767L80.464 34.9736C80.5322 34.91 80.5937 34.8694 80.6487 34.8518C80.7103 34.8306 80.782 34.8318 80.8641 34.8553C80.9461 34.8788 81.0043 34.9177 81.0387 34.972C81.0797 35.0226 81.0913 35.0786 81.0737 35.1401C81.0612 35.2031 81.0208 35.2665 80.9527 35.3301L78.1734 37.9704C78.0971 38.0429 78.0223 38.0908 77.9491 38.1142C77.8758 38.1375 77.7956 38.1367 77.7084 38.1118ZM82.3455 39.4578C81.9918 39.3564 81.7033 39.2016 81.48 38.9933C81.2568 38.7851 81.1086 38.5373 81.0356 38.2501C80.9692 37.9592 80.9845 37.6445 81.0816 37.3062C81.1977 36.9012 81.3855 36.5555 81.6451 36.2693C81.9062 35.978 82.2141 35.775 82.5687 35.6603C82.9249 35.5405 83.308 35.5394 83.7182 35.6569C84.0104 35.7407 84.2392 35.8618 84.4046 36.0202C84.5752 36.1801 84.6944 36.3641 84.7624 36.5722C84.8303 36.7803 84.8499 37.0023 84.8211 37.2381C84.7938 37.4689 84.7335 37.6985 84.6403 37.927C84.605 38.0112 84.5651 38.0635 84.5204 38.084C84.4771 38.0994 84.417 38.096 84.3401 38.074L81.6101 37.2913L81.7885 36.9013L84.3109 37.6245L84.1438 37.6848C84.2488 37.4541 84.3035 37.234 84.3081 37.0245C84.3127 36.815 84.2576 36.63 84.1427 36.4694C84.0278 36.3089 83.8397 36.1911 83.5782 36.1162C83.3014 36.0368 83.0523 36.0347 82.831 36.11C82.6111 36.1801 82.4194 36.2972 82.2559 36.4611C82.0975 36.6265 81.9703 36.8092 81.8741 37.0091L81.7904 37.1848C81.5937 37.6 81.5597 37.9703 81.6883 38.2957C81.817 38.6211 82.0941 38.8448 82.5196 38.9668C82.7041 39.0197 82.8902 39.0481 83.0777 39.0519C83.2653 39.0558 83.4506 39.0285 83.6338 38.97C83.7188 38.9444 83.7863 38.9416 83.836 38.9614C83.8924 38.9776 83.9309 39.008 83.9513 39.0527C83.9784 39.0938 83.9872 39.1407 83.9776 39.1934C83.9746 39.2425 83.9522 39.2915 83.9104 39.3406C83.8752 39.386 83.8202 39.4229 83.7455 39.4514C83.5359 39.5245 83.3036 39.5605 83.0487 39.5596C82.7952 39.5535 82.5608 39.5196 82.3455 39.4578Z" fill="black"/>
  <g filter="url(#filter2_d_0_1)">
    <rect x="19.502" y="54.7179" width="52.1489" height="15" transform="rotate(-3.02332 19.502 54.7179)" fill="white"/>
  </g>
  <path d="M29.5375 64.7497C29.17 64.7691 28.8468 64.7167 28.5678 64.5926C28.2889 64.4685 28.0681 64.2825 27.9055 64.0348C27.7479 63.7814 27.6598 63.4789 27.6413 63.1274C27.619 62.7067 27.684 62.3187 27.8362 61.9635C27.988 61.603 28.2129 61.3107 28.5108 61.0867C28.8085 60.8574 29.1704 60.7314 29.5964 60.7089C29.9 60.6929 30.1558 60.7328 30.3638 60.8286C30.5771 60.9242 30.7498 61.0593 30.8819 61.2339C31.014 61.4085 31.1048 61.612 31.1545 61.8443C31.2039 62.0714 31.2217 62.3081 31.208 62.5545C31.2021 62.6456 31.1814 62.7081 31.1458 62.7421C31.1099 62.7706 31.0521 62.7871 30.9722 62.7913L28.1361 62.9411L28.1777 62.5143L30.798 62.3759L30.6597 62.4873C30.6838 62.235 30.6638 62.0091 30.5999 61.8095C30.5359 61.61 30.4235 61.453 30.2626 61.3387C30.1017 61.2243 29.8854 61.1743 29.6138 61.1887C29.3262 61.2039 29.09 61.2831 28.9053 61.4264C28.7203 61.5643 28.5773 61.7375 28.4761 61.9457C28.3803 62.1538 28.3195 62.3679 28.2937 62.5883L28.2719 62.7817C28.2213 63.2383 28.3098 63.5995 28.5374 63.8652C28.7651 64.1309 29.0999 64.2521 29.542 64.2287C29.7337 64.2186 29.9189 64.1848 30.0974 64.1273C30.276 64.0698 30.4423 63.9835 30.5965 63.8686C30.6685 63.8167 30.7313 63.792 30.7848 63.7946C30.8434 63.7915 30.8897 63.8077 30.9236 63.8433C30.9626 63.8733 30.9861 63.9148 30.9943 63.9677C31.0074 64.0151 31.0023 64.0688 30.9787 64.1288C30.9602 64.1832 30.9203 64.236 30.8589 64.2873C30.6846 64.4247 30.4768 64.5345 30.2354 64.6167C29.9938 64.6935 29.7612 64.7379 29.5375 64.7497ZM33.4918 64.5408C33.1136 64.5608 32.8308 64.4636 32.6432 64.2492C32.4554 64.0294 32.3844 63.6967 32.4303 63.251L32.8689 59.1181C32.8792 59.0108 32.9123 58.9289 32.9681 58.8726C33.0292 58.8159 33.113 58.7848 33.2195 58.7792C33.3207 58.7738 33.3971 58.8045 33.4487 58.8712C33.5 58.9326 33.5182 59.0251 33.5034 59.1487L33.0774 63.2168C33.0443 63.5016 33.0763 63.7029 33.1733 63.8206C33.2704 63.9383 33.4254 63.9916 33.6384 63.9803C33.713 63.9764 33.7688 63.9708 33.8058 63.9635C33.8478 63.9506 33.8821 63.9434 33.9088 63.942C33.9514 63.9397 33.984 63.9514 34.0067 63.9769C34.0295 64.0024 34.0428 64.0524 34.0467 64.127C34.0521 64.2282 34.0323 64.3093 33.9875 64.3704C33.9424 64.4262 33.8831 64.4667 33.8096 64.492C33.7673 64.4996 33.7143 64.5077 33.6507 64.5164C33.5927 64.5302 33.5397 64.5383 33.4918 64.5408ZM36.333 64.3908C36.1093 64.4026 35.8963 64.3631 35.6939 64.2723C35.4968 64.1812 35.335 64.0509 35.2086 63.8814C35.0821 63.7118 35.013 63.5152 35.0012 63.2915C34.9865 63.0145 35.0494 62.7896 35.1898 62.6166C35.3353 62.438 35.5683 62.3002 35.889 62.2031C36.2097 62.1061 36.6256 62.0441 37.1369 62.0171L37.776 61.9833L37.7345 62.4101L37.2472 62.4358C36.8371 62.4575 36.5133 62.4959 36.2759 62.5512C36.0438 62.6062 35.8798 62.687 35.784 62.7935C35.6881 62.9 35.6449 63.0412 35.6541 63.2169C35.6665 63.4513 35.7532 63.6256 35.9141 63.7399C36.0803 63.854 36.2647 63.9057 36.467 63.895C36.6641 63.8846 36.8429 63.8324 37.0035 63.7385C37.1695 63.6443 37.3066 63.5115 37.4151 63.3402C37.5233 63.1636 37.5899 62.9598 37.6151 62.7288L37.7154 61.7462C37.7524 61.4345 37.7001 61.2022 37.5585 61.0495C37.4222 60.8964 37.1837 60.8289 36.8428 60.8469C36.6457 60.8573 36.4603 60.8858 36.2865 60.9324C36.1127 60.979 35.9406 61.0575 35.7702 61.168C35.703 61.2089 35.6399 61.2282 35.581 61.226C35.5222 61.2238 35.4731 61.205 35.4339 61.1697C35.3943 61.1291 35.3705 61.0823 35.3624 61.0293C35.3542 60.9763 35.3647 60.9223 35.3939 60.8674C35.423 60.8124 35.4764 60.7616 35.554 60.7147C35.7505 60.5922 35.9646 60.5008 36.1965 60.4405C36.4333 60.3745 36.6636 60.3357 36.8873 60.3239C37.2494 60.3047 37.5407 60.3588 37.761 60.486C37.9864 60.6076 38.1455 60.7888 38.2384 61.0296C38.3312 61.2704 38.3597 61.5573 38.3239 61.8903L38.1048 63.9607C38.0998 64.0678 38.0667 64.1497 38.0056 64.2063C37.9498 64.2626 37.8713 64.2935 37.7701 64.2988C37.6743 64.3039 37.6007 64.2757 37.5494 64.2144C37.5034 64.1527 37.4853 64.0629 37.4951 63.9448L37.5648 63.2923L37.6329 63.3688C37.5749 63.5855 37.4778 63.7695 37.3416 63.9209C37.2105 64.0667 37.0562 64.179 36.8787 64.2578C36.7013 64.3366 36.5194 64.3809 36.333 64.3908ZM41.7097 64.1068C41.4008 64.1231 41.1198 64.0605 40.8666 63.919C40.6132 63.7722 40.4328 63.5413 40.3253 63.2266L40.3842 63.1273L40.3175 63.8358C40.3071 63.9432 40.2742 64.0277 40.2187 64.0894C40.1629 64.1458 40.0818 64.1767 39.9753 64.1824C39.8741 64.1877 39.7978 64.1597 39.7465 64.0983C39.6949 64.0316 39.6739 63.9366 39.6834 63.8132L40.2165 58.7381C40.2265 58.6254 40.2621 58.5407 40.3232 58.4841C40.3843 58.4275 40.4654 58.3965 40.5666 58.3911C40.6678 58.3858 40.7442 58.4165 40.7958 58.4832C40.8471 58.5445 40.868 58.6369 40.8585 58.7602L40.6176 61.0241L40.5297 61.0287C40.6535 60.7445 40.8364 60.5158 41.0783 60.3428C41.3255 60.1696 41.6142 60.0742 41.9444 60.0568C42.248 60.0407 42.5151 60.0934 42.7459 60.2147C42.9819 60.3358 43.1678 60.5182 43.3035 60.7621C43.4392 61.0059 43.5161 61.2983 43.5341 61.6391C43.5566 62.0652 43.5002 62.4634 43.3648 62.8337C43.2346 63.1984 43.0287 63.4977 42.7473 63.7315C42.471 63.9598 42.1251 64.0848 41.7097 64.1068ZM41.6024 63.5917C41.9006 63.576 42.1466 63.4802 42.3402 63.3044C42.5339 63.1286 42.6767 62.8994 42.7686 62.6169C42.8605 62.3343 42.8977 62.0279 42.8803 61.6977C42.86 61.3142 42.7515 61.0289 42.5547 60.8417C42.3578 60.6545 42.097 60.5694 41.7721 60.5866C41.4792 60.6021 41.2332 60.6978 41.0342 60.8739C40.8406 61.0497 40.6977 61.2762 40.6055 61.5535C40.5133 61.8307 40.4762 62.1398 40.4942 62.4806C40.5142 62.8588 40.6227 63.1441 40.8198 63.3366C41.0166 63.5239 41.2775 63.6089 41.6024 63.5917ZM46.4212 63.8579C46.075 63.8762 45.7704 63.8229 45.5075 63.6979C45.2498 63.5727 45.045 63.3859 44.8931 63.1375C44.7464 62.8889 44.6638 62.5889 44.6452 62.2374C44.6278 61.9071 44.6597 61.601 44.7409 61.319C44.8272 61.0314 44.9553 60.7763 45.1251 60.5537C45.2949 60.3311 45.4994 60.1574 45.7385 60.0326C45.9826 59.9022 46.2618 59.8287 46.576 59.8121C46.9222 59.7939 47.2241 59.8473 47.4817 59.9726C47.7447 60.0976 47.9495 60.2844 48.0961 60.533C48.2425 60.7763 48.3251 61.0763 48.344 61.4332C48.3614 61.7634 48.3297 62.0721 48.2487 62.3595C48.1675 62.6415 48.0419 62.8938 47.8721 63.1164C47.702 63.3337 47.4949 63.5075 47.2507 63.6379C47.0066 63.7683 46.7301 63.8416 46.4212 63.8579ZM46.4177 63.3374C46.7107 63.3219 46.9539 63.2263 47.1476 63.0505C47.3466 62.8744 47.4894 62.6453 47.5759 62.363C47.6678 62.0804 47.7051 61.774 47.6876 61.4438C47.6674 61.0603 47.5588 60.775 47.362 60.5878C47.1705 60.4003 46.9097 60.3152 46.5795 60.3327C46.2866 60.3482 46.0406 60.4439 45.8416 60.62C45.6479 60.7958 45.505 61.0223 45.4128 61.2996C45.3207 61.5768 45.2836 61.8859 45.3016 62.2267C45.3216 62.6049 45.4301 62.8902 45.6272 63.0827C45.824 63.27 46.0875 63.3548 46.4177 63.3374ZM49.8109 63.6629C49.7097 63.6682 49.6335 63.6402 49.5822 63.5788C49.5362 63.5172 49.518 63.4247 49.5275 63.3013L49.8721 59.9665C49.8877 59.8589 49.9236 59.7795 49.9797 59.7285C50.0408 59.6719 50.1219 59.6409 50.2231 59.6355C50.319 59.6305 50.3925 59.6586 50.4439 59.72C50.4952 59.7814 50.5159 59.8711 50.5061 59.9891L50.4428 60.6093L50.3549 60.614C50.4498 60.2885 50.6233 60.0337 50.8753 59.8494C51.1326 59.665 51.426 59.5587 51.7557 59.5306C51.8726 59.5191 51.9533 59.5308 51.9979 59.5658C52.0422 59.5955 52.0666 59.653 52.0711 59.7382C52.077 59.8501 52.0547 59.934 52.0043 59.9901C51.9535 60.0408 51.87 60.0773 51.7537 60.0995L51.5943 60.1159C51.1702 60.1757 50.8707 60.3197 50.6959 60.5479C50.521 60.7761 50.4137 61.0702 50.3739 61.4301L50.1699 63.3315C50.1646 63.4332 50.1314 63.5124 50.0703 63.5691C50.0092 63.6257 49.9228 63.657 49.8109 63.6629ZM53.9841 63.4585C53.7604 63.4703 53.5473 63.4308 53.3449 63.34C53.1479 63.249 52.9861 63.1187 52.8596 62.9491C52.7332 62.7795 52.6641 62.5829 52.6522 62.3592C52.6376 62.0823 52.7005 61.8573 52.8409 61.6843C52.9864 61.5057 53.2194 61.3679 53.5401 61.2709C53.8607 61.1738 54.2767 61.1118 54.788 61.0848L55.4271 61.051L55.3856 61.4778L54.8982 61.5036C54.4882 61.5252 54.1644 61.5637 53.927 61.619C53.6949 61.6739 53.5309 61.7547 53.4351 61.8612C53.3392 61.9678 53.2959 62.1089 53.3052 62.2847C53.3176 62.519 53.4043 62.6934 53.5652 62.8077C53.7314 62.9217 53.9157 62.9734 54.1181 62.9627C54.3152 62.9523 54.494 62.9002 54.6546 62.8062C54.8205 62.712 54.9577 62.5793 55.0662 62.408C55.1743 62.2314 55.241 62.0276 55.2662 61.7966L55.3665 60.8139C55.4035 60.5022 55.3511 60.27 55.2096 60.1172C55.0733 59.9642 54.8347 59.8967 54.4939 59.9147C54.2968 59.9251 54.1114 59.9536 53.9376 60.0001C53.7638 60.0467 53.5917 60.1252 53.4213 60.2357C53.3541 60.2766 53.291 60.296 53.2321 60.2938C53.1733 60.2915 53.1242 60.2728 53.0849 60.2374C53.0454 60.1968 53.0216 60.15 53.0134 60.097C53.0053 60.044 53.0158 59.9901 53.0449 59.9351C53.0741 59.8802 53.1275 59.8293 53.2051 59.7825C53.4016 59.6599 53.6157 59.5685 53.8475 59.5082C54.0844 59.4423 54.3147 59.4034 54.5384 59.3916C54.9005 59.3725 55.1918 59.4265 55.4121 59.5537C55.6375 59.6754 55.7966 59.8566 55.8895 60.0973C55.9823 60.3381 56.0108 60.625 55.975 60.958L55.7559 63.0285C55.7508 63.1355 55.7178 63.2174 55.6567 63.274C55.6009 63.3304 55.5224 63.3612 55.4212 63.3666C55.3254 63.3716 55.2518 63.3435 55.2005 63.2821C55.1545 63.2204 55.1364 63.1306 55.1462 63.0126L55.2159 62.36L55.284 62.4365C55.226 62.6532 55.1289 62.8373 54.9927 62.9887C54.8615 63.1344 54.7073 63.2467 54.5298 63.3255C54.3524 63.4043 54.1705 63.4487 53.9841 63.4585ZM58.9054 63.1986C58.6018 63.2146 58.3484 63.1692 58.1452 63.0625C57.9473 62.9554 57.8029 62.8002 57.712 62.5967C57.6265 62.3929 57.5974 62.1461 57.6248 61.8563L57.8444 59.7938L57.349 59.82C57.2585 59.8247 57.1856 59.8099 57.1304 59.7754C57.0805 59.7407 57.0537 59.6887 57.0501 59.6195C57.045 59.5236 57.0732 59.45 57.1345 59.3987C57.1959 59.3474 57.2772 59.3191 57.3784 59.3137L57.8977 59.2863L57.9917 58.336C58.0076 58.2337 58.0436 58.157 58.0997 58.106C58.1555 58.0496 58.2339 58.0188 58.3351 58.0134C58.4417 58.0078 58.5206 58.0357 58.5719 58.0971C58.6232 58.1584 58.6439 58.2481 58.6342 58.3662L58.5448 59.2521L59.5034 59.2015C59.5993 59.1964 59.672 59.2086 59.7217 59.238C59.7713 59.2674 59.7981 59.3194 59.802 59.394C59.8068 59.4845 59.7813 59.558 59.7255 59.6143C59.6751 59.6704 59.5992 59.7011 59.4981 59.7065L58.4835 59.76L58.2765 61.7577C58.2458 62.0852 58.2928 62.3177 58.4175 62.4553C58.5423 62.5929 58.7298 62.6551 58.9802 62.6419C59.092 62.636 59.1793 62.6207 59.2421 62.596C59.3049 62.5713 59.3576 62.5578 59.4002 62.5556C59.4534 62.5528 59.4942 62.5666 59.5226 62.5972C59.5506 62.6224 59.5666 62.6723 59.5705 62.7469C59.5761 62.8534 59.5616 62.9316 59.5268 62.9815C59.4974 63.0311 59.4488 63.0711 59.3809 63.1014C59.3235 63.1258 59.2471 63.1458 59.1518 63.1615C59.0621 63.1823 58.98 63.1946 58.9054 63.1986ZM62.2885 63.0199C61.921 63.0393 61.5978 62.9869 61.3189 62.8628C61.0399 62.7387 60.8192 62.5527 60.6565 62.305C60.4989 62.0516 60.4109 61.7492 60.3923 61.3976C60.3701 60.9769 60.435 60.5889 60.5872 60.2338C60.7391 59.8732 60.964 59.581 61.2619 59.3569C61.5595 59.1276 61.9214 59.0017 62.3475 58.9792C62.651 58.9631 62.9068 59.003 63.1149 59.0989C63.3282 59.1944 63.5009 59.3295 63.6329 59.5041C63.765 59.6787 63.8559 59.8822 63.9055 60.1146C63.9549 60.3416 63.9727 60.5783 63.9591 60.8247C63.9532 60.9158 63.9325 60.9783 63.8969 61.0123C63.861 61.0409 63.8031 61.0573 63.7232 61.0615L60.8872 61.2113L60.9287 60.7845L63.5491 60.6461L63.4107 60.7576C63.4348 60.5053 63.4149 60.2793 63.3509 60.0798C63.287 59.8802 63.1745 59.7232 63.0136 59.6089C62.8527 59.4946 62.6364 59.4446 62.3648 59.4589C62.0772 59.4741 61.8411 59.5533 61.6563 59.6966C61.4714 59.8346 61.3283 60.0077 61.2271 60.216C61.1313 60.424 61.0705 60.6382 61.0448 60.8585L61.0229 61.0519C60.9723 61.5085 61.0608 61.8697 61.2885 62.1354C61.5161 62.4011 61.851 62.5223 62.293 62.4989C62.4848 62.4888 62.6699 62.455 62.8485 62.3975C63.027 62.34 63.1934 62.2538 63.3475 62.1388C63.4195 62.0869 63.4823 62.0623 63.5359 62.0648C63.5945 62.0617 63.6407 62.0779 63.6746 62.1135C63.7136 62.1435 63.7372 62.185 63.7453 62.238C63.7585 62.2853 63.7533 62.339 63.7298 62.399C63.7113 62.4534 63.6713 62.5062 63.61 62.5576C63.4356 62.6949 63.2278 62.8047 62.9865 62.8869C62.7448 62.9638 62.5122 63.0081 62.2885 63.0199Z" fill="black"/>
  <circle cx="94" cy="77.3436" r="17" fill="#F72585"/>
  <path fill-rule="evenodd" clip-rule="evenodd" d="M101.934 79.4523C101.859 78.7372 101.543 75.5647 101.42 74.4393C101.253 72.9147 99.9864 71.771 98.4654 71.7698C97.7552 71.7693 97.1207 71.9972 96.5663 72.4453C96.5132 72.4882 96.4386 72.5445 96.3822 72.5369C95.9103 72.4702 95.4403 72.3897 94.9515 72.3105V71.5934C94.9515 71.5934 94.9444 71.3436 94.6705 71.3436H93.2944C93.0203 71.3436 93.0134 71.5934 93.0134 71.5934V72.3105C92.5246 72.3896 92.0544 72.47 91.5827 72.5369C91.5263 72.5445 91.4516 72.4881 91.3986 72.4453C90.8443 71.9972 90.2097 71.7693 89.4994 71.7698C87.9784 71.771 86.712 72.9146 86.5449 74.4393C86.4218 75.565 86.1057 78.7374 86.0304 79.4523C85.919 80.509 86.0577 81.9331 87.4079 82.2566C88.6626 82.5574 89.7587 82.0569 90.4488 81.0839C90.8695 80.4906 91.3305 79.9256 91.7803 79.3529C91.8231 79.2982 91.9136 79.2512 91.9823 79.2508H95.9824C96.0512 79.2512 96.1417 79.2982 96.1847 79.3529C96.6344 79.9256 97.0953 80.4906 97.5161 81.0839C98.2062 82.0571 99.3023 82.5574 100.557 82.2566C101.907 81.9331 102.046 80.509 101.934 79.4523ZM91.7843 76.7183C91.7843 76.7934 91.7234 76.8543 91.6482 76.8543H90.6279V77.8747C90.6279 77.9498 90.5668 78.0106 90.4918 78.0106H89.7661C89.691 78.0106 89.63 77.9498 89.63 77.8747V76.8543H88.6097C88.5345 76.8543 88.4736 76.7932 88.4736 76.7183V75.9926C88.4736 75.9175 88.5345 75.8565 88.6097 75.8565H89.63V74.8361C89.63 74.761 89.6911 74.7002 89.7661 74.7002H90.4918C90.5669 74.7002 90.6279 74.7611 90.6279 74.8361V75.8565H91.6482C91.7234 75.8565 91.7843 75.9176 91.7843 75.9926V76.7183ZM97.1776 76.6858C97.1776 76.773 97.12 76.8438 97.0485 76.8438H96.3298C96.2585 76.8438 96.2007 76.7731 96.2007 76.6858L96.2008 76.0248C96.2008 75.9376 96.2583 75.8668 96.3299 75.8668H97.0486C97.1199 75.8668 97.1777 75.9375 97.1777 76.0248L97.1776 76.6858ZM98.5108 78.0478C98.5108 78.1191 98.4402 78.1769 98.3528 78.1769H97.6916C97.6044 78.1769 97.5337 78.1193 97.5337 78.0478L97.5338 77.329C97.5338 77.2576 97.6044 77.1998 97.6917 77.1998H98.353C98.4402 77.1998 98.5109 77.2574 98.5109 77.329L98.5108 78.0478ZM98.5108 75.3817C98.5108 75.453 98.4402 75.5108 98.3528 75.5108H97.6916C97.6044 75.5108 97.5337 75.4532 97.5337 75.3817V74.663C97.5337 74.5916 97.6043 74.5338 97.6916 74.5338H98.3528C98.4401 74.5338 98.5108 74.5914 98.5108 74.663V75.3817ZM99.8438 76.6858C99.8438 76.773 99.7863 76.8438 99.7147 76.8438H98.996C98.9245 76.8438 98.8669 76.7731 98.8669 76.6858V76.0248C98.8669 75.9376 98.9245 75.8668 98.996 75.8668H99.7147C99.7861 75.8668 99.8438 75.9376 99.8438 76.0248V76.6858Z" fill="white"/>
  <defs>
    <filter id="filter0_d_0_1" x="7" y="7.34363" width="43.4697" height="32.2084" filterUnits="userSpaceOnUse" color-interpolation-filters="sRGB">
      <feFlood flood-opacity="0" result="BackgroundImageFix"/>
      <feColorMatrix in="SourceAlpha" type="matrix" values="0 0 0 0 0 0 0 0 0 0 0 0 0 0 0 0 0 0 127 0" result="hardAlpha"/>
      <feOffset/>
      <feGaussianBlur stdDeviation="3"/>
      <feComposite in2="hardAlpha" operator="out"/>
      <feColorMatrix type="matrix" values="0 0 0 0 0 0 0 0 0 0 0 0 0 0 0 0 0 0 0.15 0"/>
      <feBlend mode="normal" in2="BackgroundImageFix" result="effect1_dropShadow_0_1"/>
      <feBlend mode="normal" in="SourceGraphic" in2="effect1_dropShadow_0_1" result="shape"/>
    </filter>
    <filter id="filter1_d_0_1" x="50" y="17.3436" width="53.1396" height="35.264" filterUnits="userSpaceOnUse" color-interpolation-filters="sRGB">
      <feFlood flood-opacity="0" result="BackgroundImageFix"/>
      <feColorMatrix in="SourceAlpha" type="matrix" values="0 0 0 0 0 0 0 0 0 0 0 0 0 0 0 0 0 0 127 0" result="hardAlpha"/>
      <feOffset/>
      <feGaussianBlur stdDeviation="3"/>
      <feComposite in2="hardAlpha" operator="out"/>
      <feColorMatrix type="matrix" values="0 0 0 0 0 0 0 0 0 0 0 0 0 0 0 0 0 0 0.15 0"/>
      <feBlend mode="normal" in2="BackgroundImageFix" result="effect1_dropShadow_0_1"/>
      <feBlend mode="normal" in="SourceGraphic" in2="effect1_dropShadow_0_1" result="shape"/>
    </filter>
    <filter id="filter2_d_0_1" x="13.502" y="45.9674" width="64.8672" height="29.7296" filterUnits="userSpaceOnUse" color-interpolation-filters="sRGB">
      <feFlood flood-opacity="0" result="BackgroundImageFix"/>
      <feColorMatrix in="SourceAlpha" type="matrix" values="0 0 0 0 0 0 0 0 0 0 0 0 0 0 0 0 0 0 127 0" result="hardAlpha"/>
      <feOffset/>
      <feGaussianBlur stdDeviation="3"/>
      <feComposite in2="hardAlpha" operator="out"/>
      <feColorMatrix type="matrix" values="0 0 0 0 0 0 0 0 0 0 0 0 0 0 0 0 0 0 0.15 0"/>
      <feBlend mode="normal" in2="BackgroundImageFix" result="effect1_dropShadow_0_1"/>
      <feBlend mode="normal" in="SourceGraphic" in2="effect1_dropShadow_0_1" result="shape"/>
    </filter>
  </defs>
</svg>