<svg width="69" height="167" viewBox="0 0 69 167" fill="none" xmlns="http://www.w3.org/2000/svg">
<g clip-path="url(#clip0_461_2989)">
<path d="M51.4144 80.4176C54.0206 77.1367 53.974 72.2102 54.2537 68.2515C54.5853 63.5682 55.7045 58.9833 57.0258 54.4915C58.0776 50.9053 59.1035 47.2984 60.1294 43.707C60.3833 42.8066 60.6423 41.9113 60.8962 41.0161C61.1708 39.8879 61.4714 38.7702 61.7822 37.6627C62.0983 36.5553 62.7926 35.0287 63.1294 33.9368C66.1553 24.9067 68.4765 15.7626 67.9843 5.6561C67.8755 4.53316 67.689 3.42573 67.4144 2.34418L67.404 2.31313C67.0206 0.82794 65.0724 0.450174 64.1708 1.69215C64.1035 1.78529 64.0361 1.87844 63.9688 1.97159C57.7563 11.7159 57.6786 24.1097 53.347 34.6044C53.0258 35.6859 52.689 36.7675 52.3211 37.8387C51.9532 38.9099 51.5594 39.9707 51.1346 41.0212C50.8133 41.9682 50.4765 42.8997 50.1242 43.826C48.3677 48.4575 46.233 52.8303 43.6579 57.2341C40.0931 63.3302 36.4869 69.452 31.9999 74.9271C29.9843 77.3851 24.5594 82.6221 22.8859 76.9401C21.2071 71.2322 21.233 64.7998 20.5232 58.9108C20.29 56.9858 20.0517 55.0659 19.8081 53.146C19.6009 51.5521 19.5543 50.0048 18.347 48.7939C17.575 48.0229 16.2227 47.1638 15.0776 47.3139C13.7667 47.4898 13.4247 48.5559 12.974 49.6529C11.2019 53.9533 11.1864 58.6158 10.8962 63.1801C10.5853 68.0134 9.49209 72.7484 8.44027 77.4628C7.58535 81.2973 2.43509 97.4688 2.43509 97.4688C-3.46128 113.506 9.91696 151.924 11.4299 163.242C11.6268 164.706 12.9221 165.777 14.3988 165.684C22.9843 165.13 31.2797 163.35 39.7149 162.646C40.4195 162.553 41.1294 162.455 41.8444 162.362C43.8081 162.098 45.0931 160.157 44.5491 158.258C44.29 157.353 44.0154 156.452 43.7304 155.557C40.4247 143.282 30.8859 128.818 38.6009 116.916C39.7926 115.441 40.9688 113.992 42.1449 112.548C45.6682 108.217 49.1449 103.912 53.1035 99.3111C57.3988 94.0276 60.974 88.2938 61.233 81.494C63.0102 69.3382 59.6268 54.7192 60.575 42.1183" stroke="#7209B7" stroke-width="2" stroke-linecap="round" stroke-linejoin="round"/>
<path d="M57.2641 21.0048C56.4765 18.5726 57.9428 12.4921 54.404 12.0005C53.2848 12.0936 51.9998 12.8802 51.404 13.8324C48.518 19.7059 48.8029 38.263 48.5439 39.329C48.4765 40.7211 48.3573 42.1183 48.2485 43.5155C48.1397 44.9127 48.0672 47.3863 48.062 48.7887" stroke="#7209B7" stroke-width="2" stroke-linecap="round" stroke-linejoin="round"/>
<path d="M49.6375 18.7796C47.0676 16.1715 44.0313 18.6192 43.28 21.7242C42.6116 24.4824 42.6323 27.4113 42.4769 30.3766C42.4665 31.3805 42.4354 32.3792 42.3474 33.3728C42.2593 34.3664 42.1142 35.3496 41.8655 36.3173C41.7152 37.0884 41.5701 37.8543 41.4406 38.6201C41.3111 39.386 41.1919 40.1467 41.1038 40.8971C40.5339 45.689 40.0935 50.4085 39.9277 55.2263C39.824 58.3106 39.1194 61.3586 39.1401 64.4376" stroke="#7209B7" stroke-width="2" stroke-linecap="round" stroke-linejoin="round"/>
<path d="M42.0469 35.0288C41.4562 34.6407 40.5857 35.0029 39.7619 35.5463C38.0365 36.6848 37.5961 42.0304 37.7412 44.5868C37.9691 48.7008 35.8862 68.2153 36.1816 69.3331" stroke="#7209B7" stroke-width="2" stroke-linecap="round" stroke-linejoin="round"/>
</g>
<defs>
<clipPath id="clip0_461_2989">
<rect width="69" height="166.642" fill="white"/>
</clipPath>
</defs>
</svg>
