<svg width="33" height="32" viewBox="0 0 33 32" fill="none" xmlns="http://www.w3.org/2000/svg">
<path d="M7.45446 29.9749L6.73692 30.6714C7.02052 30.9635 7.45294 31.0546 7.83027 30.9016C8.20759 30.7485 8.45446 30.382 8.45446 29.9749H7.45446ZM1.71458 24.0617L2.43212 23.3652L1.71458 24.0617ZM1.71458 20.5084L0.99704 19.8119L1.71458 20.5084ZM19.9368 1.73615L20.6543 2.43267L19.9368 1.73615ZM23.386 1.73615L22.6685 2.43267L23.386 1.73615ZM30.2912 8.84969L31.0087 8.15318L30.2912 8.84969ZM30.2912 12.403L31.0087 13.0996L30.2912 12.403ZM13.2375 29.9714V30.9714H13.6604L13.955 30.668L13.2375 29.9714ZM7.45446 29.9714V28.9714H6.45446V29.9714H7.45446ZM8.172 29.2783L2.43212 23.3652L0.99704 24.7582L6.73692 30.6714L8.172 29.2783ZM2.43212 23.3652C1.85596 22.7717 1.85596 21.7984 2.43212 21.2049L0.99704 19.8119C-0.332347 21.1814 -0.332347 23.3887 0.99704 24.7582L2.43212 23.3652ZM2.43212 21.2049L20.6543 2.43267L19.2193 1.03963L0.99704 19.8119L2.43212 21.2049ZM20.6543 2.43267C21.2143 1.85578 22.1085 1.85578 22.6685 2.43267L24.1036 1.03963C22.758 -0.346544 20.5648 -0.346544 19.2193 1.03963L20.6543 2.43267ZM22.6685 2.43267L29.5736 9.54621L31.0087 8.15318L24.1036 1.03963L22.6685 2.43267ZM29.5736 9.54621C30.1498 10.1398 30.1498 11.113 29.5736 11.7065L31.0087 13.0996C32.3381 11.73 32.3381 9.52269 31.0087 8.15318L29.5736 9.54621ZM29.5736 11.7065L12.52 29.2749L13.955 30.668L31.0087 13.0996L29.5736 11.7065ZM13.2375 28.9714H7.45446V30.9714H13.2375V28.9714ZM6.45446 29.9714V29.9749H8.45446V29.9714H6.45446Z" fill="#525252"/>
<path d="M10.8271 11.124L21.1815 21.7909" stroke="#525252" stroke-width="2" stroke-miterlimit="10"/>
<path d="M7 30.4878H27.4797" stroke="#525252" stroke-width="2" stroke-miterlimit="10"/>
</svg>
