<svg width="33" height="38" viewBox="0 0 33 38" fill="none" xmlns="http://www.w3.org/2000/svg">
<g clip-path="url(#clip0_612_3751)">
<path d="M15.9974 19.3345C14.8123 18.4488 13.5534 18.0176 12.0475 17.9129C10.8808 18.0616 9.34884 18.7011 8.37003 20.0108C7.39121 21.3206 7.72068 23.3511 7.87962 25.2542C8.20839 27.2857 8.36733 29.1887 7.60582 30.915C9.90892 31.3614 12.6093 30.5731 14.7532 29.1148C15.8251 28.3856 16.7284 27.5305 17.4622 26.5486C18.196 25.5668 18.469 24.4961 18.4507 23.4618C18.6767 22.1005 17.8595 20.7246 15.9971 19.3328L15.9974 19.3345ZM12.9325 16.0234L23.7245 3.34665C24.0913 2.85571 24.6739 2.78146 25.013 3.0349L28.9064 5.94449C29.2446 6.19722 29.3394 6.77765 28.9725 7.26858L19.9949 21.0458C20.4279 21.8789 20.4462 22.9133 20.4175 23.6569C20.3601 25.1442 19.9645 26.3788 18.9864 27.6877C18.1301 28.8335 17.105 29.8517 15.9105 30.7448C12.8162 32.7675 8.95079 33.7044 5.75402 32.336L5.58445 32.2093C5.24627 31.9566 5.15149 31.3762 5.51838 30.8852C6.4965 29.5764 6.29025 27.381 5.96174 25.3512C5.7548 23.1567 5.50177 20.6723 6.84747 18.8716C8.31501 16.9078 10.1391 16.2312 12.0579 16.1349L12.9325 16.0234ZM18.6674 19.29L26.8354 6.94764L24.6358 5.30384L15.1131 16.6338C15.7434 16.8493 16.5425 17.1925 17.2189 17.6979C17.8953 18.2034 18.2814 18.7475 18.6664 19.2892L18.6674 19.29Z" fill="#525252"/>
</g>
<defs>
<clipPath id="clip0_612_3751">
<rect width="15" height="35" fill="white" transform="translate(12.0156 37.0154) rotate(-143.229)"/>
</clipPath>
</defs>
</svg>
