<svg width="80" height="25" viewBox="0 0 80 25" fill="none" xmlns="http://www.w3.org/2000/svg">
<g clip-path="url(#clip0_769_4475)">
<path d="M40.0661 4.88359C40.1553 4.79248 40.2353 4.74693 40.2599 4.67938C40.5906 3.78714 40.9628 3.21692 41.5088 2.61529C42.2379 1.81259 43.0638 1.17797 44.0728 0.780542C44.7926 0.496219 45.5201 0.295151 46.2814 0.147492C47.0104 0.00611563 47.7287 0.0438159 48.4516 0.0155407C49.319 -0.0190179 50.1311 0.246455 50.9647 0.442811C52.0737 0.705142 53.0765 1.17797 54.0578 1.73562C55.2005 2.38752 56.2695 3.13995 57.3215 3.93951C58.898 5.13807 60.2115 6.60681 61.565 8.02842C62.1925 8.68661 62.7431 9.43904 63.2845 10.1899C63.789 10.8905 64.4165 11.5016 65.0102 12.133C65.9915 13.1761 67.1265 14.0338 68.2862 14.8553C68.5908 15.0705 70.8302 16.1733 71.1285 16.1764C71.8545 16.1858 72.562 16.4796 73.291 16.3429C73.6648 16.2738 74.037 16.167 74.3923 16.0303C75.5443 15.5873 76.6286 15.025 77.5683 14.1877C78.119 13.6976 78.6158 13.1902 78.9311 12.4975C79.0141 12.3137 79.3094 12.1912 79.5324 12.1268C79.6616 12.0891 79.8385 12.2226 79.9339 12.2571C80.1215 12.9703 79.8631 13.5625 79.6278 14.073C79.1202 15.1758 78.5589 16.2565 77.8221 17.2414C77.1223 18.1761 76.2872 18.9709 75.4551 19.7564C74.7506 20.4224 73.9339 20.9769 73.0726 21.4419C72.462 21.7717 71.8822 22.1676 71.2577 22.4676C70.2288 22.9609 69.1737 23.4023 68.0801 23.729C67.2281 23.9835 66.3867 24.2584 65.4947 24.3872C64.9225 24.4689 64.3427 24.5788 63.7813 24.7092C63.2891 24.8239 62.7862 24.7234 62.3217 24.8899C61.7987 25.0768 61.2727 24.959 60.7483 24.9857C60.2376 25.0108 59.7239 24.992 59.2118 24.992C58.6996 24.992 58.1859 25.0108 57.6752 24.9857C57.3353 24.9684 57 24.8867 56.6617 24.8349C56.3494 24.7862 56.0003 24.9606 55.7265 24.6778C55.2743 24.7312 54.8422 24.6165 54.4054 24.5239C53.5825 24.3495 52.7673 24.1374 51.9476 23.9568C50.7494 23.6929 49.6405 23.1855 48.5131 22.7472C47.5872 22.3875 46.7259 21.8377 45.8661 21.3193C45.2001 20.9188 44.5942 20.4177 43.9374 20.003C43.3545 19.6354 42.8515 19.161 42.2825 18.7777C41.475 18.2342 40.8967 17.4362 40.1261 16.7623C39.9723 16.9194 39.8324 17.0608 39.6924 17.2022C38.3389 18.5688 36.8086 19.7045 35.2105 20.7476C34.0047 21.5345 32.7466 22.2257 31.4331 22.8069C30.2765 23.319 29.0876 23.7322 27.8663 24.062C27.065 24.2788 26.2637 24.45 25.4408 24.5192C25.0471 24.8129 24.5765 24.6323 24.1474 24.7312C23.689 24.838 23.1999 24.8145 22.7247 24.8302C22.2632 24.8443 21.8018 24.8333 21.3404 24.8333H19.8793C19.4179 24.8333 18.9564 24.8522 18.4966 24.827C18.209 24.8113 17.9259 24.7139 17.6368 24.681C17.3461 24.648 17.0339 24.7438 16.7786 24.5192C16.0526 24.5914 15.3697 24.3181 14.6822 24.1783C13.6809 23.9756 12.6812 23.7149 11.7122 23.363C11.2216 23.1855 10.7417 22.9687 10.2434 22.8164C9.76353 22.6703 9.34364 22.3577 8.83301 22.309C7.97632 21.7309 6.96736 21.4403 6.13066 20.8182C5.86151 20.6187 5.5539 20.3988 5.26628 20.3093C4.81102 20.1663 4.54186 19.8066 4.18657 19.5663C3.60673 19.1736 3.07764 18.6725 2.61315 18.1384C1.60111 16.9728 0.725965 15.7067 0.264551 14.1908C0.244556 14.1233 0.146121 14.0526 0.159964 14.0055C0.255323 13.6568 -0.00153116 13.3756 6.88247e-06 13.0488C0.00308298 12.5776 0.276855 12.2509 0.836705 12.0953C1.03511 12.342 1.27197 12.5713 1.46577 12.8776C2.14712 13.9552 3.0961 14.7281 4.23887 15.27C4.79718 15.5355 5.31242 15.8748 5.92149 16.0539C7.05503 16.3869 7.26728 16.3869 8.42851 16.2141C9.01296 16.1261 9.53436 15.9046 10.085 15.7413C10.8602 15.5104 11.5307 15.1051 12.1844 14.659C13.4364 13.8044 14.5346 12.7661 15.5927 11.6744C16.3295 10.9141 17.017 10.1255 17.543 9.19713C17.5676 9.15315 17.6168 9.12487 17.6491 9.0856C18.6611 7.84935 19.7639 6.69792 20.9221 5.61089C21.8157 4.77363 22.7154 3.92852 23.7136 3.21849C24.3411 2.77237 25.0148 2.39223 25.6746 1.99166C26.0022 1.79374 26.3406 1.61466 26.679 1.43558C26.9958 1.26908 27.3065 1.08372 27.6403 0.964331C28.2909 0.731846 28.943 0.507215 29.609 0.314001C30.7871 -0.0268722 31.9837 -0.0394389 33.1742 0.0391034C33.8109 0.0815162 34.4692 0.178909 35.0859 0.42396C35.3736 0.538632 35.6827 0.548057 35.9795 0.687863C36.8378 1.09471 37.6483 1.57539 38.3558 2.21001C38.8542 2.65613 39.1956 3.24677 39.5247 3.83112C39.7139 4.16728 39.8785 4.51758 40.0661 4.88359ZM47.0581 4.02277C47.578 4.11702 47.964 4.18299 48.3485 4.25839C48.6807 4.3228 49.016 4.37149 49.3406 4.46732C50.7663 4.8883 52.0675 5.5999 53.3333 6.36176C54.33 6.96182 55.2636 7.67341 56.2187 8.3473C57.0969 8.96779 57.9644 9.60084 58.8349 10.2323C59.4701 10.6926 60.1023 11.1591 60.7729 11.6508C60.8928 11.6382 61.0574 11.6209 61.1958 11.6068C61.2789 11.3068 61.1435 11.1623 60.9882 11.013C59.5778 9.66524 58.3074 8.17137 56.8278 6.88956C56.1064 6.26436 55.3836 5.64074 54.6545 5.02497C54.3931 4.80348 54.1177 4.59455 53.8255 4.42019C53.2088 4.05261 52.5766 3.71174 51.9522 3.3583C50.834 2.72525 49.6174 2.4425 48.3547 2.38595C47.9471 2.36867 47.5334 2.50062 47.2058 2.55088C46.9704 2.76138 46.7812 2.9326 46.5767 3.11639C46.6382 3.51224 46.8243 3.82484 47.0612 4.02277H47.0581ZM21.1282 8.82327C22.2556 8.43213 23.1492 7.72054 24.1135 7.15346C25.0656 6.59424 26.0022 5.9879 26.9128 5.35327C27.4295 4.99355 27.9033 4.58827 27.8248 3.76672C27.5572 3.62534 27.268 3.4714 27.0373 3.35045C26.7343 3.45569 26.459 3.49653 26.2483 3.63791C25.6608 4.03219 25.1302 4.5223 24.5196 4.86631C24.1212 5.08937 23.849 5.44124 23.4845 5.69415C22.8692 6.12299 22.3063 6.6555 21.8111 7.22572C21.5342 7.54617 21.2712 7.8839 20.982 8.19807C20.9513 8.23263 20.9374 8.2829 20.879 8.40071C20.9513 8.52324 21.0451 8.68347 21.1282 8.82484V8.82327Z" fill="#363636"/>
</g>
<defs>
<clipPath id="clip0_769_4475">
<rect width="80" height="25" fill="white"/>
</clipPath>
</defs>
</svg>
