<?xml version="1.0" encoding="utf-8"?>
<svg width="372" height="165" viewBox="0 0 372 165" fill="none" xmlns="http://www.w3.org/2000/svg">
  <path d="M320.85 21.8667C319.592 16.2225 318.427 10.0192 321.451 4.95559C324.474 -0.108071 333.64 -2.08623 336.899 2.84842C340.511 8.3206 333.781 16.1042 337.522 21.5119C340.828 26.2853 348.723 24.7587 354.688 26.2745C365.442 29.0053 368.642 41.2827 369.948 51.4208C371.407 62.7845 372.878 74.2771 371.36 85.6408C369.842 97.0045 363.971 134.824 354.688 142.5C343.876 151.434 328.722 154.175 314.321 156.197C259.223 163.937 114.583 166.238 58.9441 163.034C47.0726 162.346 33.9893 160.895 26.0476 152.799C21.5 148.164 6.00006 145.5 1.49994 108.5C1.29323 97.5 -1.00006 81.5 1.49994 66.5C3.99994 51.5 3.94008 42.3041 11.2818 32.5638C18.9059 22.4472 33.8834 20.0605 47.2491 18.8134C98.8411 14.0078 269.141 18.2114 320.839 21.8667" fill="#A5FFCF"/>
  <path d="M30.8679 32.7095C33.7459 32.437 35.7788 34.4281 35.5841 36.8548C35.503 37.8368 35.3551 38.816 35.2139 39.8003C34.9566 41.6449 33.3712 43.1852 31.7111 43.2286C30.0087 43.2717 28.4424 42.1203 28.0228 40.3576C27.5459 38.3556 27.8977 36.3653 28.8422 34.6003C29.3068 33.728 30.3577 33.1662 30.8687 32.7154L30.8679 32.7095Z" fill="#41617F"/>
  <path d="M51.258 42.9654C51.4477 41.3292 51.5609 39.7519 51.8347 38.2005C52.236 35.914 52.9819 35.2859 55.1702 35.1332C56.8019 35.0154 58.5013 35.9072 58.7892 37.5917C59.1456 39.6827 59.389 41.9161 57.8993 43.8411C56.481 45.6718 54.8866 45.9713 53.0193 44.6084C52.3946 44.1523 51.8763 43.5489 51.2648 42.9705L51.258 42.9654Z" fill="#41617F"/>
  <path d="M44.9386 49.9377C42.7419 50.2906 40.8592 49.7739 39.1591 48.6591C38.0106 47.908 37.7327 46.819 38.2467 45.8674C38.9106 44.6478 39.8657 44.1777 41.2126 45.0099C42.8564 46.0239 44.4232 45.6559 46.0806 45.4622C47.0663 45.3436 47.8419 45.7123 48.1513 46.7246C48.4507 47.708 48.1041 48.4736 47.2613 49.0126C46.8449 49.2753 46.4076 49.5169 45.9561 49.7001C45.5961 49.8465 45.1908 49.8846 44.9445 49.9369L44.9386 49.9377Z" fill="#41617F"/>
</svg>