<svg width="53" height="53" viewBox="0 0 53 53" fill="none" xmlns="http://www.w3.org/2000/svg">
<g filter="url(#filter0_di_164_3510)">
<rect x="2" y="2" width="45" height="45" rx="22.5" fill="white"/>
<rect x="2.5" y="2.5" width="44" height="44" rx="22" stroke="white"/>
</g>
<path d="M22.2925 23.9041V21.7515C22.2925 20.3555 23.4283 19.2198 24.8242 19.2198C26.2202 19.2198 27.3559 20.3555 27.3559 21.7515V23.9041C27.7394 23.9486 28.1253 24.0028 28.5126 24.0669C28.6357 24.0873 28.7571 24.1145 28.8762 24.1483V21.7516C28.8762 20.6685 28.4549 19.6508 27.69 18.8858C26.925 18.1209 25.9073 17.6996 24.8242 17.6996C23.7412 17.6996 22.7234 18.1209 21.9585 18.8858C21.1935 19.6508 20.7722 20.6685 20.7722 21.7516V24.1483C20.8914 24.1145 21.0127 24.0873 21.1358 24.0669C21.5231 24.0028 21.9091 23.9486 22.2925 23.9041Z" fill="#A5FFCF"/>
<path d="M28.4048 24.8918C27.4171 24.7284 26.1743 24.5876 24.8243 24.5876C23.4743 24.5876 22.2314 24.7284 21.2437 24.8918C19.9489 25.106 19 26.2267 19 27.5391V32.8048C19 34.2651 21.6076 35.4488 24.8243 35.4488C28.0409 35.4488 30.6485 34.265 30.6485 32.8048V27.5391C30.6485 26.2267 29.6996 25.106 28.4048 24.8918ZM26.2365 29.5188C26.1075 29.7369 25.9291 29.9227 25.7171 30.0606L26.1028 32.9916H23.5456L23.9312 30.0606C23.7193 29.9227 23.5408 29.7369 23.4118 29.5188C23.2629 29.2671 23.1842 28.9788 23.1842 28.6849C23.1842 27.7806 23.9199 27.0451 24.8241 27.0451C25.7283 27.0451 26.4639 27.7807 26.4639 28.6849C26.4639 28.9788 26.3853 29.2671 26.2364 29.5188H26.2365Z" fill="#A5FFCF"/>
<path d="M21.6114 23.8994C21.9915 23.8365 22.3764 23.7823 22.7553 23.7384L22.9922 23.7109V21.3198C22.9922 20.0715 24.0078 19.0559 25.2561 19.0559C26.5045 19.0559 27.5201 20.0715 27.5201 21.3198V23.7109L27.757 23.7384C28.1358 23.7823 28.5207 23.8365 28.9008 23.8994C29.0129 23.9179 29.1254 23.9431 29.2352 23.9742L29.5759 24.0705V21.3198C29.5759 20.1653 29.1267 19.0802 28.3112 18.2648C27.4957 17.4491 26.4107 17 25.2561 17C24.1016 17 23.0165 17.4491 22.201 18.2647C21.3854 19.0802 20.9363 20.1652 20.9363 21.3197V24.0705L21.2769 23.9742C21.3868 23.9431 21.4992 23.9179 21.6113 23.8994H21.6114ZM21.2041 21.3198C21.2041 20.2368 21.6254 19.219 22.3904 18.4541C23.1553 17.689 24.1731 17.2677 25.2561 17.2677C26.3392 17.2677 27.3569 17.689 28.1219 18.454C28.8868 19.2189 29.3081 20.2367 29.3081 21.3197V23.7164C29.1889 23.6827 29.0676 23.6555 28.9445 23.6351C28.5572 23.571 28.1713 23.5168 27.7878 23.4723V21.3197C27.7878 19.9237 26.6521 18.788 25.2561 18.788C23.8602 18.788 22.7244 19.9237 22.7244 21.3197V23.4723C22.341 23.5168 21.9551 23.571 21.5677 23.6351C21.4446 23.6555 21.3232 23.6827 21.2041 23.7164V21.3198Z" fill="#41617F"/>
<path d="M31.1625 26.0766C31.0429 25.7559 30.8699 25.4606 30.6481 25.1988C30.4262 24.9369 30.1633 24.7178 29.8665 24.5473C29.5611 24.3719 29.2292 24.2537 28.88 24.1959C27.6455 23.9917 26.4262 23.8882 25.2558 23.8882C24.0855 23.8882 22.8661 23.9917 21.6316 24.1959C21.2824 24.2537 20.9505 24.3719 20.6451 24.5473C20.3484 24.7177 20.0854 24.9369 19.8636 25.1988C19.6418 25.4606 19.4687 25.756 19.3492 26.0766C19.2262 26.4067 19.1638 26.7534 19.1638 27.1073V32.3731C19.1638 32.5906 19.2116 32.807 19.3058 33.016C19.3943 33.2125 19.5247 33.4038 19.6933 33.5848C20.0109 33.9256 20.4595 34.229 21.0268 34.4866C21.5809 34.7382 22.224 34.9352 22.9382 35.0724C23.6729 35.2134 24.4526 35.2849 25.2558 35.2849C26.059 35.2849 26.8388 35.2134 27.5734 35.0724C28.2876 34.9352 28.9307 34.7382 29.4849 34.4866C30.0521 34.229 30.5007 33.9257 30.8183 33.5848C30.9869 33.4038 31.1173 33.2125 31.2058 33.016C31.3001 32.807 31.3478 32.5907 31.3478 32.3731V27.1073C31.3478 26.7534 31.2855 26.4067 31.1625 26.0766ZM31.0801 32.3731C31.0801 33.8334 28.4725 35.0171 25.2558 35.0171C22.0392 35.0171 19.4316 33.8334 19.4316 32.3731V27.1073C19.4316 25.795 20.3806 24.6743 21.6754 24.4601C22.6631 24.2967 23.9059 24.1559 25.2559 24.1559C26.6059 24.1559 27.8487 24.2967 28.8364 24.4601C30.1312 24.6743 31.0802 25.795 31.0802 27.1073V32.3731H31.0801Z" fill="#41617F"/>
<path d="M25.2561 26.6133C24.3518 26.6133 23.6162 27.349 23.6162 28.2531C23.6162 28.547 23.6949 28.8353 23.8438 29.087C23.9728 29.3051 24.1513 29.491 24.3632 29.6288L23.9776 32.5598H26.5347L26.1491 29.6288C26.361 29.491 26.5395 29.3051 26.6685 29.087C26.8174 28.8353 26.8961 28.547 26.8961 28.2531C26.8961 27.3489 26.1604 26.6133 25.2562 26.6133H25.2561ZM25.9383 29.444L25.8605 29.4886L26.2294 32.2921H24.2828L24.6517 29.4886L24.5739 29.444C24.1484 29.1995 23.884 28.7433 23.884 28.2531C23.884 27.4966 24.4996 26.881 25.2562 26.881C26.0127 26.881 26.6283 27.4966 26.6283 28.2531C26.6283 28.7433 26.3639 29.1995 25.9383 29.444Z" fill="#41617F"/>
<defs>
<filter id="filter0_di_164_3510" x="0" y="0" width="53" height="53" filterUnits="userSpaceOnUse" color-interpolation-filters="sRGB">
<feFlood flood-opacity="0" result="BackgroundImageFix"/>
<feColorMatrix in="SourceAlpha" type="matrix" values="0 0 0 0 0 0 0 0 0 0 0 0 0 0 0 0 0 0 127 0" result="hardAlpha"/>
<feOffset dx="2" dy="2"/>
<feGaussianBlur stdDeviation="2"/>
<feComposite in2="hardAlpha" operator="out"/>
<feColorMatrix type="matrix" values="0 0 0 0 0 0 0 0 0 0 0 0 0 0 0 0 0 0 0.08 0"/>
<feBlend mode="normal" in2="BackgroundImageFix" result="effect1_dropShadow_164_3510"/>
<feBlend mode="normal" in="SourceGraphic" in2="effect1_dropShadow_164_3510" result="shape"/>
<feColorMatrix in="SourceAlpha" type="matrix" values="0 0 0 0 0 0 0 0 0 0 0 0 0 0 0 0 0 0 127 0" result="hardAlpha"/>
<feMorphology radius="2" operator="dilate" in="SourceAlpha" result="effect2_innerShadow_164_3510"/>
<feOffset dx="2" dy="2"/>
<feGaussianBlur stdDeviation="2.5"/>
<feComposite in2="hardAlpha" operator="arithmetic" k2="-1" k3="1"/>
<feColorMatrix type="matrix" values="0 0 0 0 0 0 0 0 0 0 0 0 0 0 0 0 0 0 0.1 0"/>
<feBlend mode="normal" in2="shape" result="effect2_innerShadow_164_3510"/>
</filter>
</defs>
</svg>
