<svg width="36" height="31" viewBox="0 0 36 31" fill="none" xmlns="http://www.w3.org/2000/svg">
<path d="M1 26.5192C2.49052 24.7923 5.27235 24.5764 7.07278 26.0402C7.45648 26.3505 7.84018 26.6676 8.22388 26.9779C9.42663 27.956 11.2271 27.9425 12.4298 26.9644C14.5254 25.2645 17.0785 23.9018 19.8824 26.2696C20.303 26.6204 20.6277 27.0521 20.945 27.4838C21.7124 28.5429 23.2915 29.7032 24.7303 29.231C26.2799 28.725 26.5382 26.789 27.7409 25.7569C29.047 24.6371 31.2385 24.8732 32.6847 25.8311C33.6882 26.4989 34.4187 27.4231 35.0459 28.408" stroke="#4A0D72" stroke-width="2" stroke-miterlimit="10"/>
<path d="M11.4238 15.58C13.5169 15.58 15.2138 13.8832 15.2138 11.79C15.2138 9.69684 13.5169 8 11.4238 8C9.33063 8 7.63379 9.69684 7.63379 11.79C7.63379 13.8832 9.33063 15.58 11.4238 15.58Z" fill="#4A0D72"/>
<path d="M2.77036 5.32587C2.77036 5.32587 3.19401 3.07995 5.7151 2.24791C8.23618 1.41587 10.1235 2.89909 10.1235 2.89909" stroke="#4A0D72" stroke-width="2" stroke-linecap="round"/>
<path d="M27.0215 2.67576C27.0215 2.67576 28.7832 1.2198 31.2537 2.19204C33.7241 3.16429 34.2268 5.51147 34.2268 5.51147" stroke="#4A0D72" stroke-width="2" stroke-linecap="round"/>
<path d="M25.0332 15.58C27.1263 15.58 28.8232 13.8832 28.8232 11.79C28.8232 9.69684 27.1263 8 25.0332 8C22.94 8 21.2432 9.69684 21.2432 11.79C21.2432 13.8832 22.94 15.58 25.0332 15.58Z" fill="#4A0D72"/>
</svg>
