<svg width="160" height="139" viewBox="0 0 160 139" fill="none" xmlns="http://www.w3.org/2000/svg">
<path d="M115.693 75.684H152.306C142.276 93.3891 123.075 109.866 98.4617 131.015L96.062 133.043C91.595 136.887 85.8958 139 80.0001 139C74.1043 139 68.4052 136.887 63.9382 133.043L61.5384 131.015C36.923 109.743 17.723 93.2668 7.69394 75.684H41.0486C42.256 75.6826 43.4373 75.3272 44.4442 74.6602C45.451 73.9933 46.2381 73.045 46.7093 71.9335L53.6023 55.7653L77.1107 110.544H77.1094C77.744 112.031 78.939 113.208 80.4349 113.822C81.9322 114.436 83.6107 114.436 85.108 113.822C86.6039 113.208 87.7989 112.031 88.4335 110.544L107.51 66.034L110.034 72.1819L110.032 72.1805C110.541 73.2468 111.344 74.1428 112.348 74.7645C113.353 75.3861 114.513 75.7059 115.695 75.6853L115.693 75.684ZM116.923 0.00207452C102.886 0.0789227 89.5126 5.98131 80.0002 16.2939C70.4877 5.98131 57.1141 0.0790106 43.077 0.00207452C18.4616 0.00207452 1.79146e-06 20.3518 1.79146e-06 47.8921C-0.00137175 53.1452 0.7871 58.3667 2.33791 63.3854H36.9233L47.8765 37.6881C48.3572 36.5875 49.1498 35.653 50.1553 34.997C51.1608 34.3411 52.338 33.9952 53.5386 33.9994C54.7391 33.9953 55.9163 34.3411 56.9218 34.997C57.9273 35.653 58.7199 36.5875 59.2007 37.6881L82.7091 92.527L101.786 47.9533L101.785 47.9519C102.419 46.4657 103.614 45.2869 105.11 44.6735C106.608 44.0601 108.286 44.0601 109.782 44.6735C111.279 45.2869 112.474 46.4657 113.107 47.9519L119.754 63.3834H157.662C159.213 58.3649 160.001 53.1435 160 47.8901C160 20.3484 141.538 0 116.923 0L116.923 0.00207452Z" fill="#F72585"/>
</svg>
