<svg width="146" height="160" viewBox="0 0 146 160" fill="none" xmlns="http://www.w3.org/2000/svg">
<g clip-path="url(#clip0_541_8131)">
<path d="M61.9679 160C61.1558 160 60.4531 159.427 60.2889 158.645L57.7339 146.427C57.2046 143.882 54.9143 142.027 52.2863 142.027H36.4361C26.937 142.027 18.8431 135.282 17.2006 126L13.6693 106.045L4.47126 101.8C2.44551 100.864 0.921636 99.1091 0.301136 96.9636C-0.319364 94.8273 0.0273859 92.5273 1.25014 90.6636L13.4868 72.0091V63.1364C13.4868 28.3182 42.0206 0 77.0971 0H81.3403C110.577 0 136.273 19.5727 143.828 47.6091C148.373 64.4636 145.735 82.6727 136.601 97.5727L124.693 117C120.587 123.7 119.209 131.618 120.815 139.282L124.721 157.955C124.83 158.455 124.702 158.973 124.374 159.373C124.045 159.773 123.562 160 123.042 160H61.9679ZM77.0971 3.4C61.0463 3.4 45.9444 9.61818 34.5655 20.9091C23.1866 32.2 16.9178 47.2 16.9178 63.1273V72.5091C16.9178 72.8364 16.8174 73.1545 16.6349 73.4364L4.12451 92.5182C3.43101 93.5636 3.24851 94.8091 3.59526 96.0182C3.94201 97.2273 4.76326 98.1818 5.91301 98.7091L15.9231 103.327C16.4341 103.564 16.79 104.027 16.8904 104.573L20.5769 125.4C21.9365 133.055 28.5978 138.618 36.4361 138.618H52.2863C56.5294 138.618 60.2341 141.609 61.0919 145.727L63.364 156.591H120.925L117.448 139.964C115.659 131.445 117.192 122.664 121.755 115.227L133.663 95.8C142.314 81.6909 144.805 64.4455 140.507 48.4818C133.353 21.9455 109.016 3.4 81.3403 3.4H77.0971ZM38.9364 78.5182C34.3739 78.5182 30.4136 76.7727 28.6069 73.9727C28.3605 73.5909 28.2784 73.1364 28.3788 72.6909C28.4791 72.2455 28.7438 71.8636 29.1361 71.6182C29.4099 71.4455 29.7293 71.3545 30.0578 71.3545C30.6509 71.3545 31.1893 71.6455 31.5086 72.1364C32.4668 73.6182 35.1313 75.1091 38.9455 75.1091C42.7598 75.1091 45.4243 73.6182 46.3824 72.1364C46.7018 71.6455 47.2401 71.3545 47.8333 71.3545C48.1618 71.3545 48.4811 71.4455 48.7549 71.6182C49.1381 71.8636 49.4119 72.2455 49.5031 72.6909C49.6035 73.1364 49.5214 73.5909 49.275 73.9727C47.4683 76.7727 43.5171 78.5182 38.9455 78.5182H38.9364Z" fill="#7209B7"/>
</g>
<defs>
<clipPath id="clip0_541_8131">
<rect width="146" height="160" fill="white"/>
</clipPath>
</defs>
</svg>
