<?xml version="1.0" encoding="utf-8"?>
<svg width="168" height="54" viewBox="0 0 168 54" fill="none" xmlns="http://www.w3.org/2000/svg">
  <path opacity="0.87" d="M167.807 53.9451L6.35809 52.6987C7.82579 49.4343 9.29349 46.1698 10.7612 42.9054C8.2829 39.6584 5.80147 36.4217 3.31318 33.1717C4.75764 30.0908 6.20524 26.9997 7.65972 23.922C5.83544 20.6841 4.00115 17.4431 2.17687 14.2052C3.38633 11.8938 4.59579 9.58242 5.80525 7.27106C4.06124 5.16809 2.31723 3.06512 0.573222 0.962152L162.022 2.20853C160.275 5.06228 158.521 7.90271 156.774 10.7565C159.206 14.0117 161.635 17.2773 164.066 20.5325C161.733 23.981 159.399 27.4296 157.065 30.8781C159.365 33.9921 161.675 37.1092 163.978 40.2129C162.59 42.3913 161.212 44.5727 159.821 46.7614C162.483 49.1559 165.145 51.5505 167.807 53.9451Z" fill="#FFD8FE"/>
</svg>