<?xml version="1.0" encoding="utf-8"?>
<svg width="15" height="15" viewBox="0 0 15 15" fill="none" xmlns="http://www.w3.org/2000/svg">
  <path d="M7.86909 13.6662C3.9308 13.6662 0.738182 10.6069 0.738182 6.83311C0.738182 3.05929 3.9308 0 7.86909 0C11.8074 0 15 3.05929 15 6.83311C15 10.6069 11.8074 13.6662 7.86909 13.6662Z" fill="url(#paint0_linear_611_3480)"/>
  <path opacity="0.47" d="M7.86799 13.6663H7.86927C8.03324 13.6663 8.19892 13.6609 8.36118 13.6503L8.28261 12.548C8.14597 12.557 8.00677 12.5615 7.86885 12.5615H7.86757C7.6831 12.5615 7.4965 12.5533 7.31375 12.5374L7.20828 13.6376C7.42647 13.6569 7.64809 13.6667 7.86799 13.6667V13.6663ZM9.8164 13.4085C10.1866 13.3082 10.5508 13.1777 10.8988 13.0206L10.4082 12.0206C10.1166 12.1519 9.8117 12.2612 9.50212 12.3451L9.8164 13.4081V13.4085ZM5.75989 13.3623L6.10064 12.3066C5.7932 12.2154 5.49131 12.0996 5.20308 11.9617L4.68812 12.9502C5.03228 13.1151 5.3931 13.2538 5.76032 13.3623H5.75989ZM12.1632 12.289C12.4698 12.0672 12.7597 11.8197 13.0253 11.5537L12.1918 10.7906C11.9689 11.014 11.7255 11.2215 11.4685 11.4077L12.1632 12.289ZM3.44213 12.1904L4.15864 11.3246C3.90628 11.1327 3.66802 10.9195 3.45067 10.6912L2.59881 11.4355C2.85757 11.7076 3.14152 11.9613 3.44213 12.19V12.1904ZM13.9297 10.4359C14.1325 10.1229 14.3101 9.79185 14.4575 9.45224L13.3925 9.02835C13.2691 9.31272 13.1205 9.59013 12.9502 9.85241L13.9293 10.4355L13.9297 10.4359ZM1.72175 10.2976L2.71495 9.73662C2.55141 9.47066 2.40922 9.18956 2.29307 8.90191L1.21789 9.30126C1.35666 9.64455 1.52618 9.97966 1.72175 10.2976ZM14.8785 8.09544C14.9489 7.73456 14.9891 7.36467 14.998 6.9956L13.8456 6.96982C13.8379 7.27956 13.8042 7.59012 13.7452 7.89249L14.8785 8.09544ZM0.830598 7.93505L1.96855 7.75829C1.91731 7.45468 1.89127 7.14372 1.89127 6.83316V6.81884H0.738365V6.83316C0.738365 7.20264 0.769536 7.57334 0.830598 7.93505ZM13.7478 5.78651L14.8815 5.58601C14.8119 5.22349 14.7102 4.86424 14.58 4.51768L13.4954 4.89207C13.6043 5.18217 13.6893 5.48331 13.7478 5.78651ZM2.02108 5.64002C2.08769 5.33806 2.18077 5.03937 2.29777 4.75213L1.22386 4.35074C1.08424 4.69403 0.972789 5.05082 0.893367 5.4113L2.02108 5.64002ZM12.957 3.82414L13.9374 3.24271C13.7354 2.9297 13.5053 2.63018 13.2529 2.35195L12.3827 3.07659C12.5945 3.30981 12.7875 3.56145 12.957 3.82373V3.82414ZM2.86483 3.69852C3.04118 3.44034 3.24144 3.19402 3.45921 2.96611L2.60905 2.2202C2.34944 2.49189 2.11117 2.78526 1.90109 3.09295L2.86525 3.69852H2.86483ZM11.4783 2.26602L12.1751 1.3859C11.869 1.16332 11.5415 0.963233 11.2024 0.790973L10.6627 1.76725C10.9471 1.91168 11.2217 2.07944 11.4783 2.26602ZM4.38495 2.17764C4.64713 1.9972 4.92596 1.83599 5.21418 1.69892L4.70136 0.709549C4.35762 0.873216 4.02456 1.06512 3.712 1.28034L4.38452 2.17764H4.38495ZM9.51493 1.32453L9.83177 0.262328C9.46284 0.161264 9.08153 0.0884319 8.69936 0.0458784L8.56657 1.14327C8.88682 1.17886 9.20621 1.23983 9.51536 1.32453H9.51493ZM6.37392 1.28525C6.6852 1.20832 7.00588 1.15554 7.32741 1.12772L7.2245 0.0274658C6.84106 0.0606084 6.45804 0.12362 6.08655 0.215274L6.37392 1.28525Z" fill="#FFD94D"/>
  <g style="mix-blend-mode:multiply">
    <path d="M7.86867 12.5614C4.56711 12.5614 1.89067 9.99677 1.89067 6.83309C1.89067 3.66941 4.56711 1.10474 7.86867 1.10474C11.1702 1.10474 13.8467 3.66941 13.8467 6.83309C13.8467 9.99677 11.1702 12.5614 7.86867 12.5614Z" fill="#FFD94D"/>
  </g>
  <path d="M7.59629 2.89696L6.4468 5.12856C6.40239 5.21448 6.31699 5.27422 6.21793 5.28772L3.64781 5.64575C3.39844 5.68053 3.29895 5.9739 3.47957 6.14248L5.33959 7.87981C5.41132 7.94691 5.44378 8.04306 5.42712 8.13758L4.98817 10.5905C4.94547 10.8283 5.20636 11.0099 5.42926 10.8974L7.72823 9.73947C7.81662 9.69487 7.92251 9.69487 8.0109 9.73947L10.3099 10.8974C10.5328 11.0095 10.7932 10.8283 10.751 10.5905L10.312 8.13758C10.2949 8.04306 10.3278 7.94691 10.3995 7.87981L12.2596 6.14248C12.4398 5.9739 12.3403 5.68053 12.0913 5.64575L9.5212 5.28772C9.42214 5.27381 9.33674 5.21448 9.29233 5.12856L8.14285 2.89696C8.0314 2.68051 7.70944 2.68051 7.59799 2.89696H7.59629Z" fill="white"/>
  <defs>
    <linearGradient id="paint0_linear_611_3480" x1="15.6123" y1="12.4174" x2="1.10301" y2="1.02125" gradientUnits="userSpaceOnUse">
      <stop stop-color="#FFEB84"/>
      <stop offset="0.22" stop-color="#EDB632"/>
      <stop offset="0.41" stop-color="#FFEB84"/>
      <stop offset="0.61" stop-color="#EDB632"/>
      <stop offset="0.81" stop-color="#FFEB84"/>
      <stop offset="1" stop-color="#EDB632"/>
    </linearGradient>
  </defs>
</svg>