<svg width="32" height="29" viewBox="0 0 32 29" fill="none" xmlns="http://www.w3.org/2000/svg">
<path d="M8.8818 11.58C10.975 11.58 12.6718 9.88316 12.6718 7.79C12.6718 5.69684 10.975 4 8.8818 4C6.78864 4 5.0918 5.69684 5.0918 7.79C5.0918 9.88316 6.78864 11.58 8.8818 11.58Z" fill="#4A0D72"/>
<path d="M2.25702 2.32377L14.2131 5.60484C14.5983 5.71056 15.1311 3.78281 14.7424 3.67615L2.78631 0.395074C2.40108 0.289354 1.86835 2.2171 2.25702 2.32377Z" fill="#4A0D72"/>
<path d="M18.8034 5.57027L30.7791 2.3614C31.165 2.25801 30.6508 0.325236 30.2615 0.429552L18.2858 3.63842C17.8999 3.74181 18.4141 5.67458 18.8034 5.57027Z" fill="#4A0D72"/>
<path d="M22.4921 11.58C24.5853 11.58 26.2822 9.88316 26.2822 7.79C26.2822 5.69684 24.5853 4 22.4921 4C20.399 4 18.7021 5.69684 18.7021 7.79C18.7021 9.88316 20.399 11.58 22.4921 11.58Z" fill="#4A0D72"/>
<path d="M31.192 27.1499C27.802 21.7399 22.312 17.4099 15.682 17.4199C9.05204 17.4299 3.57205 21.7299 0.172045 27.1499C-0.577955 28.3499 1.32204 29.4599 2.07204 28.2599C5.05204 23.4999 9.83204 19.6299 15.682 19.6199C21.532 19.6099 26.312 23.5099 29.292 28.2599C30.042 29.4599 31.942 28.3499 31.192 27.1499Z" fill="#4A0D72"/>
</svg>
