<?xml version="1.0" encoding="utf-8"?>
<svg width="35" height="30" viewBox="0 0 35 30" fill="none" xmlns="http://www.w3.org/2000/svg">
  <path d="M32.2291 3.24444C29.7729 0.867214 27.0878 -0.224551 24.297 0.0395854C21.2773 0.33894 18.9003 2.1879 17.4653 3.62304C16.0303 2.1879 13.6181 0.33894 10.6337 0.0395854C7.84288 -0.224551 5.20177 0.831995 2.71032 3.24444C-0.353368 6.22919 -0.503031 10.834 0.703077 14.1181C2.8952 20.0435 9.38353 24.6131 14.5953 28.2758C15.238 28.7248 15.8366 29.1474 16.4441 29.5613C16.629 29.7109 16.8579 29.7902 17.0868 29.8606H17.166C17.2804 29.8958 17.4301 29.8958 17.5446 29.8958H17.5798C17.6942 29.8958 17.8087 29.8958 17.9231 29.8606C17.9583 29.8606 18.0024 29.8606 18.0376 29.8254C18.152 29.7902 18.2665 29.7462 18.3809 29.7109C18.3809 29.7109 18.4161 29.7109 18.4161 29.6757C18.4954 29.6405 18.5658 29.5965 18.645 29.526C19.2525 29.1122 19.8511 28.6544 20.4938 28.2054C25.7056 24.5427 32.1587 19.9731 34.3508 14.0476C35.4865 10.8428 35.3368 6.22919 32.2379 3.25325L32.2291 3.24444Z" fill="#4CC9F0"/>
</svg>