<?xml version="1.0" encoding="utf-8"?>
<svg viewBox="39 20 57 88.994" width="57" height="88.994" xmlns="http://www.w3.org/2000/svg">
  <defs>
    <clipPath id="clip0_516_4040">
      <rect width="50" height="89" fill="white" transform="translate(39 20)"/>
    </clipPath>
  </defs>
  <path d="M87.5 20C86.5798 20 86.6262 24.4949 84.2562 27.515C82.1974 30.1376 79 30.875 79 31.9843C79 32.9974 82.1312 32.914 84.3489 35.5686C86.2753 37.877 86.8248 42 87.692 42C88.5592 42 88.4202 38.172 90.6709 35.3891C92.9681 32.5549 96 32.3562 96 31.4072C96 30.4582 92.5245 29.6182 90.618 26.9892C88.6055 24.2256 88.5128 20 87.5 20V20Z" fill="#FFD94D"/>
  <g clip-path="url(#clip0_516_4040)">
    <path d="M59.23 22.2504L65.5127 36.469L46.1973 45.0303L39.9147 30.8049C39.461 29.7726 39.7153 28.5614 40.5539 27.8112C41.0626 27.3432 41.6469 26.8546 42.293 26.3522C43.7915 25.2098 45.6543 24.0123 47.9089 23.0075C51.2221 21.5209 54.274 20.9359 56.5836 20.7019C57.7109 20.5918 58.7764 21.2181 59.23 22.2504Z" fill="#FF8CDB"/>
    <g opacity="0.5">
      <path d="M63.21 31.2591L65.5127 36.4689L46.1973 45.0303L39.9147 30.8049C39.461 29.7726 39.7153 28.5613 40.5539 27.8112C41.0626 27.3432 41.6469 26.8546 42.293 26.3522C42.9391 26.4761 43.5646 26.7582 44.0871 27.1574C45.4 28.1691 46.1148 29.7657 46.596 31.3486C47.1321 33.1655 47.7302 35.3953 49.5586 35.8771C50.5759 36.1455 51.6689 35.7257 52.5281 35.1063C53.3804 34.4869 54.0816 33.6817 54.8995 33.0141C57.1748 31.1559 60.3505 30.5847 63.21 31.2591Z" fill="#D811AD"/>
    </g>
    <path opacity="0.5" d="M56.1165 23.1245C56.8726 24.1293 57.4294 25.2235 57.9312 26.3385C58.4192 27.4602 58.8592 28.6027 59.0929 29.8415C59.141 30.0823 58.9829 30.3163 58.7423 30.3576C58.5705 30.392 58.4055 30.3163 58.3024 30.1856C57.5531 29.1808 56.9964 28.0865 56.4946 26.9716C56.0134 25.8429 55.5804 24.7005 55.3398 23.4686C55.2985 23.2346 55.4498 23.0144 55.6766 22.9662C55.8416 22.9318 56.0065 23.0006 56.0959 23.1314L56.1165 23.1245Z" fill="white"/>
    <path d="M88.9041 87.0733C72.6269 50.3777 75.672 57.7141 59.8554 21.9682C59.278 20.6605 57.9376 19.876 56.5148 20.0136C50.1771 20.6468 44.3688 23.3652 40.0933 27.2949C39.0278 28.2516 38.7047 29.7725 39.2821 31.087C72.352 105.662 3.94395 -48.9043 68.3652 96.261L68.3996 96.3436C68.4202 96.3918 68.4614 96.4262 68.4889 96.4675C68.7226 96.7703 68.3308 96.3711 84.8692 108.731C85.7078 109.358 87.0001 108.8 87.1032 107.74C89.1928 85.6556 89.1034 87.7065 88.9041 87.0733ZM48.6511 48.8567L47.0495 45.2436C51.6069 41.4378 58.9962 38.0793 65.1001 37.2259L66.7017 40.8321C60.7078 41.5204 52.9129 45.0715 48.658 48.8636L48.6511 48.8567ZM42.7053 26.8958C47.2832 23.3928 53.4559 21.3763 56.8378 21.3763C57.5939 21.3763 58.2882 21.8236 58.6044 22.5256L64.5159 35.9045C58.4188 36.8543 51.0982 40.1646 46.4653 43.9222L40.5401 30.5296C39.8389 28.9467 41.3099 27.9832 42.7053 26.8958ZM67.2791 42.1466L87.3231 86.915C81.3017 87.7478 73.8024 91.12 69.2794 94.9327L49.2285 50.1781C55.2981 45.278 61.4845 42.8693 67.2791 42.1466ZM85.7421 107.596C85.7421 107.596 85.694 107.63 85.694 107.637L70.1318 96.0339C74.6685 92.2074 81.9134 89.0554 87.5774 88.2846L85.7421 107.603V107.596Z" fill="#0A1640"/>
  </g>
</svg>