<svg width="44" height="30" viewBox="0 0 44 30" fill="none" xmlns="http://www.w3.org/2000/svg">
<path d="M11.4238 21.58C13.5169 21.58 15.2138 19.8832 15.2138 17.79C15.2138 15.6968 13.5169 14 11.4238 14C9.33063 14 7.63379 15.6968 7.63379 17.79C7.63379 19.8832 9.33063 21.58 11.4238 21.58Z" fill="#4A0D72"/>
<path d="M25.0039 17.58C27.097 17.58 28.7939 15.8832 28.7939 13.79C28.7939 11.6968 27.097 10 25.0039 10C22.9107 10 21.2139 11.6968 21.2139 13.79C21.2139 15.8832 22.9107 17.58 25.0039 17.58Z" fill="#4A0D72"/>
<path d="M0.843754 29.8H35.6038C36.7238 29.8 36.7338 28.05 35.6038 28.05H0.843754C-0.276246 28.05 -0.286246 29.8 0.843754 29.8Z" fill="#4A0D72"/>
<path d="M34.6207 7.685C34.6207 7.295 34.6857 6.955 34.8157 6.665C34.9457 6.375 35.1057 6.115 35.2957 5.885C35.4957 5.655 35.7107 5.445 35.9407 5.255C36.1707 5.055 36.3857 4.86 36.5857 4.67C36.7857 4.47 36.9457 4.26 37.0657 4.04C37.1957 3.82 37.2607 3.565 37.2607 3.275C37.2607 2.795 37.0707 2.405 36.6907 2.105C36.3107 1.805 35.7857 1.655 35.1157 1.655C34.5157 1.655 33.9957 1.755 33.5557 1.955C33.1157 2.155 32.7407 2.45 32.4307 2.84L31.3357 2.06C31.7557 1.53 32.2907 1.12 32.9407 0.83C33.5907 0.53 34.3507 0.38 35.2207 0.38C35.9407 0.38 36.5657 0.49 37.0957 0.709999C37.6257 0.92 38.0357 1.225 38.3257 1.625C38.6257 2.015 38.7757 2.49 38.7757 3.05C38.7757 3.47 38.7107 3.83 38.5807 4.13C38.4507 4.43 38.2857 4.695 38.0857 4.925C37.8857 5.155 37.6707 5.37 37.4407 5.57C37.2207 5.77 37.0107 5.97 36.8107 6.17C36.6107 6.37 36.4457 6.59 36.3157 6.83C36.1857 7.07 36.1207 7.355 36.1207 7.685H34.6207ZM35.3857 11.09C35.1057 11.09 34.8707 10.995 34.6807 10.805C34.5007 10.615 34.4107 10.39 34.4107 10.13C34.4107 9.85 34.5007 9.62 34.6807 9.44C34.8707 9.26 35.1057 9.17 35.3857 9.17C35.6657 9.17 35.8957 9.26 36.0757 9.44C36.2557 9.62 36.3457 9.85 36.3457 10.13C36.3457 10.39 36.2557 10.615 36.0757 10.805C35.8957 10.995 35.6657 11.09 35.3857 11.09Z" fill="#4A0D72"/>
</svg>
