<svg width="64" height="66" viewBox="0 0 64 66" fill="none" xmlns="http://www.w3.org/2000/svg">
<g clip-path="url(#clip0_769_11083)">
<path d="M29.2265 23.0082H26.9395V29.6438H29.2265V23.0082Z" fill="#42566B" stroke="#4D2F27" stroke-width="0.5" stroke-linecap="round" stroke-linejoin="round"/>
<path d="M33.6743 23.0082H31.3872V29.6438H33.6743V23.0082Z" fill="#42566B" stroke="#4D2F27" stroke-width="0.5" stroke-linecap="round" stroke-linejoin="round"/>
<path d="M21.6669 56.252H38.7981C39.8481 56.252 40.7003 57.1013 40.7003 58.1478V62.5752C40.7003 63.6218 39.8481 64.4711 38.7981 64.4711H21.6669C20.6168 64.4711 19.7646 63.6218 19.7646 62.5752V58.1478C19.7646 57.1013 20.6168 56.252 21.6669 56.252Z" fill="#FF9924" stroke="#4D2F27" stroke-width="0.5" stroke-linecap="round" stroke-linejoin="round"/>
<path d="M35.6148 60.3616C35.6148 63.3205 33.2068 65.726 30.2325 65.726C27.2581 65.726 24.8501 63.326 24.8501 60.3616C24.8501 57.3972 27.2581 54.9972 30.2325 54.9972C33.2068 54.9972 35.6148 57.3972 35.6148 60.3616Z" fill="white" stroke="#4D2F27" stroke-width="0.5" stroke-linecap="round" stroke-linejoin="round"/>
<path d="M56.7209 5.27661V51.7095C55.2695 53.3369 50.0411 57.1232 48.3752 57.5122H30.4964C28.9185 57.5122 27.643 58.7889 27.643 60.3615C27.643 61.9341 28.924 63.2054 30.4964 63.2054H48.4962C50.2775 63.2054 53.0209 61.8629 56.6385 59.2109C62.4331 54.9643 62.4331 53.3862 62.4331 52.4383V5.27661H56.7209Z" fill="#98D366" stroke="#4D2F27" stroke-width="0.5" stroke-linecap="round" stroke-linejoin="round"/>
<path d="M63.4612 0.273926L55.6928 1.59995V12.1315H63.4612V0.273926Z" fill="#FF9924" stroke="#4D2F27" stroke-width="0.5" stroke-linecap="round" stroke-linejoin="round"/>
<path d="M63.7196 39.1342H53.5102V42.0657H63.7196V39.1342Z" fill="#FF9924" stroke="#4D2F27" stroke-width="0.5" stroke-linecap="round" stroke-linejoin="round"/>
<path d="M30.3038 37.1946C22.2275 37.1946 21.6777 51.8466 21.6777 51.8466C21.6777 51.8466 24.5971 51.4302 25.4327 52.285C26.2684 53.1398 30.3038 53.5507 30.3038 53.5507C30.3038 53.5507 34.3392 53.1398 35.1749 52.285C36.0105 51.4302 38.9299 51.8466 38.9299 51.8466C38.9299 51.8466 38.3801 37.1946 30.3038 37.1946Z" fill="#81B356"/>
<path d="M30.3038 53.5562C30.3038 53.5562 34.1688 53.1617 35.1089 52.3397C34.8285 48.3014 33.8169 39.7644 30.3038 39.7644C26.7907 39.7644 25.7791 48.3014 25.4987 52.3397C26.4388 53.1617 30.3038 53.5562 30.3038 53.5562Z" fill="#98D366"/>
<path d="M30.3038 37.1946C22.2275 37.1946 21.6777 51.8466 21.6777 51.8466C21.6777 51.8466 24.5971 51.4302 25.4327 52.285C26.2684 53.1398 30.3038 53.5507 30.3038 53.5507C30.3038 53.5507 34.3392 53.1398 35.1749 52.285C36.0105 51.4302 38.9299 51.8466 38.9299 51.8466C38.9299 51.8466 38.3801 37.1946 30.3038 37.1946V37.1946Z" stroke="#4D2F27" stroke-width="0.5" stroke-linejoin="round"/>
<path d="M51.2671 25.5617C46.6379 23.9288 36.8793 27.9014 30.3094 27.9014C23.7396 27.9014 13.9754 23.9288 9.35179 25.5617C5.25592 27.0083 0.274902 34.2028 0.274902 41.0521C0.274902 48.4055 11.2265 56.3507 15.7128 56.3507C20.199 56.3507 23.5911 50.6411 25.103 45.1617C26.6149 39.6822 29.2264 37.9452 30.3039 37.9452C31.3815 37.9452 33.993 39.6822 35.5049 45.1617C37.0168 50.6411 40.4089 56.3507 44.8951 56.3507C49.3813 56.3507 60.333 48.4055 60.333 41.0521C60.333 34.2028 55.352 27.0028 51.2616 25.5617H51.2671Z" fill="#FFB224" stroke="#4D2F27" stroke-width="0.5" stroke-linejoin="round"/>
<path d="M58.6893 40.6082C58.2055 35.7808 54.6594 28.7836 50.7175 27.726C43.7078 25.8466 38.2099 29.6712 30.3096 29.6712C22.4092 29.6712 16.9059 25.8466 9.90172 27.726C5.95979 28.7836 2.4137 35.7808 1.9299 40.6082C1.44609 45.4356 8.80216 53.2438 14.7838 52.2192C20.7654 51.1945 22.1398 44.9589 25.0207 40.0274C27.9015 35.0959 30.3096 35.0301 30.3096 35.0301C30.3096 35.0301 32.7176 35.0959 35.5985 40.0274C38.4793 44.9589 39.8593 51.1945 45.8354 52.2192C51.8115 53.2438 59.1676 45.4356 58.6893 40.6082Z" fill="white"/>
<path d="M50.7669 27.7426L41.745 50.2357C42.8391 51.211 44.153 51.9289 45.8409 52.2193C47.5562 52.5152 49.387 52.0768 51.1133 51.1946L57.3753 35.5782C55.9074 31.9343 53.4333 28.4878 50.7669 27.7426Z" fill="#DFE4E8"/>
<path d="M12.997 27.2329L4.87122 47.4904C6.96038 49.8959 9.87422 51.863 12.7166 52.2356L22.2168 28.5535C19.0721 27.8302 16.1362 27.0521 12.997 27.2274V27.2329Z" fill="#DFE4E8"/>
<path d="M35.0212 29.2494L32.3163 36.0001C33.2234 36.7069 34.367 37.9179 35.5985 40.0275C35.8624 40.4823 36.1153 40.948 36.3627 41.4193L41.833 27.7864C39.6449 28.2357 37.4237 28.8494 35.0267 29.2494H35.0212Z" fill="#DFE4E8"/>
<path d="M58.6893 40.6082C58.2055 35.7808 54.6594 28.7836 50.7175 27.726C43.7078 25.8466 38.2099 29.6712 30.3096 29.6712C22.4092 29.6712 16.9059 25.8466 9.90172 27.726C5.95979 28.7836 2.4137 35.7808 1.9299 40.6082C1.44609 45.4356 8.80216 53.2438 14.7838 52.2192C20.7654 51.1945 22.1398 44.9589 25.0207 40.0274C27.9015 35.0959 30.3096 35.0301 30.3096 35.0301C30.3096 35.0301 32.7176 35.0959 35.5985 40.0274C38.4793 44.9589 39.8593 51.1945 45.8354 52.2192C51.8115 53.2438 59.1676 45.4356 58.6893 40.6082Z" stroke="#4D2F27" stroke-width="0.5" stroke-linejoin="round"/>
<path d="M33.9488 15.8959H26.6587C26.015 15.8959 25.4932 16.416 25.4932 17.0575V24.3233C25.4932 24.9648 26.015 25.4849 26.6587 25.4849H33.9488C34.5925 25.4849 35.1143 24.9648 35.1143 24.3233V17.0575C35.1143 16.416 34.5925 15.8959 33.9488 15.8959Z" fill="#98D366" stroke="#4D2F27" stroke-width="0.5" stroke-linecap="round" stroke-linejoin="round"/>
<path d="M30.3038 24.137C32.2137 24.137 33.7619 22.594 33.7619 20.6905C33.7619 18.787 32.2137 17.2439 30.3038 17.2439C28.394 17.2439 26.8457 18.787 26.8457 20.6905C26.8457 22.594 28.394 24.137 30.3038 24.137Z" fill="#42566B"/>
<path d="M30.3038 22.1645C31.1206 22.1645 31.7827 21.5046 31.7827 20.6905C31.7827 19.8765 31.1206 19.2166 30.3038 19.2166C29.487 19.2166 28.8249 19.8765 28.8249 20.6905C28.8249 21.5046 29.487 22.1645 30.3038 22.1645Z" fill="#2D3B4A"/>
<path d="M31.3704 20.4166C31.9595 20.4166 32.437 19.9406 32.437 19.3535C32.437 18.7665 31.9595 18.2905 31.3704 18.2905C30.7814 18.2905 30.3038 18.7665 30.3038 19.3535C30.3038 19.9406 30.7814 20.4166 31.3704 20.4166Z" fill="white"/>
<path d="M30.3038 24.137C32.2137 24.137 33.7619 22.594 33.7619 20.6905C33.7619 18.787 32.2137 17.2439 30.3038 17.2439C28.394 17.2439 26.8457 18.787 26.8457 20.6905C26.8457 22.594 28.394 24.137 30.3038 24.137Z" stroke="#4D2F27" stroke-width="0.5" stroke-linecap="round" stroke-linejoin="round"/>
</g>
<defs>
<clipPath id="clip0_769_11083">
<rect width="64" height="66" fill="white"/>
</clipPath>
</defs>
</svg>
