<svg width="50" height="43" viewBox="0 0 50 43" fill="none" xmlns="http://www.w3.org/2000/svg">
<path d="M45.2 5.44952C41.8314 2.18932 38.1489 0.692044 34.3216 1.05429C30.1803 1.46483 26.9205 4.00054 24.9524 5.96874C22.9844 4.00054 19.6763 1.46483 15.5833 1.05429C11.7559 0.692044 8.13385 2.14102 4.71701 5.44952C0.515381 9.54289 0.310129 15.858 1.96422 20.3619C4.97056 28.4883 13.8688 34.7551 21.0164 39.7782C21.8978 40.394 22.7188 40.9736 23.5519 41.5412C23.8055 41.7464 24.1194 41.8551 24.4333 41.9517H24.5419C24.6989 42 24.9042 42 25.0611 42H25.1094C25.2664 42 25.4233 42 25.5803 41.9517C25.6286 41.9517 25.6889 41.9517 25.7372 41.9034C25.8942 41.8551 26.0511 41.7947 26.2081 41.7464C26.2081 41.7464 26.2564 41.7464 26.2564 41.6981C26.3651 41.6498 26.4617 41.5895 26.5703 41.4929C27.4034 40.9253 28.2244 40.2975 29.1058 39.6816C36.2534 34.6585 45.1034 28.3917 48.1097 20.2653C49.6672 15.8701 49.462 9.54289 45.212 5.4616L45.2 5.44952Z" stroke="#4CC9F0" stroke-width="1.5" stroke-miterlimit="10"/>
</svg>
