<?xml version="1.0" encoding="utf-8"?>
<!-- Uploaded to: SVG Repo, www.svgrepo.com, Generator: SVG Repo Mixer Tools -->
<svg width="800px" height="800px" viewBox="0 0 1024 1024" class="icon"  version="1.1" xmlns="http://www.w3.org/2000/svg"><path d="M732.6 960.8H291.4c-25.4 0-46.1-20.7-46.1-46.1V109.3c0-25.4 20.7-46.1 46.1-46.1h441.3c25.4 0 46.1 20.7 46.1 46.1v805.5c-0.1 25.3-20.8 46-46.2 46z" fill="#515151" /><path d="M719.8 834.1H304.2c-7.1 0-13-5.8-13-13V172.3c0-7.1 5.8-13 13-13h415.6c7.1 0 13 5.8 13 13v648.8c0 7.2-5.9 13-13 13z" fill="#E4E4E4" /><path d="M419.1 726.2c-4.5 0-8.3-3.7-8.3-8.3 0-4.5 3.7-8.3 8.3-8.3 4.5 0 8.3 3.7 8.3 8.3-0.1 4.6-3.8 8.3-8.3 8.3zM481 727.7c-4.5 0-8.3-3.7-8.3-8.3 0-4.5 3.7-8.3 8.3-8.3 4.5 0 8.3 3.7 8.3 8.3 0 4.6-3.7 8.3-8.3 8.3zM543 727.7c-4.5 0-8.3-3.7-8.3-8.3 0-4.5 3.7-8.3 8.3-8.3 4.5 0 8.3 3.7 8.3 8.3-0.1 4.6-3.8 8.3-8.3 8.3zM604.9 726.2c-4.5 0-8.3-3.7-8.3-8.3 0-4.5 3.7-8.3 8.3-8.3 4.5 0 8.3 3.7 8.3 8.3 0 4.6-3.7 8.3-8.3 8.3z" fill="#A0A0A0" /><path d="M559.6 127.4H438.9c-4.5 0-8.1-3.7-8.1-8.1 0-4.5 3.7-8.1 8.1-8.1h120.6c4.5 0 8.1 3.7 8.1 8.1 0.1 4.4-3.5 8.1-8 8.1zM585.1 127.4c-4.5 0-8.1-3.7-8.1-8.1 0-4.5 3.7-8.1 8.1-8.1 4.5 0 8.1 3.7 8.1 8.1 0 4.4-3.7 8.1-8.1 8.1z" fill="#3A3A3A" /><path d="M512 897.7m-34 0a34 34 0 1 0 68 0 34 34 0 1 0-68 0Z" fill="#3A3A3A" /><path d="M508.1 461.3m-173.6 0a173.6 173.6 0 1 0 347.2 0 173.6 173.6 0 1 0-347.2 0Z" fill="#25A0C8" /><path d="M572.1 299.9c-2.4 1.3-4.8 2.7-7.1 4.2-19.3 12.5-32.4 33.6-25.3 52.8 7.2 19.3 31.2 30.6 47.4 45.9 23.4 22.2 28.4 58.8 3.5 80-8.5 7.2-19.8 12.2-27.4 20.1-19.2 19.9-6.9 51.2 17.7 66.7 13.9 8.7 30.3 13.7 47.5 16.9 32.9-31.6 53.3-76 53.3-125.1 0-73.4-45.4-136-109.6-161.5zM396.7 482.3c-2.7-26.6 24.9-52.5 14.4-77.2-8.6-20.4-36.5-22.9-58.2-18.9-0.5 0.1-0.9 0.2-1.4 0.3-10.9 22.7-16.9 48.1-16.9 74.9 0 67.9 38.9 126.6 95.7 155.1 2.9-2 5.7-4.2 8.2-6.7 17.3-17.7 16.3-48.2 1.9-68.3-14.6-20.4-41.2-34.4-43.7-59.2z" fill="#AFD555" /><path d="M489.3 330.7c1.9 2.1 4.7 3.1 7.5 2.9 3.1-0.2 6.1-0.3 9.2-0.3 68.4 0 124.1 55.7 124.1 124.1 0 6.5-0.5 12.9-1.5 19.2-0.4 2.8 0.4 5.6 2.3 7.7 5.2 5.7 14.7 2.8 15.9-4.8 1.1-7.2 1.7-14.5 1.7-22 0-78.6-63.9-142.5-142.5-142.5-3.6 0-7.2 0.1-10.7 0.4-7.6 0.4-11.2 9.7-6 15.3z" fill="#FFFFFF" /><path d="M631.1 512m-10 0a10 10 0 1 0 20 0 10 10 0 1 0-20 0Z" fill="#FFFFFF" /></svg>