<?xml version="1.0" encoding="utf-8"?>
<svg width="110" height="96" viewBox="0 0 110 96" fill="none" xmlns="http://www.w3.org/2000/svg">
  <path d="M79.267 71.0694L40.863 88.3128C39.383 88.9804 37.6335 88.3222 36.962 86.8508L12.6912 33.4235C12.0197 31.9474 12.6817 30.2127 14.1617 29.5452L17.6276 27.9844L20.0297 26.9079L52.5658 12.2971C54.0458 11.6295 55.7905 12.2877 56.4667 13.7591L77.787 60.6942L79.338 64.1072L80.7423 67.1911C81.4137 68.6625 80.7517 70.4019 79.2718 71.0694H79.267Z" fill="white"/>
  <path opacity="0.18" d="M79.2669 71.0694L40.8628 88.3128C39.3828 88.9803 37.6333 88.3222 36.9619 86.8507L12.691 33.4235C12.0196 31.9474 12.0621 30.5841 13.5469 29.9165L14.1474 30.1139C16.2846 30.8191 18.0388 32.361 18.9987 34.3872C31.5431 60.7929 29.1411 81.8911 79.3378 64.1071L80.7421 67.191C81.4136 68.6624 80.7516 70.4018 79.2716 71.0694H79.2669Z" fill="#0A1640"/>
  <path d="M38.4274 52.3827C37.5101 50.3331 37.0845 49.2566 34.5737 49.4399C31.9495 49.6326 29.1644 48.4668 27.4717 46.45C25.325 43.9021 25.7032 40.4562 27.3818 37.7672C27.3818 37.7672 27.3818 37.7672 27.3818 37.7578C28.597 35.821 31.0889 34.6551 33.3916 35.3227C35.8362 36.0278 37.0892 38.6181 39.1934 39.8686C41.5339 41.2554 43.5009 39.2057 45.7706 38.8109C49.3121 38.1997 51.4683 41.1379 51.0475 44.1324C50.9765 44.6731 50.8158 45.2137 50.5652 45.7402C49.3169 48.3446 45.6855 47.3526 44.7871 49.9429C44.3048 51.325 44.3757 52.9892 43.0754 53.9576C41.3164 55.2692 39.2075 54.1409 38.4132 52.378L38.4274 52.3827Z" fill="#FFCE00"/>
  <path opacity="0.5" d="M38.4274 52.3829C37.5101 50.3332 37.0845 49.2567 34.5737 49.44C31.9495 49.6327 29.1644 48.4669 27.4717 46.4501C25.325 43.9022 25.7032 40.4563 27.3818 37.7673C27.3818 37.7673 27.3818 37.7673 27.3818 37.7579C27.7128 41.2884 33.5571 45.1621 37.2973 44.7766C38.1058 44.7625 38.9238 44.6873 39.5716 45.2749C40.2904 45.9283 40.1343 47.113 40.21 48.0109C40.3471 49.5152 41.4015 49.943 42.3094 49.1203C43.6522 47.9028 43.8887 45.9847 45.3356 44.8424C46.5744 43.8646 48.3144 43.3287 49.889 43.6812C50.3193 43.78 50.7023 43.9351 51.0569 44.1325C50.986 44.6732 50.8252 45.2138 50.5746 45.7403C49.3263 48.3447 45.6949 47.3527 44.7965 49.943C44.3142 51.3251 44.3851 52.9893 43.0848 53.9577C41.3259 55.2693 39.217 54.141 38.4226 52.3782L38.4274 52.3829Z" fill="#E38921"/>
  <path opacity="0.75" d="M30.3331 38.0916H30.2716C29.8792 38.1104 29.709 37.6027 30.0399 37.3865C32.6547 35.6988 35.8559 37.5228 36.7921 40.0378C36.9245 40.3857 36.5037 40.6866 36.2152 40.4468C33.747 38.4442 32.9526 37.9741 30.3331 38.0916Z" fill="white"/>
  <path d="M61.5445 74.0311C58.1069 75.2581 55.7474 74.2333 52.4187 76.6308C51.5486 77.256 50.6786 77.8907 49.7849 78.483C46.8108 80.4621 42.3992 79.8463 40.5835 76.6308C39.652 74.9807 39.9688 73.4952 40.3849 71.784C41.0563 69.048 37.8363 69.4006 34.4838 68.2723C31.7603 67.3509 29.5568 64.5632 29.4623 61.8977C29.4481 61.4793 29.4623 61.0798 29.5096 60.699C30.006 56.5198 33.9779 54.9355 36.8575 57.2437C37.9167 58.0899 38.7205 59.1006 39.9499 59.1946C41.6332 59.3263 42.4417 57.7655 43.7184 57.004C45.2835 56.0732 47.3545 56.8958 48.3097 58.3391C49.6053 60.29 48.6785 63.073 48.4137 65.1838C48.2009 66.8667 49.5343 68.2582 51.4824 67.6706C53.8845 66.9514 55.6765 64.8876 58.1778 64.3705C62.1071 63.5572 64.8449 66.8714 64.7314 69.913C64.6652 71.6242 63.7006 73.2554 61.5445 74.0217V74.0311Z" fill="#D811AD"/>
  <path d="M52.8068 36.8647C51.2465 36.8224 50.2015 35.4591 49.2322 34.2697C47.6671 32.3517 46.5843 32.7654 44.6835 34.1898C40.1111 37.631 34.3283 28.6332 40.3428 25.6151C42.5462 24.501 44.1113 25.004 44.6173 22.6253C45.0806 20.4252 46.5606 18.2345 48.7073 17.3648C51.1897 16.3588 54.0457 17.8443 55.6061 19.8517C57.3225 22.0564 56.1214 25.2343 54.4476 27.0677C53.5587 28.0315 53.5114 28.6473 54.2774 29.6956C56.2822 32.4598 56.268 36.9587 52.8068 36.8694V36.8647Z" fill="#6B7FFF"/>
  <g opacity="0.25">
    <path d="M61.5445 74.0311C58.1069 75.2581 55.7474 74.2333 52.4187 76.6308C51.5486 77.256 50.6786 77.8907 49.7849 78.483C46.8108 80.4621 42.3992 79.8463 40.5835 76.6308C39.652 74.9807 39.9688 73.4952 40.3849 71.784C41.0563 69.048 37.8363 69.4006 34.4838 68.2723C31.7603 67.3509 29.5568 64.5632 29.4623 61.8977C29.4481 61.4793 29.4623 61.0798 29.5096 60.699C31.4293 64.0649 38.3422 64.126 41.0658 65.9782C44.6594 68.4228 44.3756 71.7041 46.5176 73.9042C48.6596 76.0996 53.6291 72.8841 57.6104 70.007C60.5468 67.8916 63.4264 69.1185 64.7314 69.913C64.6652 71.6242 63.7006 73.2554 61.5445 74.0217V74.0311Z" fill="#0A1640"/>
    <path d="M52.8068 36.8647C51.2464 36.8224 50.2015 35.4591 49.2321 34.2697C47.667 32.3517 46.5842 32.7654 44.6834 34.1898C42.0686 36.1549 39.2316 34.1052 38.1441 31.482C38.092 31.3598 38.0448 31.2376 38.0022 31.1247C37.884 30.7769 37.8083 30.4243 37.7705 30.0764C39.4775 27.2558 43.0994 28.5345 46.6694 29.4559C50.7121 30.4948 51.4119 27.9327 50.7972 23.0249C50.5183 20.8107 52.2347 19.3487 54.197 18.4084C54.3294 18.5166 54.4665 18.6341 54.5989 18.7563C54.8306 18.9726 55.0623 19.2029 55.294 19.4568C57.2988 21.7039 56.4004 24.9335 54.4476 27.0725C53.5586 28.0362 53.5113 28.652 54.2773 29.7003C56.2822 32.4645 56.268 36.9634 52.8068 36.8741V36.8647Z" fill="#0A1640"/>
  </g>
  <g opacity="0.5">
    <path d="M45.8796 60.5909C43.2412 64.3376 37.813 64.5021 35.2549 59.8058C35.1509 59.613 35.2218 59.3733 35.4157 59.2652C35.6757 59.1241 35.9216 59.3451 35.879 59.3216C36.8105 60.1678 38.0068 61.1597 39.2315 61.5499C42.3191 62.6734 45.6337 59.8763 45.3595 60.0737C45.6999 59.834 46.1207 60.2477 45.8796 60.5909Z" fill="white"/>
    <path d="M47.9408 22.6253C47.78 22.9074 47.3686 23.9651 47.3875 23.9228C47.2409 24.266 46.7303 24.2283 46.6404 23.8617C46.073 21.5112 48.0495 19.2029 50.2246 18.9397C50.5745 18.8974 50.7825 19.3252 50.5272 19.5696C49.7659 20.3077 48.6595 21.1868 47.936 22.6253H47.9408Z" fill="white"/>
  </g>
  <path d="M39.6522 88.9992C39.2503 88.9992 38.8484 88.9287 38.4607 88.783C37.6143 88.468 36.9476 87.8428 36.5788 87.0295L12.3032 33.5975C11.9296 32.7795 11.9013 31.8722 12.2181 31.0308C12.5349 30.194 13.1638 29.5264 13.9865 29.1597L52.3905 11.9116C54.0786 11.1501 56.0834 11.9022 56.8542 13.5852L81.1298 67.0125C81.4986 67.8305 81.5317 68.7378 81.2101 69.5792C80.8933 70.4207 80.2645 71.0836 79.4465 71.4503L41.0424 88.6937C40.5979 88.8911 40.1298 88.9945 39.657 88.9945L39.6522 88.9992ZM53.7712 12.4617C53.4261 12.4617 53.0714 12.5322 52.7357 12.6826L14.3364 29.9307C13.7217 30.2081 13.2536 30.7017 13.0172 31.3316C12.7808 31.9569 12.8044 32.6385 13.0786 33.2496L37.3542 86.6769C37.6285 87.288 38.1297 87.7534 38.7633 87.9885C39.3969 88.2236 40.0825 88.2047 40.6925 87.9274L79.0965 70.684C79.7112 70.4066 80.1794 69.913 80.4158 69.2831C80.6522 68.6578 80.6333 67.9762 80.3543 67.3651L77.3991 60.8682L56.0787 13.9331C55.6579 13.007 54.7358 12.4617 53.776 12.4617H53.7712Z" fill="#0A1640"/>
  <path d="M45.969 80.0391C45.4063 80.0391 44.8483 79.978 44.3046 79.8463C42.522 79.4232 41.0704 78.3561 40.2145 76.8424C39.1648 74.9902 39.5762 73.3119 39.9781 71.69C40.101 71.187 40.0774 70.8062 39.9024 70.5289C39.5242 69.9224 38.3515 69.6639 36.9992 69.3677C36.1907 69.1891 35.2781 68.9916 34.3513 68.6814C31.4764 67.7083 29.1406 64.7419 29.0413 61.9213C29.0271 61.4841 29.0413 61.061 29.0933 60.6567C29.3487 58.5083 30.5355 56.8019 32.2614 56.1014C33.8596 55.4527 35.68 55.7582 37.1316 56.9241C37.3822 57.1215 37.6186 57.3331 37.8456 57.5352C38.5643 58.1699 39.1837 58.7199 39.9876 58.781C40.9238 58.8562 41.5527 58.2827 42.2761 57.6245C42.6544 57.2814 43.0468 56.9241 43.5008 56.6514C45.3023 55.5843 47.6239 56.548 48.6689 58.1181C49.7895 59.8058 49.4018 61.973 49.0614 63.891C48.9762 64.3705 48.8959 64.8265 48.8391 65.2496C48.7493 65.9501 48.981 66.6035 49.4538 66.9984C49.9361 67.4027 50.617 67.5014 51.3641 67.2758C52.4232 66.9561 53.3547 66.3685 54.343 65.7432C55.492 65.0146 56.6835 64.2624 58.0973 63.9662C59.8988 63.5949 61.6389 64.0132 62.9912 65.1509C64.3955 66.3308 65.2277 68.1643 65.1615 69.9412C65.0812 72.0426 63.8187 73.6786 61.6956 74.4354C60.3055 74.9337 59.0997 75.0701 57.9366 75.2064C56.2249 75.4038 54.6078 75.5872 52.6738 76.9834L52.4469 77.1479C51.662 77.7121 50.8487 78.295 50.0307 78.845C48.8486 79.6301 47.4111 80.0485 45.9737 80.0485L45.969 80.0391ZM33.9683 56.6091C33.4955 56.6091 33.0274 56.6984 32.5829 56.8771C31.1454 57.46 30.1572 58.9079 29.935 60.746C29.8924 61.108 29.8782 61.4888 29.8877 61.879C29.9775 64.3705 32.058 67.0031 34.6208 67.8681C35.5003 68.1643 36.3892 68.357 37.1789 68.5309C38.7865 68.8835 40.0538 69.1609 40.6212 70.0682C40.9238 70.5477 40.9805 71.14 40.8008 71.8781C40.3611 73.6786 40.1341 74.962 40.9569 76.4146C41.6945 77.7215 42.957 78.6429 44.5032 79.0142C46.2196 79.4232 48.1062 79.0895 49.5531 78.1257C50.3569 77.5851 51.1655 77.0069 51.9409 76.4475L52.1679 76.2829C54.2862 74.7598 56.0074 74.5624 57.8325 74.3508C58.9484 74.2239 60.1022 74.0923 61.3977 73.6269C63.1756 72.9922 64.2348 71.6336 64.301 69.8989C64.3577 68.3805 63.6437 66.801 62.4333 65.7902C61.2843 64.8265 59.7995 64.4692 58.2581 64.7889C56.9956 65.0522 55.9223 65.7291 54.7874 66.4484C53.7945 67.0783 52.7684 67.7271 51.5958 68.0796C50.5603 68.3899 49.6004 68.2348 48.8911 67.6377C48.1961 67.0548 47.8603 66.1193 47.9833 65.1368C48.04 64.6902 48.1204 64.2248 48.2102 63.7359C48.5223 61.9777 48.8769 59.9845 47.9454 58.5788C47.118 57.3331 45.307 56.5527 43.9263 57.3707C43.5433 57.601 43.2029 57.9113 42.8388 58.2451C42.0822 58.9361 41.2264 59.7212 39.9072 59.6225C38.8196 59.5379 38.03 58.8374 37.264 58.1652C37.0418 57.9724 36.8195 57.7703 36.5784 57.5822C35.784 56.9476 34.862 56.6138 33.9541 56.6138L33.9683 56.6091Z" fill="#0A1640"/>
  <path d="M41.444 54.9543C41.1839 54.9543 40.9144 54.9214 40.6496 54.8509C39.5479 54.5688 38.5455 53.685 38.0348 52.5521L37.9733 52.4158C37.1128 50.493 36.7581 49.6986 34.602 49.8584C31.8311 50.0605 28.909 48.8289 27.1406 46.7181C24.6723 43.7847 25.4478 40.0661 27.0034 37.5605C27.0082 37.5511 27.0129 37.5417 27.0176 37.5323C28.3983 35.3275 31.1313 34.2228 33.5097 34.9138C35.0465 35.3557 36.1245 36.4699 37.1648 37.5464C37.8929 38.2986 38.5833 39.0131 39.4108 39.502C40.7867 40.32 42.0019 39.7888 43.411 39.1729C44.1392 38.858 44.891 38.5289 45.6948 38.3926C47.3497 38.1058 48.8723 38.5336 49.974 39.596C51.1514 40.729 51.7093 42.4496 51.4635 44.189C51.3878 44.7719 51.2128 45.3548 50.9433 45.9189C50.253 47.3669 48.9054 47.8229 47.7233 48.2271C46.5696 48.622 45.5719 48.9605 45.1841 50.0793C45.0517 50.4554 44.9666 50.8503 44.8721 51.2687C44.6309 52.3688 44.3756 53.5064 43.3259 54.2915C42.7396 54.7287 42.0965 54.9496 41.4298 54.9496L41.444 54.9543ZM38.815 52.2089C39.2216 53.1115 40.0065 53.812 40.8624 54.0329C41.548 54.2069 42.2289 54.0658 42.8294 53.6192C43.6285 53.0222 43.8365 52.0867 44.0541 51.0901C44.1486 50.667 44.2432 50.2251 44.3898 49.8067C44.9146 48.3024 46.2055 47.8605 47.4538 47.4327C48.5791 47.0472 49.643 46.6852 50.1821 45.5617C50.4137 45.0821 50.5603 44.5838 50.6265 44.0855C50.8346 42.6047 50.3712 41.1615 49.3877 40.2119C48.4846 39.3422 47.2268 38.999 45.8414 39.2341C45.1369 39.3563 44.4323 39.6619 43.7514 39.958C42.262 40.6068 40.7205 41.2743 38.971 40.2354C38.0443 39.6854 37.283 38.9003 36.5454 38.1387C35.5382 37.0951 34.5831 36.1126 33.2638 35.7318C31.2495 35.1489 28.9326 36.0891 27.7411 37.9695C27.7411 37.9789 27.7316 37.9836 27.7269 37.993C26.3226 40.2495 25.5991 43.5825 27.7836 46.1775C29.3818 48.0861 32.0345 49.2003 34.5263 49.0169C37.2735 48.8101 37.8598 50.1076 38.7393 52.0726L38.8008 52.2089H38.815Z" fill="#0A1640"/>
  <path d="M52.9008 37.2878C52.863 37.2878 52.8299 37.2878 52.7921 37.2878C51.0946 37.2455 49.9834 35.8775 49.0093 34.6694L48.9006 34.533C47.5908 32.9253 46.839 33.0992 44.9429 34.5236C43.879 35.3275 42.6827 35.5767 41.4912 35.257C39.945 34.8386 38.5218 33.4659 37.7652 31.6748C37.7605 31.6654 37.7557 31.656 37.751 31.6466C37.6943 31.5197 37.647 31.3927 37.5997 31.2705C37.4673 30.8897 37.3822 30.5043 37.3444 30.1141C37.1363 28.1114 38.238 26.1981 40.1483 25.2344C40.8529 24.8771 41.4912 24.6844 42.0491 24.5104C43.2407 24.1438 43.8979 23.9416 44.1958 22.536C44.7491 19.9175 46.612 17.6375 48.8249 16.8618C50.1489 16.4011 52.201 16.2319 54.4565 18.07C54.5936 18.1781 54.7354 18.3051 54.882 18.4367C55.1137 18.6482 55.3501 18.888 55.6007 19.1607C57.8514 21.6851 56.7403 25.1733 54.7543 27.3452C53.9978 28.1678 53.9694 28.558 54.6125 29.4371C56.0405 31.4069 56.4613 34.1193 55.5913 35.7553C55.0664 36.7425 54.1113 37.2831 52.8961 37.2831L52.9008 37.2878ZM52.8157 36.4417C53.7567 36.4652 54.4517 36.1032 54.8442 35.3651C55.5582 34.0159 55.1563 31.6325 53.9269 29.9354C53.0427 28.7273 53.0947 27.8999 54.1302 26.7763C55.8655 24.8771 56.8727 21.8591 54.9718 19.7295C54.7402 19.4756 54.5227 19.2547 54.3099 19.0572C54.1822 18.9397 54.0545 18.8269 53.9316 18.7282C52.3807 17.4683 50.721 17.1016 49.1181 17.661C47.1747 18.3427 45.534 20.3688 45.0375 22.7099C44.6356 24.5998 43.5575 24.9335 42.3092 25.319C41.7843 25.4835 41.1838 25.6669 40.5408 25.9913C38.9237 26.8045 38.0253 28.3512 38.2002 30.0295C38.2333 30.3538 38.2995 30.6735 38.4083 30.9885C38.4414 31.0825 38.4792 31.1812 38.5265 31.2846C38.5312 31.2987 38.5407 31.3081 38.5454 31.3222C39.1885 32.8689 40.432 34.0958 41.7229 34.4437C42.6638 34.6976 43.5811 34.5001 44.437 33.8514C46.2007 32.5304 47.6948 31.6983 49.572 34.0018L49.6855 34.1382C50.5886 35.2523 51.5201 36.4088 52.8299 36.4417H52.8157Z" fill="#0A1640"/>
  <path d="M91.0028 19.6872C91.5276 18.8222 92.0856 17.9713 92.5773 17.0828C95.2583 12.2266 97.3199 6.17641 93.4663 2.17582C91.3811 0.00864723 86.9647 -0.640096 82.2411 3.24766C78.5671 6.26573 75.5788 11.0467 73.3611 15.2212C69.1481 23.1565 65.1432 35.4592 64.8169 37.1468C64.6751 37.8943 65.999 36.7613 69.0015 39.4268C69.3467 39.7324 69.6115 40.0944 69.8716 40.4658C70.3775 41.1756 70.212 41.232 70.9827 40.6162C76.7845 35.9575 85.7779 27.2652 90.0997 20.9094C90.3834 20.4911 90.7333 20.1197 90.9981 19.6872H91.0028Z" fill="#6B7FFF"/>
  <path d="M68.0986 28.3888C67.7581 28.3136 67.6825 28.3512 67.569 28.6756C67.1576 29.8696 65.1339 35.6754 64.8218 37.1421C64.6563 37.9178 65.933 36.719 69.0017 39.4221C70.1554 40.4423 70.075 41.3307 70.5904 40.9218C72.6709 39.2717 75.2479 36.9823 77.2055 35.1724C77.6074 34.8057 77.5979 34.7493 77.423 34.5142C75.2621 31.5479 71.8908 29.2491 68.0986 28.3888V28.3888Z" fill="#332FBA"/>
  <path d="M65.4028 37.7721C61.2843 36.705 58.0548 40.4846 56.381 43.7612C55.9885 44.5322 55.6292 45.3032 55.3313 46.1164C55.1847 46.516 54.953 47.4374 54.9625 47.8652C54.9719 48.2742 55.1374 48.4482 55.5535 48.4858C56.1351 48.5422 56.8349 48.1849 57.3361 47.8887C58.2014 47.3763 58.4189 47.1131 58.0974 48.796C57.6151 51.3393 55.719 54.2257 53.0286 55.4339C52.6456 55.6031 52.2767 55.8006 51.9127 56.0074C51.0095 56.5198 53.2886 58.1793 54.239 58.5977C55.771 59.2746 57.1848 59.6789 59.6672 59.2464C63.1284 58.64 65.4359 55.1048 65.956 52.0821C65.9796 51.9504 65.9418 51.7765 66.1168 51.706C66.2161 51.6684 66.3012 51.8235 66.3106 52.0962C66.3768 54.6629 65.956 56.6609 65.7054 58.2451C65.6581 58.5507 66.0222 58.8327 66.3343 58.6917C66.9348 58.4144 67.2894 58.1464 67.6346 57.8126C74.0321 51.612 72.7176 39.6807 65.3886 37.7815L65.4028 37.7721Z" fill="#FFCE00"/>
  <path d="M66.6514 41.2227C66.8547 41.0064 67.058 40.5175 66.7554 40.2824C65.909 39.6337 64.5756 41.6457 64.2446 42.1488C63.611 43.1125 63.0625 44.1608 62.7883 45.2843C62.41 46.8122 62.741 48.3259 63.1476 47.7994C63.6441 47.1601 63.7292 44.3676 66.6514 41.2227Z" fill="#E38921"/>
  <path d="M60.5662 42.7364C61.2423 42.1205 61.6584 41.3966 62.675 40.7948C63.3607 40.3905 64.1834 40.1414 64.817 39.6619C65.4979 39.1495 64.3962 38.9379 64.0084 38.9473C62.1975 38.9896 59.9515 41.3119 60.013 42.4966C60.0271 42.7928 60.3392 42.9385 60.5614 42.7411L60.5662 42.7364Z" fill="#E38921"/>
  <path d="M68.4442 41.6222C67.7775 41.6316 68.1841 42.5718 67.5316 45.2467C67.4843 45.4395 67.4417 45.6322 67.4607 45.8344C67.4938 46.1587 67.8342 46.1775 68.0422 46.0036C68.7941 45.3784 69.4324 41.6081 68.4442 41.6222V41.6222Z" fill="#E38921"/>
  <path d="M71.3844 50.6482C71.3844 50.6482 71.3844 50.6482 71.3844 50.6529C70.869 53.0693 69.7626 55.4386 68.0745 57.3707C67.9847 57.4741 67.8712 57.5917 67.7436 57.7186C67.7152 57.7468 67.6868 57.7703 67.6584 57.7985C67.2802 58.1276 66.8783 58.4096 66.448 58.6447C66.4338 58.6541 66.4243 58.6588 66.4102 58.6635C66.2919 58.7011 66.1785 58.7152 66.0792 58.7011C66.0413 58.6917 66.0082 58.6823 65.9751 58.6682C65.9373 58.6494 65.9042 58.6259 65.8711 58.5977C65.8569 58.5836 65.838 58.5695 65.8286 58.5554C65.8096 58.5413 65.7955 58.5225 65.7813 58.499C65.7624 58.466 65.7529 58.4378 65.7387 58.4049C65.7387 58.4049 65.7387 58.3955 65.734 58.3908C65.7198 58.3391 65.7151 58.2827 65.7245 58.2216C65.786 57.8596 66.7979 51.847 66.1737 51.7013C65.9799 51.6542 66.0224 51.9269 65.7718 52.9282C65.0247 55.8711 62.7031 58.7528 59.5634 59.2605C57.9179 59.5285 56.3008 59.4721 54.7357 58.8139C53.1895 58.1699 52.1588 57.2062 51.8136 56.6232C51.615 56.2942 51.6528 56.1437 51.9838 55.9604C52.3479 55.7582 52.7214 55.5655 53.0997 55.3963C57.7052 53.2902 58.7974 47.0754 57.9936 47.5126C57.3364 47.8699 56.0691 48.749 55.2795 48.4152C55.0998 48.34 54.9722 48.2178 54.9769 48.0109C55.01 45.745 56.7689 43.2535 57.0337 42.5859C57.1094 42.4026 57.256 42.2992 57.464 42.3133C59.5634 42.4449 61.1616 43.733 61.677 45.9049C62.0033 47.1036 61.7763 48.514 61.8378 49.7409C61.904 51.0008 62.67 51.0807 63.0388 50.479C63.3178 50.023 63.5637 49.5388 63.7906 49.0546C64.1973 48.1802 65.3226 47.0378 66.4716 46.8498C67.2849 46.7182 68.1029 46.8686 68.8074 47.1836C70.3725 47.8793 71.3561 49.5294 71.375 50.6388L71.3844 50.6482Z" fill="#D811AD"/>
  <g opacity="0.25">
    <path d="M71.3843 50.6482C70.1833 56.3082 66.0554 59.8528 65.7339 58.3955C65.5684 57.7044 67.9278 56.8724 68.8641 53.0175C69.3464 51.0337 69.422 48.9981 68.8168 47.1976C70.3819 47.8934 71.3654 49.5434 71.3843 50.6529V50.6482Z" fill="#0A1640"/>
    <path d="M72.3682 39.3186C72.6093 39.3563 73.1342 38.7921 73.2949 38.6605C76.5906 35.9809 83.5461 29.2866 87.9057 23.8522C90.3361 20.8248 92.7286 17.3742 94.2086 13.7967C95.4002 10.9103 96.1331 7.56786 94.9936 4.54509C93.2913 0.0179957 88.1326 -0.358087 84.3452 1.78088C83.7069 2.14286 86.2176 1.94072 86.4351 1.99243C91.2392 3.2006 92.7428 8.74782 90.9035 13.3078C88.1279 20.1948 78.5813 29.2631 75.0539 34.5518C72.9923 37.6451 72.7464 39.3751 72.3682 39.3139V39.3186Z" fill="#0A1640"/>
  </g>
  <path opacity="0.5" d="M71.3843 50.6482C71.3749 50.0041 70.9304 48.7866 69.9185 47.8934C69.6065 47.6207 69.2329 47.3762 68.8215 47.1929C68.5142 46.2903 68.0414 45.4441 67.3557 44.692C64.6558 41.7256 61.8093 42.9432 60.632 38.9896C60.5752 38.8016 60.6225 38.6323 60.8069 38.5242C62.1781 37.7203 63.4785 37.3207 65.2469 37.7391C70.5474 38.9896 72.5995 44.9599 71.3843 50.6529V50.6482Z" fill="#E38921"/>
  <g opacity="0.5">
    <path d="M72.8128 20.397C71.7678 22.4749 67.1813 31.3457 67.2759 34.1335C67.2948 34.6506 67.7582 34.6835 67.9615 34.3732C68.6093 33.386 68.2688 33.9924 70.1554 30.0765C75.1297 19.7389 76.1274 18.4978 75.787 17.3649C75.6404 16.8807 75.0919 17.0546 74.7089 17.379C74.0564 17.929 73.1249 19.7765 72.8128 20.4017V20.397Z" fill="white"/>
    <path d="M64.0653 53.2431C64.2024 52.7965 64.1835 52.2888 63.5499 52.3076C63.0581 52.3217 62.7271 53.1068 62.5096 53.4453C61.3181 55.2975 59.02 56.7219 56.079 56.7078C55.3981 56.7078 54.7976 56.642 54.7645 56.9476C54.6888 57.5916 56.183 57.869 56.5802 57.9348C59.734 58.4331 63.1479 56.2988 64.07 53.2478L64.0653 53.2431Z" fill="white"/>
  </g>
  <path d="M93.159 1.33901C91.7074 0.234267 89.8633 -0.198229 87.8301 0.0838334C85.5888 0.394102 83.2908 1.63047 81.0117 3.75064C79.5175 5.14215 78.0754 6.84392 76.6001 8.96409C75.4038 10.6847 74.2738 12.551 73.1531 14.6617C70.6991 19.2876 68.2592 25.0792 66.2922 30.9743C65.4742 33.4283 65.0108 34.9232 64.7366 35.8164C64.3252 37.1562 64.3205 37.1562 64.1455 37.1421C64.1266 37.1421 64.1077 37.1421 64.0841 37.1421C61.2943 37.0387 59.0578 39.1353 57.6771 40.9076C55.9323 43.1453 54.8684 45.7262 54.5894 47.2916C54.4239 48.2177 54.6414 48.7489 55.2419 48.8712C56.0978 49.0404 56.6983 48.7301 57.2799 48.4246C57.4123 48.3541 57.5541 48.2835 57.6913 48.2177C57.7102 48.2083 57.7102 48.213 57.7196 48.2177C57.923 48.5562 56.8118 52.2794 54.1544 54.268C53.6296 54.6581 53.1662 54.8885 52.6271 55.1518C52.3198 55.3022 52.003 55.4573 51.6342 55.6595C51.2701 55.8616 51.1708 56.2189 51.3552 56.6749C51.7004 57.5305 52.9439 58.513 54.4476 59.1288C56.3342 59.8998 58.4525 60.0408 60.4148 59.5284C62.292 59.0348 64.0651 57.5117 65.2709 55.3492C65.4317 55.0624 65.5499 54.7804 65.6444 54.5547C65.7106 54.3949 65.791 54.2163 65.8383 54.1457C65.8383 54.5359 65.6161 56.5668 65.3749 57.5869C65.2283 58.2121 65.2993 58.7057 65.5735 58.9737C65.7721 59.1664 66.0605 59.2276 66.3868 59.1429C66.5334 59.1053 66.6847 59.0489 66.8407 58.969C67.8999 58.4519 69.1529 57.0792 70.1506 55.3069C71.5455 52.8247 72.2689 49.8866 72.1885 47.0331C72.1271 44.8424 71.588 43.2957 70.8031 41.641C70.7889 41.6128 70.7747 41.5846 70.7606 41.5658C70.7133 41.4811 70.9702 41.2054 71.5313 40.7384C71.8575 40.4657 72.3067 40.0943 72.9214 39.5725C77.1439 35.9715 83.201 30.4149 88.0665 24.3882C93.8872 17.1721 96.5303 11.1172 95.9204 6.39262C95.6508 4.28186 94.6721 2.48606 93.1637 1.34371L93.159 1.33901ZM65.129 37.2079C65.0439 37.0904 65.1007 36.9399 65.1669 36.7801C65.1858 36.7284 65.2047 36.6814 65.2189 36.6344C65.2614 36.5028 65.3134 36.3335 65.3749 36.1314C65.947 34.251 67.4743 29.2491 69.4744 24.3177C73.0869 15.4139 78.5577 4.86949 85.116 1.66338C86.0806 1.19328 87.0688 0.878308 88.0807 0.75138C90.3125 0.474019 92.1944 1.12746 93.5231 2.6365C95.2395 4.58743 95.7407 7.72301 94.8659 11.0278C92.8469 18.6341 85.0923 28.2524 71.8197 39.6195C71.4556 39.9345 71.0868 40.2354 70.7275 40.5174C70.5525 40.6585 70.4485 40.7337 70.387 40.7243C70.3255 40.7149 70.2593 40.6115 70.1506 40.4328C69.3893 39.2105 67.6587 37.7109 65.6728 37.3113C65.6066 37.2972 65.5309 37.2972 65.46 37.2925C65.3229 37.2925 65.1952 37.2878 65.1338 37.2032L65.129 37.2079ZM66.0984 57.4647C66.2591 56.5245 66.557 54.7804 66.5759 52.0068C66.5759 51.6777 66.3679 51.4708 66.1646 51.4379C66.0936 51.4285 66.0274 51.4379 65.9754 51.4614C65.9092 51.4944 65.8619 51.5461 65.8383 51.6213C65.8052 51.72 65.7674 51.8798 65.7201 52.0773C65.5026 53.0175 65.0534 54.9731 63.3701 56.8441C61.8144 58.5741 60.2399 58.9596 58.9017 59.11C56.5423 59.378 53.4452 58.6117 52.0928 56.6326C52.003 56.4963 51.9699 56.4116 51.9888 56.3411C52.0266 56.1954 52.3245 56.0544 52.8494 55.8052C52.9912 55.7394 53.1473 55.6642 53.3269 55.5796C53.3317 55.5796 53.3411 55.5749 53.3459 55.5701C56.0883 54.2304 58.1121 51.2076 58.4998 47.8699C58.5376 47.5314 58.4998 47.3386 58.3721 47.254C58.1688 47.1224 57.8 47.3339 57.3319 47.6019C56.8307 47.8934 56.2018 48.2553 55.6439 48.2459C55.2845 48.2412 55.2467 48.2083 55.2372 47.8605C55.1947 46.3561 56.878 42.4261 59.5117 39.9204C61.0815 38.4302 62.7412 37.7062 64.3157 37.8237C67.5311 38.0635 69.2664 40.1461 70.1553 41.8525C72.1365 45.651 71.8575 51.076 69.4744 55.0389C68.8172 56.1343 67.7202 57.963 66.2449 58.4425C66.1362 58.4801 66.07 58.4801 66.0369 58.4566C65.9518 58.3814 66.0085 58.0335 66.1078 57.46L66.0984 57.4647Z" fill="#0A1640"/>
  <path d="M10.95 77C10.31 77 10.34 80.25 8.68 82.43C7.24 84.33 5 84.86 5 85.66C5 86.39 7.19 86.33 8.74 88.25C10.09 89.92 10.47 92.9 11.08 92.9C11.69 92.9 11.59 90.13 13.17 88.12C14.78 86.07 16.9 85.93 16.9 85.24C16.9 84.55 14.47 83.95 13.13 82.05C11.72 80.05 11.66 77 10.95 77V77Z" fill="white"/>
  <path d="M3.5 46.6564C3.12353 46.6564 3.14118 48.496 2.16471 49.73C1.31765 50.8054 0 51.1054 0 51.5583C0 51.9715 1.28824 51.9375 2.2 53.0243C2.99412 53.9696 3.21765 55.6564 3.57647 55.6564C3.93529 55.6564 3.87647 54.0884 4.80588 52.9507C5.75294 51.7903 7 51.7111 7 51.3205C7 50.93 5.57059 50.5903 4.78235 49.5149C3.95294 48.3828 3.91765 46.6564 3.5 46.6564V46.6564Z" fill="white"/>
  <path d="M100.5 29C99.5798 29 99.6262 33.4949 97.2562 36.515C95.1974 39.1376 92 39.875 92 40.9843C92 41.9974 95.1312 41.914 97.3489 44.5686C99.2753 46.877 99.8248 51 100.692 51C101.559 51 101.42 47.172 103.671 44.3891C105.968 41.5549 109 41.3562 109 40.4072C109 39.4582 105.525 38.6182 103.618 35.9892C101.606 33.2256 101.513 29 100.5 29V29Z" fill="white"/>
  <circle cx="93" cy="79" r="17" fill="#F72585"/>
  <path fill-rule="evenodd" clip-rule="evenodd" d="M100.934 81.1087C100.859 80.3936 100.543 77.2211 100.42 76.0956C100.253 74.571 98.9864 73.4274 97.4654 73.4261C96.7552 73.4257 96.1207 73.6536 95.5663 74.1017C95.5132 74.1446 95.4386 74.2009 95.3822 74.1933C94.9103 74.1265 94.4403 74.0461 93.9515 73.9668V73.2497C93.9515 73.2497 93.9444 73 93.6705 73H92.2944C92.0203 73 92.0134 73.2497 92.0134 73.2497V73.9668C91.5246 74.046 91.0544 74.1264 90.5827 74.1933C90.5263 74.2009 90.4516 74.1445 90.3986 74.1017C89.8443 73.6536 89.2097 73.4257 88.4994 73.4261C86.9784 73.4274 85.712 74.5709 85.5449 76.0956C85.4218 77.2214 85.1057 80.3937 85.0304 81.1087C84.919 82.1654 85.0577 83.5894 86.4079 83.913C87.6626 84.2138 88.7587 83.7132 89.4488 82.7403C89.8695 82.147 90.3305 81.5819 90.7803 81.0093C90.8231 80.9546 90.9136 80.9075 90.9823 80.9072H94.9824C95.0512 80.9075 95.1417 80.9546 95.1847 81.0093C95.6344 81.5819 96.0953 82.147 96.5161 82.7403C97.2062 83.7135 98.3023 84.2138 99.557 83.913C100.907 83.5894 101.046 82.1654 100.934 81.1087V81.1087ZM90.7843 78.3747C90.7843 78.4497 90.7234 78.5107 90.6482 78.5107H89.6279V79.5311C89.6279 79.6061 89.5668 79.667 89.4918 79.667H88.7661C88.691 79.667 88.63 79.6061 88.63 79.5311V78.5107H87.6097C87.5345 78.5107 87.4736 78.4496 87.4736 78.3747V77.6489C87.4736 77.5739 87.5345 77.5129 87.6097 77.5129H88.63V76.4925C88.63 76.4173 88.6911 76.3566 88.7661 76.3566H89.4918C89.5669 76.3566 89.6279 76.4174 89.6279 76.4925V77.5129H90.6482C90.7234 77.5129 90.7843 77.574 90.7843 77.6489V78.3747ZM96.1776 78.3422C96.1776 78.4294 96.12 78.5002 96.0485 78.5002H95.3298C95.2585 78.5002 95.2007 78.4295 95.2007 78.3422L95.2008 77.6812C95.2008 77.594 95.2583 77.5232 95.3299 77.5232H96.0486C96.1199 77.5232 96.1777 77.5939 96.1777 77.6812L96.1776 78.3422ZM97.5108 79.7041C97.5108 79.7755 97.4402 79.8333 97.3528 79.8333H96.6916C96.6044 79.8333 96.5337 79.7757 96.5337 79.7041L96.5338 78.9853C96.5338 78.914 96.6044 78.8562 96.6917 78.8562H97.353C97.4402 78.8562 97.5109 78.9138 97.5109 78.9853L97.5108 79.7041ZM97.5108 77.038C97.5108 77.1094 97.4402 77.1672 97.3528 77.1672H96.6916C96.6044 77.1672 96.5337 77.1096 96.5337 77.038V76.3193C96.5337 76.248 96.6043 76.1902 96.6916 76.1902H97.3528C97.4401 76.1902 97.5108 76.2478 97.5108 76.3193V77.038ZM98.8438 78.3422C98.8438 78.4294 98.7863 78.5002 98.7147 78.5002H97.996C97.9245 78.5002 97.8669 78.4295 97.8669 78.3422V77.6812C97.8669 77.594 97.9245 77.5232 97.996 77.5232H98.7147C98.7861 77.5232 98.8438 77.594 98.8438 77.6812V78.3422Z" fill="white"/>
</svg>