<svg width="57" height="65" viewBox="0 0 57 65" fill="none" xmlns="http://www.w3.org/2000/svg">
<path d="M28.601 63.8647C13.57 63.8647 1.87696 53.8871 1.87696 53.8871C1.87696 53.8871 -4.26292 31.0682 5.667 13.6115C5.667 13.6115 1.04876 3.5047 4.27451 0.596195C7.16056 -2.0063 15.9114 4.55469 18.351 7.89274C18.351 7.89274 23.1742 6.49463 28.2613 6.49463C33.3484 6.49463 38.5674 7.89274 38.5674 7.89274C41.0071 4.55469 49.7579 -2.0063 52.6439 0.596195C55.8725 3.50751 51.2514 13.6115 51.2514 13.6115C61.1814 31.0682 55.0415 53.8871 55.0415 53.8871C55.0415 53.8871 43.3485 63.8647 28.3174 63.8647" fill="#FFD94D"/>
<g style="mix-blend-mode:hard-light" opacity="0.92">
<path d="M20.0354 15.5121C21.4026 15.5121 21.7114 16.4919 20.3245 17.3846C18.9348 18.2774 16.7057 20.1051 15.4283 20.5571C14.151 21.0091 13.1403 19.7092 13.8814 18.6199C14.6254 17.5306 17.4188 15.5093 20.0354 15.5093V15.5121Z" fill="#FFF5C1"/>
<path d="M36.8828 15.5121C35.5156 15.5121 35.2068 16.4919 36.5936 17.3846C37.9833 18.2774 40.2124 20.1051 41.4898 20.5571C42.7672 21.0091 43.7779 19.7092 43.0367 18.6199C42.2927 17.5306 39.4993 15.5093 36.8828 15.5093V15.5121Z" fill="#FFF5C1"/>
<path d="M42.3374 9.4985C42.3374 9.87469 43.5362 10.0375 44.8781 10.8966C46.2201 11.7585 46.8125 12.5025 47.2897 12.5025C47.767 12.5025 48.5559 7.04479 47.4189 6.54507C46.2791 6.04815 42.3402 8.99035 42.3402 9.49569L42.3374 9.4985Z" fill="#FFF5C1"/>
<path d="M28.3201 64.3278C28.3201 64.3278 16.8517 63.2582 8.25536 56.8123C8.25536 56.8123 4.72079 46.6522 4.08911 38.4825C3.45744 30.3128 4.2351 25.2819 10.7512 24.8804C17.2672 24.479 22.5396 27.0029 28.3201 27.0029C34.1007 27.0029 39.6566 24.479 46.1727 24.8804C52.6887 25.2819 53.4664 30.3128 52.8347 38.4825C52.203 46.6522 48.6685 56.8123 48.6685 56.8123C41.0463 63.0953 28.3258 64.3278 28.3258 64.3278H28.3201Z" fill="#FFF5C1"/>
<path d="M14.5833 9.4985C14.5833 9.87469 13.3845 10.0375 12.0453 10.8966C10.7034 11.7585 10.111 12.5025 9.63375 12.5025C9.15648 12.5025 8.36759 7.04479 9.5046 6.54507C10.6444 6.04815 14.5833 8.99035 14.5833 9.49569V9.4985Z" fill="#FFF5C1"/>
</g>
<path d="M24.746 42.8846C24.746 42.8846 25.0239 46.9498 28.0138 46.9498C31.0038 46.9498 31.3154 42.9661 31.3154 42.9661C31.3154 42.9661 28.8533 41.4023 28.2581 39.0469C28.2581 39.0469 27.8875 42.0565 24.7432 42.8846H24.746Z" fill="#EDB632"/>
<path d="M39.0893 35.7594C38.6373 35.7594 37.986 42.5927 32.9326 42.5927C28.9236 42.5927 28.626 38.0867 28.6035 36.1889C31.1499 35.5741 33.3622 31.1945 32.8624 30.1164C32.0792 28.4263 23.5389 28.1147 23.101 30.2428C22.8707 31.3601 25.0465 35.8717 27.6771 36.2366C27.6518 38.1625 27.3234 42.5927 23.348 42.5927C18.2946 42.5927 17.6433 35.7594 17.1913 35.7594C16.7393 35.7594 17.5085 43.4995 23.2554 43.3142C26.3071 43.2159 27.6069 41.6522 28.1403 39.9509C28.6737 41.6522 29.9736 43.2159 33.0253 43.3142C38.7693 43.4995 39.5413 35.7594 39.0893 35.7594Z" fill="#692D14"/>
<path d="M15.2793 52.5002C15.2793 52.9241 17.3203 53.9769 20.7117 54.7265C24.1031 55.4761 26.1525 55.5378 26.4136 55.2767C26.6747 55.0156 23.7634 54.9988 20.5517 54.1172C17.34 53.2357 15.2793 52.1043 15.2793 52.5002Z" fill="#FFD94D"/>
<path d="M34.8699 24.7121C35.5858 24.7121 35.1619 21.565 36.7425 21.4527C38.3511 21.3376 38.8986 24.0833 39.2607 24.0833C39.6229 24.0833 38.4999 20.4617 36.8014 20.4617C35.0103 20.4617 34.4347 24.7121 34.8671 24.7121H34.8699Z" fill="#692D14"/>
<path d="M21.6497 24.7121C20.9338 24.7121 21.3578 21.565 19.7772 21.4527C18.1685 21.3376 17.6211 24.0833 17.2589 24.0833C16.8967 24.0833 18.0197 20.4617 19.7182 20.4617C21.5094 20.4617 22.0849 24.7121 21.6526 24.7121H21.6497Z" fill="#692D14"/>
</svg>
