<?xml version="1.0" encoding="utf-8"?><!-- Uploaded to: SVG Repo, www.svgrepo.com, Generator: SVG Repo Mixer Tools -->
<svg version="1.1" id="Uploaded to svgrepo.com" xmlns="http://www.w3.org/2000/svg" xmlns:xlink="http://www.w3.org/1999/xlink" 
	 width="800px" height="800px" viewBox="0 0 32 32" xml:space="preserve">
<style type="text/css">
	.feather_een{fill:#111918;}
	.st0{fill:#0B1719;}
</style>
<path class="feather_een" d="M27.989,7.886c-0.595,0-1.205,0.18-1.753,0.579L20.7,12.491C20.104,11.031,18.674,10,17,10h-2
	c-1.674,0-3.104,1.031-3.7,2.491L5.765,8.465C5.216,8.066,4.606,7.886,4.011,7.886C2.456,7.886,1,9.118,1,10.891v10.217
	c0,1.774,1.455,3.005,3.011,3.005c0.595,0,1.205-0.18,1.753-0.579l5.535-4.026C11.896,20.969,13.326,22,15,22h2
	c1.674,0,3.104-1.031,3.7-2.491l5.535,4.026c0.549,0.399,1.158,0.579,1.753,0.579c1.556,0,3.011-1.232,3.011-3.005V10.891
	C31,9.118,29.544,7.886,27.989,7.886z M2,10.891c0-1.239,1.044-2.005,2.011-2.005c0.413,0,0.816,0.134,1.165,0.388l0.488,0.355
	L2,13.293V10.891z M2,14.707l4.483-4.483l2.076,1.51L2,18.293V14.707z M11,18.491l-5.824,4.235
	c-0.349,0.254-0.752,0.388-1.165,0.388c-0.126,0-0.253-0.014-0.379-0.04L11,15.707V18.491z M11,14.293l-8.315,8.315
	C2.282,22.26,2,21.749,2,21.109v-1.402l7.378-7.378L11,13.509V14.293z M12,14c0-1.654,1.346-3,3-3h0.293L12,14.293V14z
	 M12.21,19.083C12.079,18.746,12,18.383,12,18v-2.293L16.707,11H17c0.902,0,1.702,0.408,2.253,1.04L12.21,19.083z M20,18
	c0,1.654-1.346,3-3,3h-0.293L20,17.707V18z M20,16.293L15.293,21H15c-0.902,0-1.702-0.408-2.253-1.04l7.043-7.043
	C19.921,13.254,20,13.617,20,14V16.293z M21,13.509l5.824-4.235c0.349-0.254,0.752-0.388,1.165-0.388
	c0.126,0,0.253,0.014,0.379,0.04L21,16.293V13.509z M30,21.109c0,1.239-1.044,2.005-2.011,2.005c-0.413,0-0.816-0.134-1.165-0.388
	l-0.488-0.355L30,18.707V21.109z M30,17.293l-4.483,4.483l-2.076-1.51L30,13.707V17.293z M30,12.293l-7.378,7.378L21,18.491v-0.784
	l8.315-8.315C29.718,9.74,30,10.251,30,10.891V12.293z"/>
</svg>