<svg width="141" height="30" viewBox="0 0 141 30" fill="none" xmlns="http://www.w3.org/2000/svg">
<g clip-path="url(#clip0_683_12341)">
<path d="M0.540578 16.7085C0.540578 14.1791 0.540578 14.0063 0.540578 11.4768C0.540578 11.2019 0.564078 10.9269 0.540578 10.652C0.376078 9.08089 1.59024 8.2325 2.45974 8.24821C3.57208 8.26392 4.32408 9.20658 4.33191 10.6834C4.34758 15.7973 4.33191 18.5624 4.33191 23.6763C4.33191 25.0484 5.03169 25.7371 6.43124 25.7423C7.85691 25.7423 9.28258 25.7737 10.7082 25.7266C13.1366 25.6559 14.7894 23.9041 14.7816 21.4768C14.7659 19.0495 13.1131 17.3134 10.7004 17.2034C9.98758 17.172 9.26691 17.2349 8.56191 17.1327C7.37908 16.9599 6.75241 16.2058 6.77591 15.1453C6.79158 14.2419 7.15974 13.6999 8.05274 13.4642C8.68724 13.2993 9.34524 13.2521 10.0032 13.1814C11.8832 12.9772 13.2462 11.7046 13.4107 9.97641C13.6301 7.69833 12.6431 6.13509 10.5829 5.60878C9.95624 5.45167 9.29041 5.38882 8.64024 5.38097C6.72108 5.34955 4.80191 5.37311 2.88274 5.37311C2.49891 5.37311 2.10724 5.39668 1.73124 5.34169C0.799078 5.20815 0.0862442 4.46188 7.75121e-05 3.59778C-0.0704225 2.8358 0.493578 1.99526 1.33958 1.72818C1.74691 1.59464 2.20124 1.57107 2.63208 1.57107C4.88024 1.55536 7.12841 1.57107 9.37658 1.57107C13.4577 1.55536 16.9592 4.35976 17.3587 8.9552C17.5154 10.7934 16.9201 12.553 15.7529 14.0298C15.3221 14.5719 15.3534 14.8311 15.8234 15.3574C16.6537 16.2843 17.5154 17.2741 18.0246 18.3896C20.4686 23.802 15.9487 29.3244 11.7031 29.4815C9.19641 29.5758 6.66624 29.6779 4.18308 29.458C1.87224 29.2537 0.595411 27.6198 0.564078 25.2946C0.517078 22.4352 0.556244 19.5758 0.556244 16.7085H0.540578Z" fill="#F72585"/>
<path d="M42.4017 19.7015C42.4017 22.066 42.4174 24.4305 42.3939 26.795C42.3939 27.447 42.3312 28.1147 42.1667 28.751C41.9552 29.568 41.3285 30 40.6079 29.9136C39.8324 29.8193 39.2919 29.3951 39.1039 28.6096C39.0569 28.3975 39.0569 28.1697 39.0647 27.9497C39.0882 27.392 38.9394 27.2349 38.4615 27.6434C37.0907 28.806 35.4692 29.4344 33.7302 29.7958C29.8684 30.6049 25.043 28.5468 22.9359 24.5562C19.5519 18.154 23.3589 11.3983 28.897 9.71722C32.3594 8.66459 35.4849 9.30873 38.3362 11.4768C38.532 11.6261 38.7749 11.7046 39.002 11.8225C39.0255 11.6025 39.0725 11.3826 39.0647 11.1705C39.0099 10.3064 39.3075 9.58368 40.177 9.39514C40.6392 9.29302 41.2345 9.4737 41.6732 9.70936C41.9474 9.85862 42.1354 10.3142 42.2137 10.6677C42.3469 11.249 42.4017 11.8618 42.4095 12.4588C42.433 14.8783 42.4174 17.2977 42.4174 19.7172L42.4017 19.7015ZM25.0039 19.6387C24.855 23.1893 27.8082 26.6143 31.9912 26.6379C35.9392 26.6614 38.9864 23.5428 39.0177 19.6387C39.049 15.9702 36.1429 12.5059 31.905 12.5766C27.9727 12.6394 24.9882 15.6402 25.0039 19.6387Z" fill="#7209B7"/>
<path d="M74.1345 19.6386C74.1345 22.2231 74.1345 24.8075 74.1345 27.3998C74.1345 27.8397 74.1737 28.3032 74.0484 28.7117C73.8525 29.3951 73.3669 29.8271 72.6149 29.8743C71.902 29.9136 71.2127 29.4187 71.0325 28.696C70.9542 28.3817 71.009 28.0361 70.9464 27.714C70.9229 27.6198 70.6409 27.4627 70.5782 27.5019C70.2022 27.7297 69.8732 28.0282 69.505 28.2561C65.7607 30.5891 61.6952 30.5499 58.0605 28.1225C54.7235 25.8916 52.8592 21.5711 53.6974 17.7847C54.6609 13.4328 57.285 10.5813 61.6639 9.49722C64.8834 8.69596 67.719 9.58363 70.304 11.5239C70.4685 11.6496 70.6644 11.7439 70.8445 11.8539C70.8837 11.6575 70.9385 11.4611 70.962 11.2568C70.9855 11.0369 70.962 10.8091 70.9934 10.597C71.1422 9.81144 71.8785 9.19086 72.5992 9.23013C73.2885 9.26156 73.9544 9.835 74.0797 10.5577C74.1502 10.9898 74.1267 11.4375 74.1267 11.8774C74.1267 14.4619 74.1267 17.0463 74.1267 19.6386H74.1345ZM56.9247 19.5679C56.6584 23.3621 59.9875 26.7164 63.9747 26.63C68.142 26.5436 70.868 23.3542 70.9072 19.6858C70.9542 15.5381 67.7739 12.6237 63.865 12.5451C60.4967 12.4744 56.627 15.6795 56.9247 19.5679Z" fill="#7209B7"/>
<path d="M133.676 20.22C131.866 20.22 130.057 20.2357 128.247 20.22C127.025 20.2043 126.313 19.5837 126.36 18.6567C126.407 17.7141 127.112 17.1014 128.302 17.0856C130.605 17.0542 132.908 17.0778 135.211 17.0778C135.54 17.0778 135.869 17.0856 136.198 17.0778C137.24 17.0307 137.35 16.8186 136.856 15.8995C134.937 12.3331 130.073 11.4768 126.947 14.1241C124.597 16.1194 123.876 18.7196 124.621 21.5554C125.388 24.4619 127.527 26.1744 130.527 26.5829C132.846 26.8971 134.851 26.1273 136.465 24.4069C136.88 23.967 137.24 23.4721 137.687 23.0715C138.251 22.5688 139.097 22.5688 139.653 22.993C140.256 23.4486 140.42 24.0849 140.193 24.7604C140.044 25.216 139.747 25.6402 139.441 26.0252C136.684 29.568 131.655 30.8955 127.605 29.2223C123.218 27.3999 120.649 23.2208 121.072 18.4761C121.456 14.1713 124.91 10.5185 129.258 9.45014C134.209 8.2404 139.762 11.6418 140.883 17.4863C141.196 19.1438 140.945 20.3692 138.603 20.2435C136.966 20.1571 135.313 20.2278 133.668 20.2278L133.676 20.22Z" fill="#7209B7"/>
<path d="M78.2236 19.8429C78.2236 17.2035 78.208 14.564 78.2393 11.9246C78.2393 11.4061 78.3255 10.7856 78.6075 10.3849C79.289 9.42657 80.8086 9.67009 81.216 10.8798C81.5136 11.7596 81.7643 11.4926 82.2578 11.1783C83.8323 10.1885 85.5321 9.79578 87.4121 9.79578C91.3758 9.79578 95.9035 13.5428 95.8486 18.2561C95.8095 21.4454 95.8486 24.6347 95.8486 27.8241C95.8486 28.099 95.8486 28.3818 95.8095 28.6489C95.6763 29.4187 95.0888 29.945 94.3525 29.9607C93.6083 29.9764 93.0678 29.5994 92.8485 28.9081C92.7075 28.4525 92.7153 27.934 92.7153 27.447C92.7075 24.6426 92.7388 21.8382 92.6996 19.0338C92.6605 16.0644 90.8823 13.967 88.1406 13.1579C85.6496 12.4195 82.1716 14.5562 81.6703 17.1249C81.5058 17.9812 81.3883 18.861 81.3805 19.7329C81.3413 22.3724 81.3805 25.0118 81.357 27.6512C81.357 28.1304 81.31 28.6646 81.1063 29.0809C80.8008 29.7015 80.2525 30.0786 79.4848 29.9293C78.7328 29.7801 78.2706 29.2852 78.2471 28.4211C78.2001 26.8814 78.2315 25.3417 78.2315 23.8021C78.2315 22.4823 78.2315 21.1626 78.2315 19.8429H78.2236Z" fill="#7209B7"/>
<path d="M103.345 19.5994C103.29 22.6708 104.771 24.7447 107.34 25.9623C110.003 27.2192 112.573 26.8185 114.86 24.9175C115.111 24.7054 115.33 24.4462 115.588 24.2576C116.395 23.6685 116.998 23.6921 117.649 24.3048C118.322 24.9332 118.51 25.8366 117.86 26.5043C117.03 27.3606 116.113 28.2247 115.064 28.7431C111.131 30.6913 107.269 30.4085 103.831 27.6276C100.635 25.0432 99.3108 21.5632 100.204 17.502C101.144 13.205 103.87 10.5184 108.178 9.46582C111.108 8.75097 113.701 9.55223 116.137 11.0919C116.638 11.4061 117.085 11.8539 117.437 12.3252C117.923 12.9694 117.821 13.6842 117.288 14.2812C116.756 14.8861 116.113 15.0039 115.377 14.5876C115.04 14.399 114.75 14.1477 114.437 13.9277C112.071 12.2545 109.518 12.0188 107.003 13.3778C104.575 14.6897 103.173 16.7714 103.321 19.5915L103.345 19.5994Z" fill="#7209B7"/>
<path d="M46.295 14.3676C46.295 10.3613 46.295 6.3472 46.295 2.34091C46.295 0.761965 46.8904 -0.0628578 47.9401 -1.4154e-05C48.9427 0.0628295 49.4362 0.793387 49.4362 2.3252C49.4362 9.63078 49.4362 16.9364 49.4362 24.2341C49.4362 24.619 49.4519 25.0039 49.4362 25.3888C49.3971 26.1508 49.6007 26.5672 50.4937 26.685C51.6295 26.8342 52.1231 27.5255 52.0212 28.4368C51.9272 29.348 51.0812 29.9843 50.0002 29.9529C47.6816 29.89 46.3029 28.4603 46.295 26.0565C46.2794 22.1602 46.295 18.2561 46.295 14.3598V14.3676Z" fill="#7209B7"/>
</g>
<defs>
<clipPath id="clip0_683_12341">
<rect width="141" height="30" fill="white"/>
</clipPath>
</defs>
</svg>
