<?xml version="1.0" encoding="utf-8"?>
<!-- Uploaded to: SVG Repo, www.svgrepo.com, Generator: SVG Repo Mixer Tools -->
<svg width="800px" height="800px" viewBox="0 -421 1866 1866" class="icon"  version="1.1" xmlns="http://www.w3.org/2000/svg"><path d="M1118.310885 55.542774l146.125955 0 0 80.891154-146.125955 0 0-80.891154Z" fill="#EA5D5C" /><path d="M1152.605752 155.072443s493.920641-12.30142 621.408081 223.662177 27.957772 602.769567 27.957772 602.769566l-1279.720422 21.620677v-332.511103S438.005096 133.078995 1152.605752 155.072443z" fill="#FFFFFF" /><path d="M48.087368 856.998908l1450.821988 0 0 121.150346-1450.821988 0 0-121.150346Z" fill="#6A87C4" /><path d="M900.240262 574.439024m-131.215144 0a131.215144 131.215144 0 1 0 262.430288 0 131.215144 131.215144 0 1 0-262.430288 0Z" fill="#EA5D5C" /><path d="M1302.45941 113.69494v-37.27703a74.554059 74.554059 0 0 0-74.554059-74.554059h-74.554059a74.554059 74.554059 0 0 0-74.554059 74.554059v37.27703C743.303968 133.824536 484.601383 265.41245 484.601383 613.952676v186.385147H111.831088a111.831088 111.831088 0 0 0 0 223.662177h1752.020386v-410.047324c0-339.593739-241.927921-473.791045-561.392064-500.257736z m145.380415 685.151802H931.925737v-42.495814a186.385147 186.385147 0 0 0 31.685475-357.113942 335.493265 335.493265 0 0 1 133.451766-174.456498 478.264288 478.264288 0 0 1 79.400073-37.27703h23.111758a479.382599 479.382599 0 0 1 79.027302 37.27703c111.831088 70.453586 168.864944 208.751365 168.864944 361.214416v212.851838z m-549.090644-337.357117a111.831088 111.831088 0 1 1-111.831089 111.831089 111.831088 111.831088 0 0 1 111.831089-111.831089z m254.602111-387.308336h74.554059v34.667637h-74.554059v-34.667637zM559.155442 610.970513c0-152.463051 54.797233-260.939206 167.001092-331.392792a698.198762 698.198762 0 0 1 295.606844-89.464871 438.377867 438.377867 0 0 0-131.960684 196.822716 186.385147 186.385147 0 0 0-32.431016 366.80597v43.986895h-298.216236v-186.385147z m-447.324354 335.493266a37.277029 37.277029 0 0 1 0-74.554059h1335.635967v74.554059H111.831088z m1677.466327 0h-267.276301v-361.959957c0-168.119403-62.252639-305.671642-162.527849-391.036039a665.767747 665.767747 0 0 1 260.939207 85.364398c111.831088 70.453586 167.001092 178.929742 167.001092 331.392792v335.493265z" fill="#3F4651" /></svg>