<svg width="335" height="330" viewBox="0 0 335 330" fill="none" xmlns="http://www.w3.org/2000/svg">
<g filter="url(#filter0_f_357_2690)">
<path d="M27.0512 309.99C23.1816 309.99 20.0191 306.749 20.0287 302.782C20 86.0431 20.1338 111.024 20 105.37C20 101.489 20.5159 88.3695 21.6338 85.7571C30.8921 64.0946 53.2974 50.2504 89.4802 44.7776C104.624 42.4893 118.478 38.7422 130.736 32.9166C134.931 30.9239 139.087 28.9026 143.31 26.9289C155.607 21.1605 171.926 21.2559 184.031 27.1387C192.028 31.0288 194.675 31.0669 202.729 27.3771C227.122 16.193 256.617 17.8139 276.863 31.639C282.022 35.1668 287.803 37.2262 295.647 37.722C305.736 38.3608 311.701 38.6267 314.5 44.5C315.319 46.219 313.074 50.8101 305 54.5C301.809 55.9588 298.513 57.3413 295.102 58.6094C288.356 61.1074 286.924 72.6185 286.895 77.2236C286.885 78.835 286.857 80.4368 286.857 82.0481C286.857 138.988 286.857 181.76 286.857 213.863C286.857 266.961 244.826 310 192.974 310H27.0512V309.99Z" fill="#A5FFCF"/>
</g>
<path d="M20.38 317.147C16.33 317.147 13.02 313.747 13.03 309.587C13 82.2672 13.14 108.467 13 102.537C13 98.4672 13.54 84.7072 14.71 81.9672C24.4 59.2472 47.85 44.7272 85.72 38.9872C101.57 36.5872 116.07 32.6572 128.9 26.5472C133.29 24.4572 137.64 22.3372 142.06 20.2672C154.93 14.2172 172.01 14.3172 184.68 20.4872C193.05 24.5672 195.82 24.6072 204.25 20.7372C229.78 9.00719 260.65 10.7072 281.84 25.2072C287.24 28.9072 293.29 31.0672 301.5 31.5872C312.06 32.2572 318.96 35.9772 321.89 42.1372C324.61 47.8672 321.16 53.5072 312.71 57.3772C309.37 58.9072 305.92 60.3572 302.35 61.6872C295.29 64.3072 292.37 68.1872 292.34 73.0172C292.33 74.7072 292.3 76.3872 292.3 78.0772C292.3 137.797 292.3 182.657 292.3 216.327C292.3 272.017 248.31 317.157 194.04 317.157H107.21H20.38V317.147Z" fill="#A5FFCF"/>
<path d="M221.78 71.3572C222.52 68.7572 222.59 65.3372 225.6 63.0672C227.85 61.3672 230.18 61.0772 232.59 62.2572C234.82 63.3472 236.26 66.5072 235.62 69.1172C235.07 71.3572 234.25 73.5772 233.18 75.6172C231.75 78.3172 228.7 79.3872 225.91 78.5372C223.29 77.7372 221.62 75.0772 221.79 71.3572H221.78Z" fill="#41617F"/>
<path d="M254.82 69.9572C255.66 70.1572 256.32 70.2572 256.95 70.4772C261.08 71.8772 262.59 74.2972 261.56 78.4472C260.88 81.1572 260.27 83.9872 258 86.0072C256.08 87.7272 253.8 88.2172 251.59 86.9872C249.48 85.8072 247.59 83.9572 248 81.4772C248.74 76.9572 249.19 72.0172 254.83 69.9572H254.82Z" fill="#41617F"/>
<defs>
<filter id="filter0_f_357_2690" x="0" y="0" width="334.658" height="330" filterUnits="userSpaceOnUse" color-interpolation-filters="sRGB">
<feFlood flood-opacity="0" result="BackgroundImageFix"/>
<feBlend mode="normal" in="SourceGraphic" in2="BackgroundImageFix" result="shape"/>
<feGaussianBlur stdDeviation="10" result="effect1_foregroundBlur_357_2690"/>
</filter>
</defs>
</svg>
