<svg width="31" height="30" viewBox="0 0 31 30" fill="none" xmlns="http://www.w3.org/2000/svg">
<path d="M7.60934 12.58C9.7025 12.58 11.3993 10.8832 11.3993 8.79C11.3993 6.69684 9.7025 5 7.60934 5C5.51618 5 3.81934 6.69684 3.81934 8.79C3.81934 10.8832 5.51618 12.58 7.60934 12.58Z" fill="#4A0D72"/>
<path d="M21.2099 12.58C23.3031 12.58 24.9999 10.8832 24.9999 8.79C24.9999 6.69684 23.3031 5 21.2099 5C19.1168 5 17.4199 6.69684 17.4199 8.79C17.4199 10.8832 19.1168 12.58 21.2099 12.58Z" fill="#4A0D72"/>
<path d="M17.2212 5.07086L29.4826 6.90679C29.8777 6.96594 30.1774 4.98852 29.7788 4.92884L17.5174 3.0929C17.1223 3.03375 16.8226 5.01117 17.2212 5.07086Z" fill="#4A0D72"/>
<path d="M11.1544 3.85199C10.7817 4.43664 9.21475 5.36147 5.92859 4.38359C2.64243 3.40571 1.65348 1.72031 1.56978 0.999846" stroke="#4A0D72" stroke-width="2" stroke-linecap="round"/>
<path d="M4 28.9999C4 28.9999 7.77143 23.9999 16 23.9999C24.2286 23.9999 28 28.9999 28 28.9999" stroke="#4A0D72" stroke-width="2" stroke-linecap="round"/>
</svg>
