<?xml version="1.0" encoding="utf-8"?>
<svg width="113" height="106" viewBox="0 0 113 106" fill="none" xmlns="http://www.w3.org/2000/svg">
  <rect x="7" y="7" width="92" height="93" rx="22" fill="white"/>
  <path d="M7 29C7 16.8497 16.8497 7 29 7H37V37H7V29Z" fill="#4CC9F0"/>
  <path d="M83.5039 30.18C82.3839 30.18 81.4306 29.9067 80.6439 29.36C79.8572 28.8133 79.2572 28.0267 78.8439 27C78.4306 25.9733 78.2239 24.7333 78.2239 23.28C78.2239 22.0533 78.3506 20.9733 78.6039 20.04C78.8706 19.1067 79.2506 18.32 79.7439 17.68C80.2506 17.04 80.8572 16.5533 81.5639 16.22C82.2839 15.8867 83.0972 15.72 84.0039 15.72C84.6172 15.72 85.2439 15.8333 85.8839 16.06C86.5239 16.2733 87.0972 16.6 87.6039 17.04C87.7506 17.1467 87.8439 17.2867 87.8839 17.46C87.9372 17.62 87.9439 17.78 87.9039 17.94C87.8639 18.0867 87.7839 18.2133 87.6639 18.32C87.5572 18.4267 87.4239 18.4867 87.2639 18.5C87.1039 18.5133 86.9306 18.46 86.7439 18.34C86.2906 17.98 85.8306 17.72 85.3639 17.56C84.8972 17.4 84.4306 17.32 83.9639 17.32C83.1239 17.32 82.4106 17.5333 81.8239 17.96C81.2372 18.3733 80.7906 18.9933 80.4839 19.82C80.1772 20.6467 80.0239 21.68 80.0239 22.92V24.7H79.8239C79.9172 23.9533 80.1372 23.3133 80.4839 22.78C80.8439 22.2467 81.3106 21.8333 81.8839 21.54C82.4572 21.2467 83.0906 21.1 83.7839 21.1C84.6106 21.1 85.3372 21.2933 85.9639 21.68C86.6039 22.0667 87.1039 22.5933 87.4639 23.26C87.8372 23.9267 88.0239 24.7 88.0239 25.58C88.0239 26.46 87.8306 27.2533 87.4439 27.96C87.0572 28.6533 86.5239 29.2 85.8439 29.6C85.1639 29.9867 84.3839 30.18 83.5039 30.18ZM83.3839 28.64C83.9572 28.64 84.4572 28.5133 84.8839 28.26C85.3106 28.0067 85.6439 27.6533 85.8839 27.2C86.1372 26.7467 86.2639 26.2267 86.2639 25.64C86.2639 25.0533 86.1372 24.5333 85.8839 24.08C85.6439 23.6267 85.3106 23.2733 84.8839 23.02C84.4572 22.7667 83.9572 22.64 83.3839 22.64C82.8106 22.64 82.3106 22.7667 81.8839 23.02C81.4572 23.2733 81.1172 23.6267 80.8639 24.08C80.6239 24.5333 80.5039 25.0533 80.5039 25.64C80.5039 26.2267 80.6239 26.7467 80.8639 27.2C81.1172 27.6533 81.4572 28.0067 81.8839 28.26C82.3106 28.5133 82.8106 28.64 83.3839 28.64Z" fill="#4A0D72"/>
  <path d="M50.1039 93C49.8506 93 49.6506 92.9267 49.5039 92.78C49.3572 92.6333 49.2839 92.44 49.2839 92.2C49.2839 91.9467 49.3572 91.7533 49.5039 91.62C49.6506 91.4867 49.8506 91.42 50.1039 91.42H52.6239V80.44H53.5839L50.6639 82.32C50.4772 82.44 50.2972 82.4933 50.1239 82.48C49.9639 82.4533 49.8239 82.3867 49.7039 82.28C49.5839 82.16 49.5039 82.02 49.4639 81.86C49.4239 81.7 49.4306 81.54 49.4839 81.38C49.5506 81.2067 49.6839 81.0667 49.8839 80.96L52.6439 79.16C52.8439 79.04 53.0306 78.9467 53.2039 78.88C53.3906 78.8 53.5706 78.76 53.7439 78.76C53.9439 78.76 54.1172 78.82 54.2639 78.94C54.4106 79.06 54.4839 79.2533 54.4839 79.52V91.42H56.8039C57.0706 91.42 57.2706 91.4867 57.4039 91.62C57.5506 91.7533 57.6239 91.9467 57.6239 92.2C57.6239 92.4533 57.5506 92.6533 57.4039 92.8C57.2706 92.9333 57.0706 93 56.8039 93H50.1039Z" fill="#4A0D72"/>
  <path d="M80.3839 61.14C80.1706 61.14 79.9839 61.0867 79.8239 60.98C79.6772 60.8733 79.5839 60.7333 79.5439 60.56C79.5172 60.3733 79.5639 60.16 79.6839 59.92L86.0239 47.74V48.48H78.9839C78.7172 48.48 78.5106 48.4133 78.3639 48.28C78.2172 48.1333 78.1439 47.94 78.1439 47.7C78.1439 47.4467 78.2172 47.2533 78.3639 47.12C78.5106 46.9733 78.7172 46.9 78.9839 46.9H86.8839C87.1506 46.9 87.3639 46.9733 87.5239 47.12C87.6972 47.2533 87.7839 47.4467 87.7839 47.7C87.7839 47.9133 87.7572 48.1 87.7039 48.26C87.6506 48.4067 87.5706 48.58 87.4639 48.78L81.4239 60.52C81.3172 60.7333 81.1772 60.8933 81.0039 61C80.8439 61.0933 80.6372 61.14 80.3839 61.14Z" fill="#4A0D72"/>
  <path d="M52.8239 61.18C52.0506 61.18 51.2772 61.0733 50.5039 60.86C49.7306 60.6467 49.0572 60.3267 48.4839 59.9C48.2972 59.7667 48.1706 59.6133 48.1039 59.44C48.0372 59.2667 48.0172 59.1067 48.0439 58.96C48.0839 58.8 48.1639 58.6667 48.2839 58.56C48.4039 58.4533 48.5506 58.3933 48.7239 58.38C48.8972 58.3533 49.0839 58.4 49.2839 58.52C49.8572 58.8933 50.4239 59.1667 50.9839 59.34C51.5572 59.5 52.1506 59.58 52.7639 59.58C53.4172 59.58 53.9706 59.4867 54.4239 59.3C54.8772 59.1 55.2172 58.8133 55.4439 58.44C55.6839 58.0533 55.8039 57.5933 55.8039 57.06C55.8039 56.26 55.5439 55.66 55.0239 55.26C54.5039 54.8467 53.7439 54.64 52.7439 54.64H51.3439C51.0639 54.64 50.8506 54.5733 50.7039 54.44C50.5572 54.2933 50.4839 54.1 50.4839 53.86C50.4839 53.6067 50.5572 53.4133 50.7039 53.28C50.8506 53.1467 51.0639 53.08 51.3439 53.08H52.5839C53.1706 53.08 53.6706 52.98 54.0839 52.78C54.4972 52.5667 54.8172 52.2733 55.0439 51.9C55.2839 51.5267 55.4039 51.0733 55.4039 50.54C55.4039 49.82 55.1706 49.2733 54.7039 48.9C54.2372 48.5133 53.5639 48.32 52.6839 48.32C52.1106 48.32 51.5706 48.4067 51.0639 48.58C50.5572 48.74 50.0439 49.0133 49.5239 49.4C49.3506 49.52 49.1772 49.58 49.0039 49.58C48.8306 49.5667 48.6839 49.5067 48.5639 49.4C48.4572 49.2933 48.3839 49.1667 48.3439 49.02C48.3039 48.86 48.3106 48.6933 48.3639 48.52C48.4172 48.3467 48.5372 48.1933 48.7239 48.06C49.2706 47.6333 49.8972 47.3067 50.6039 47.08C51.3239 46.84 52.0639 46.72 52.8239 46.72C53.7439 46.72 54.5306 46.8667 55.1839 47.16C55.8506 47.4533 56.3572 47.8733 56.7039 48.42C57.0506 48.9533 57.2239 49.6 57.2239 50.36C57.2239 50.9333 57.1172 51.46 56.9039 51.94C56.6906 52.4067 56.3839 52.8067 55.9839 53.14C55.5972 53.46 55.1239 53.6867 54.5639 53.82V53.6C55.5372 53.7733 56.2906 54.18 56.8239 54.82C57.3706 55.4467 57.6439 56.2333 57.6439 57.18C57.6439 57.9933 57.4439 58.7067 57.0439 59.32C56.6572 59.92 56.1039 60.38 55.3839 60.7C54.6639 61.02 53.8106 61.18 52.8239 61.18Z" fill="#4A0D72"/>
  <path d="M24.3439 61.14C24.0506 61.14 23.8239 61.06 23.6639 60.9C23.5039 60.74 23.4239 60.5067 23.4239 60.2V58.06H17.8639C17.5706 58.06 17.3306 57.9933 17.1439 57.86C16.9706 57.7267 16.8839 57.52 16.8839 57.24C16.8839 57.08 16.9239 56.9133 17.0039 56.74C17.0839 56.5667 17.2239 56.3333 17.4239 56.04L23.3639 47.38C23.5106 47.18 23.6639 47.0267 23.8239 46.92C23.9972 46.8133 24.1906 46.76 24.4039 46.76C24.6439 46.76 24.8439 46.84 25.0039 47C25.1772 47.1467 25.2639 47.38 25.2639 47.7V56.48H26.6239C26.9172 56.48 27.1372 56.5467 27.2839 56.68C27.4306 56.8133 27.5039 57.0067 27.5039 57.26C27.5039 57.5267 27.4306 57.7267 27.2839 57.86C27.1372 57.9933 26.9172 58.06 26.6239 58.06H25.2639V60.2C25.2639 60.5067 25.1839 60.74 25.0239 60.9C24.8639 61.06 24.6372 61.14 24.3439 61.14ZM23.4239 56.48V49.08H23.9239L18.5239 56.98V56.48H23.4239Z" fill="#4A0D72"/>
  <line x1="99" y1="69.054" x2="7" y2="69.054" stroke="#DFE4E8"/>
  <line x1="99" y1="69.054" x2="7" y2="69.054" stroke="#DFE4E8"/>
  <line x1="99" y1="37.946" x2="7" y2="37.9461" stroke="#DFE4E8"/>
  <line x1="99" y1="37.946" x2="7" y2="37.9461" stroke="#DFE4E8"/>
  <line x1="36.9453" y1="99.6619" x2="36.9453" y2="6.99998" stroke="#DFE4E8"/>
  <line x1="36.9453" y1="99.6619" x2="36.9453" y2="6.99998" stroke="#DFE4E8"/>
  <line x1="68.0537" y1="99.6619" x2="68.0537" y2="6.99998" stroke="#DFE4E8"/>
  <line x1="68.0537" y1="99.6619" x2="68.0537" y2="6.99998" stroke="#DFE4E8"/>
  <g filter="url(#filter0_d_0_1)">
    <rect x="7" y="7" width="91.7794" height="92.4413" rx="22" stroke="white" stroke-opacity="0.03"/>
  </g>
  <circle cx="96" cy="85.3436" r="17" fill="#F72585"/>
  <path fill-rule="evenodd" clip-rule="evenodd" d="M103.934 87.4523C103.859 86.7372 103.543 83.5647 103.42 82.4393C103.253 80.9147 101.986 79.771 100.465 79.7698C99.7552 79.7693 99.1207 79.9972 98.5663 80.4453C98.5132 80.4882 98.4386 80.5445 98.3822 80.5369C97.9103 80.4702 97.4403 80.3897 96.9515 80.3105V79.5934C96.9515 79.5934 96.9444 79.3436 96.6705 79.3436H95.2944C95.0203 79.3436 95.0134 79.5934 95.0134 79.5934V80.3105C94.5246 80.3896 94.0544 80.47 93.5827 80.5369C93.5263 80.5445 93.4516 80.4881 93.3986 80.4453C92.8443 79.9972 92.2097 79.7693 91.4994 79.7698C89.9784 79.771 88.712 80.9146 88.5449 82.4393C88.4218 83.565 88.1057 86.7374 88.0304 87.4523C87.919 88.509 88.0577 89.9331 89.4079 90.2566C90.6626 90.5574 91.7587 90.0569 92.4488 89.0839C92.8695 88.4906 93.3305 87.9256 93.7803 87.3529C93.8231 87.2982 93.9136 87.2512 93.9823 87.2508H97.9824C98.0512 87.2512 98.1417 87.2982 98.1847 87.3529C98.6344 87.9256 99.0953 88.4906 99.5161 89.0839C100.206 90.0571 101.302 90.5574 102.557 90.2566C103.907 89.9331 104.046 88.509 103.934 87.4523ZM93.7843 84.7183C93.7843 84.7934 93.7234 84.8543 93.6482 84.8543H92.6279V85.8747C92.6279 85.9498 92.5668 86.0106 92.4918 86.0106H91.7661C91.691 86.0106 91.63 85.9498 91.63 85.8747V84.8543H90.6097C90.5345 84.8543 90.4736 84.7932 90.4736 84.7183V83.9926C90.4736 83.9175 90.5345 83.8565 90.6097 83.8565H91.63V82.8361C91.63 82.761 91.6911 82.7002 91.7661 82.7002H92.4918C92.5669 82.7002 92.6279 82.7611 92.6279 82.8361V83.8565H93.6482C93.7234 83.8565 93.7843 83.9176 93.7843 83.9926V84.7183ZM99.1776 84.6858C99.1776 84.773 99.12 84.8438 99.0485 84.8438H98.3298C98.2585 84.8438 98.2007 84.7731 98.2007 84.6858L98.2008 84.0248C98.2008 83.9376 98.2583 83.8668 98.3299 83.8668H99.0486C99.1199 83.8668 99.1777 83.9375 99.1777 84.0248L99.1776 84.6858ZM100.511 86.0478C100.511 86.1191 100.44 86.1769 100.353 86.1769H99.6916C99.6044 86.1769 99.5337 86.1193 99.5337 86.0478L99.5338 85.329C99.5338 85.2576 99.6044 85.1998 99.6917 85.1998H100.353C100.44 85.1998 100.511 85.2574 100.511 85.329L100.511 86.0478ZM100.511 83.3817C100.511 83.453 100.44 83.5108 100.353 83.5108H99.6916C99.6044 83.5108 99.5337 83.4532 99.5337 83.3817V82.663C99.5337 82.5916 99.6043 82.5338 99.6916 82.5338H100.353C100.44 82.5338 100.511 82.5914 100.511 82.663V83.3817ZM101.844 84.6858C101.844 84.773 101.786 84.8438 101.715 84.8438H100.996C100.924 84.8438 100.867 84.7731 100.867 84.6858V84.0248C100.867 83.9376 100.924 83.8668 100.996 83.8668H101.715C101.786 83.8668 101.844 83.9376 101.844 84.0248V84.6858Z" fill="white"/>
  <defs>
    <filter id="filter0_d_0_1" x="0.5" y="0.5" width="104.779" height="105.441" filterUnits="userSpaceOnUse" color-interpolation-filters="sRGB">
      <feFlood flood-opacity="0" result="BackgroundImageFix"/>
      <feColorMatrix in="SourceAlpha" type="matrix" values="0 0 0 0 0 0 0 0 0 0 0 0 0 0 0 0 0 0 127 0" result="hardAlpha"/>
      <feOffset/>
      <feGaussianBlur stdDeviation="3"/>
      <feComposite in2="hardAlpha" operator="out"/>
      <feColorMatrix type="matrix" values="0 0 0 0 0 0 0 0 0 0 0 0 0 0 0 0 0 0 0.25 0"/>
      <feBlend mode="normal" in2="BackgroundImageFix" result="effect1_dropShadow_0_1"/>
      <feBlend mode="normal" in="SourceGraphic" in2="effect1_dropShadow_0_1" result="shape"/>
    </filter>
  </defs>
</svg>