<?xml version="1.0" encoding="utf-8"?>
<!-- Uploaded to: SVG Repo, www.svgrepo.com, Generator: SVG Repo Mixer Tools -->
<svg width="800px" height="800px" viewBox="0 0 1024 1024" class="icon"  version="1.1" xmlns="http://www.w3.org/2000/svg"><path d="M137.216 548.864H40.96c-12.288 0-20.48-8.192-20.48-20.48v-129.024c0-12.288 8.192-20.48 20.48-20.48h96.256v169.984z" fill="#DD5B59" /><path d="M157.696 569.344H40.96c-22.528 0-40.96-18.432-40.96-40.96v-129.024c0-22.528 18.432-40.96 40.96-40.96h116.736v210.944zM40.96 399.36v129.024h75.776v-129.024H40.96z" fill="#3E4550" /><path d="M886.784 548.864H983.04c12.288 0 20.48-8.192 20.48-20.48v-129.024c0-12.288-8.192-20.48-20.48-20.48h-96.256v169.984z" fill="#DD5B59" /><path d="M983.04 569.344h-116.736V358.4H983.04c22.528 0 40.96 18.432 40.96 40.96v129.024c0 22.528-18.432 40.96-40.96 40.96z m-75.776-40.96H983.04v-129.024h-75.776v129.024z" fill="#3E4550" /><path d="M856.064 253.952H167.936c-45.056 0-81.92 38.912-81.92 83.968v237.568c6.144 110.592 94.208 200.704 204.8 200.704 67.584 0 126.976-32.768 163.84-83.968 14.336-20.48 36.864-30.72 57.344-28.672 22.528 0 43.008 10.24 57.344 28.672 36.864 51.2 96.256 83.968 163.84 83.968 108.544 0 198.656-88.064 204.8-200.704V337.92c0-45.056-36.864-83.968-81.92-83.968z" fill="#FFFFFF" /><path d="M425.984 276.48l-174.08 454.656c28.672 26.624 77.824 20.48 106.496 24.576l184.32-479.232h-116.736zM247.808 276.48l-122.88 335.872c12.288 38.912 34.816 69.632 55.296 92.16l157.696-419.84-90.112-8.192z" fill="#4C66AF" /><path d="M856.064 253.952H167.936c-45.056 0-81.92 38.912-81.92 83.968v237.568c6.144 110.592 94.208 200.704 204.8 200.704 67.584 0 126.976-32.768 163.84-83.968 14.336-20.48 34.816-28.672 57.344-28.672h4.096c20.48 0 43.008 10.24 57.344 28.672 36.864 51.2 96.256 83.968 163.84 83.968 108.544 0 198.656-88.064 204.8-200.704V337.92c-4.096-45.056-40.96-83.968-86.016-83.968z m-458.752 40.96l-159.744 430.08c-14.336-6.144-28.672-12.288-40.96-22.528l151.552-409.6h49.152zM126.976 337.92c0-24.576 18.432-43.008 40.96-43.008H225.28L126.976 573.44V337.92zM143.36 638.976l124.928-344.064h34.816L163.84 673.792c-8.192-10.24-14.336-22.528-20.48-34.816z m135.168 96.256l163.84-440.32h71.68l-157.696 425.984c-20.48 10.24-43.008 14.336-65.536 14.336h-12.288z m618.496-169.984v10.24c-4.096 90.112-75.776 161.792-163.84 161.792-51.2 0-98.304-24.576-131.072-67.584-20.48-28.672-55.296-47.104-90.112-47.104h-4.096c-34.816 0-65.536 16.384-88.064 43.008l135.168-368.64h299.008c22.528 0 40.96 20.48 40.96 43.008v225.28z" fill="#3E4550" /></svg>