<svg width="57" height="65" viewBox="0 0 57 65" fill="none" xmlns="http://www.w3.org/2000/svg">
<path d="M28.601 63.8647C13.57 63.8647 1.87696 53.8871 1.87696 53.8871C1.87696 53.8871 -4.26292 31.0682 5.667 13.6115C5.667 13.6115 1.04876 3.5047 4.27451 0.596195C7.16056 -2.0063 15.9114 4.55469 18.351 7.89274C18.351 7.89274 23.1742 6.49463 28.2613 6.49463C33.3484 6.49463 38.5674 7.89274 38.5674 7.89274C41.0071 4.55469 49.7579 -2.0063 52.6439 0.596195C55.8725 3.50751 51.2514 13.6115 51.2514 13.6115C61.1814 31.0682 55.0415 53.8871 55.0415 53.8871C55.0415 53.8871 43.3485 63.8647 28.3174 63.8647" fill="#FFD94D"/>
<g style="mix-blend-mode:hard-light" opacity="0.92">
<path d="M20.0353 15.5121C21.4025 15.5121 21.7113 16.4919 20.3245 17.3846C18.9348 18.2774 16.7057 20.1051 15.4283 20.5571C14.1509 21.0091 13.1402 19.7092 13.8814 18.6199C14.6254 17.5306 17.4188 15.5093 20.0353 15.5093V15.5121Z" fill="#FFF5C1"/>
<path d="M36.8827 15.5121C35.5155 15.5121 35.2067 16.4919 36.5936 17.3846C37.9833 18.2774 40.2124 20.1051 41.4898 20.5571C42.7671 21.0091 43.7778 19.7092 43.0367 18.6199C42.2927 17.5306 39.4993 15.5093 36.8827 15.5093V15.5121Z" fill="#FFF5C1"/>
<path d="M42.3376 9.4985C42.3376 9.87469 43.5364 10.0375 44.8784 10.8966C46.2203 11.7585 46.8127 12.5025 47.29 12.5025C47.7672 12.5025 48.5561 7.04479 47.4191 6.54507C46.2793 6.04815 42.3405 8.99035 42.3405 9.49569L42.3376 9.4985Z" fill="#FFF5C1"/>
<path d="M28.3201 64.3278C28.3201 64.3278 16.8517 63.2582 8.25536 56.8123C8.25536 56.8123 4.72079 46.6522 4.08911 38.4825C3.45744 30.3128 4.2351 25.2819 10.7512 24.8804C17.2672 24.479 22.5396 27.0029 28.3201 27.0029C34.1007 27.0029 39.6566 24.479 46.1727 24.8804C52.6887 25.2819 53.4664 30.3128 52.8347 38.4825C52.203 46.6522 48.6685 56.8123 48.6685 56.8123C41.0463 63.0953 28.3258 64.3278 28.3258 64.3278H28.3201Z" fill="#FFF5C1"/>
<path d="M14.5833 9.4985C14.5833 9.87469 13.3845 10.0375 12.0453 10.8966C10.7034 11.7585 10.111 12.5025 9.63375 12.5025C9.15648 12.5025 8.36759 7.04479 9.5046 6.54507C10.6444 6.04815 14.5833 8.99035 14.5833 9.49569V9.4985Z" fill="#FFF5C1"/>
</g>
<path d="M24.7462 42.8846C24.7462 42.8846 25.0242 46.9498 28.0141 46.9498C31.004 46.9498 31.3156 42.9661 31.3156 42.9661C31.3156 42.9661 28.8535 41.4023 28.2583 39.0469C28.2583 39.0469 27.8877 42.0565 24.7434 42.8846H24.7462Z" fill="#EDB632"/>
<path d="M39.0895 35.7594C38.6375 35.7594 37.9861 42.5927 32.9327 42.5927C28.9237 42.5927 28.6261 38.0867 28.6037 36.1889C31.15 35.5741 33.3623 31.1945 32.8626 30.1164C32.0793 28.4263 23.539 28.1147 23.1011 30.2428C22.8709 31.3601 25.0466 35.8717 27.6772 36.2366C27.6519 38.1625 27.3235 42.5927 23.3481 42.5927C18.2947 42.5927 17.6434 35.7594 17.1914 35.7594C16.7394 35.7594 17.5087 43.4995 23.2555 43.3142C26.3072 43.2159 27.607 41.6522 28.1404 39.9509C28.6739 41.6522 29.9737 43.2159 33.0254 43.3142C38.7694 43.4995 39.5415 35.7594 39.0895 35.7594Z" fill="#692D14"/>
<path d="M15.2795 52.5002C15.2795 52.9241 17.3206 53.9769 20.7119 54.7265C24.1033 55.4761 26.1528 55.5378 26.4139 55.2767C26.6749 55.0156 23.7636 54.9988 20.5519 54.1172C17.3402 53.2357 15.2795 52.1043 15.2795 52.5002Z" fill="#FFD94D"/>
<path d="M34.8698 24.7121C35.5857 24.7121 35.1618 21.565 36.7423 21.4527C38.351 21.3376 38.8985 24.0833 39.2606 24.0833C39.6228 24.0833 38.4998 20.4617 36.8013 20.4617C35.0102 20.4617 34.4346 24.7121 34.867 24.7121H34.8698Z" fill="#692D14"/>
<path d="M21.6495 24.7121C20.9336 24.7121 21.3575 21.565 19.7769 21.4527C18.1683 21.3376 17.6208 24.0833 17.2587 24.0833C16.8965 24.0833 18.0195 20.4617 19.718 20.4617C21.5091 20.4617 22.0847 24.7121 21.6523 24.7121H21.6495Z" fill="#692D14"/>
</svg>
