<?xml version="1.0" encoding="iso-8859-1"?>
<!-- Uploaded to: SVG Repo, www.svgrepo.com, Generator: SVG Repo Mixer Tools -->
<!DOCTYPE svg PUBLIC "-//W3C//DTD SVG 1.1//EN" "http://www.w3.org/Graphics/SVG/1.1/DTD/svg11.dtd">
<svg height="800px" width="800px" version="1.1" id="Capa_1" xmlns="http://www.w3.org/2000/svg" xmlns:xlink="http://www.w3.org/1999/xlink" 
	 viewBox="0 0 215.17 215.17" xml:space="preserve">
<g>
	<path style="fill:#F2F2F2;" d="M27.831,80.803c-7.304,2.729-11.551,8.944-12.311,15.519c-0.238,2.066-0.26,4.789-0.011,7.813
		l25.549-25.55C35.575,78.947,30.825,79.683,27.831,80.803z"/>
	<path style="opacity:0.73;fill:#05293D;" d="M27.831,80.803c-7.304,2.729-11.551,8.944-12.311,15.519
		c-0.238,2.066-0.26,4.789-0.011,7.813l25.549-25.55C35.575,78.947,30.825,79.683,27.831,80.803z"/>
	<path style="fill:#F2F2F2;" d="M79.216,82.406c-2.662-1.167-6.448-2.083-10.796-2.75l-46.03,46.029
		c0.533,0.771,1.088,1.521,1.692,2.218c3.268,3.76,6.795,6.391,10.708,8.031c5.05,2.121,10.168,2.674,10.168,2.674h7.494
		c0,0,15.182-0.567,25.159-9.633c8.702-7.908,12.385-23.774,12.311-32.113C89.887,93.181,86.281,85.506,79.216,82.406z"/>
	<path style="opacity:0.73;fill:#05293D;" d="M79.216,82.406c-2.662-1.167-6.448-2.083-10.796-2.75l-46.03,46.029
		c0.533,0.771,1.088,1.521,1.692,2.218c3.268,3.76,6.795,6.391,10.708,8.031c5.05,2.121,10.168,2.674,10.168,2.674h7.494
		c0,0,15.182-0.567,25.159-9.633c8.702-7.908,12.385-23.774,12.311-32.113C89.887,93.181,86.281,85.506,79.216,82.406z"/>
	<path style="fill:#F2F2F2;" d="M52.517,78.357L17.14,113.736c0.402,1.522,0.881,3.04,1.439,4.525l39.667-39.665
		C56.35,78.479,54.431,78.399,52.517,78.357z"/>
	<path style="opacity:0.73;fill:#05293D;" d="M52.517,78.357L17.14,113.736c0.402,1.522,0.881,3.04,1.439,4.525l39.667-39.665
		C56.35,78.479,54.431,78.399,52.517,78.357z"/>
	<path style="fill:#F2F2F2;" d="M135.953,82.406c-7.066,3.1-10.672,10.775-10.705,14.456c-0.032,3.671,0.665,8.801,2.195,14.068
		l32.486-32.49C150.417,78.827,141.094,80.151,135.953,82.406z"/>
	<path style="opacity:0.73;fill:#05293D;" d="M135.953,82.406c-7.066,3.1-10.672,10.775-10.705,14.456
		c-0.032,3.671,0.665,8.801,2.195,14.068l32.486-32.49C150.417,78.827,141.094,80.151,135.953,82.406z"/>
	<path style="fill:#F2F2F2;" d="M171.18,78.427l-40.643,40.645c0.641,1.333,1.347,2.622,2.114,3.854l44.133-44.132
		C175.007,78.629,173.127,78.506,171.18,78.427z"/>
	<path style="opacity:0.73;fill:#05293D;" d="M171.18,78.427l-40.643,40.645c0.641,1.333,1.347,2.622,2.114,3.854l44.133-44.132
		C175.007,78.629,173.127,78.506,171.18,78.427z"/>
	<path style="fill:#F2F2F2;" d="M199.652,96.321c-0.762-6.574-5.012-12.789-12.314-15.519c-0.313-0.117-0.645-0.229-0.994-0.338
		l-48.64,48.637c8.653,7.757,21.109,9.21,24.261,9.458c0.333-0.105,0.602-0.08,0.804,0.049h7.44c0,0,5.117-0.553,10.172-2.674
		c3.91-1.641,7.439-4.271,10.703-8.031C198.75,119.08,200.49,103.651,199.652,96.321z"/>
	<path style="opacity:0.73;fill:#05293D;" d="M199.652,96.321c-0.762-6.574-5.012-12.789-12.314-15.519
		c-0.313-0.117-0.645-0.229-0.994-0.338l-48.64,48.637c8.653,7.757,21.109,9.21,24.261,9.458c0.333-0.105,0.602-0.08,0.804,0.049
		h7.44c0,0,5.117-0.553,10.172-2.674c3.91-1.641,7.439-4.271,10.703-8.031C198.75,119.08,200.49,103.651,199.652,96.321z"/>
	<path style="fill:#F2F2F2;" d="M41.057,78.584l-25.549,25.55c0.247,3.003,0.76,6.303,1.632,9.602l35.377-35.379
		C48.568,78.271,44.656,78.347,41.057,78.584z"/>
	<path style="fill:#F2F2F2;" d="M58.246,78.597l-39.667,39.665c0.995,2.647,2.258,5.174,3.811,7.424l46.03-46.029
		C65.256,79.17,61.797,78.817,58.246,78.597z"/>
	<path style="fill:#F2F2F2;" d="M159.93,78.44l-32.486,32.49c0.797,2.74,1.829,5.512,3.094,8.142l40.643-40.645
		C167.569,78.281,163.735,78.285,159.93,78.44z"/>
	<path style="fill:#F2F2F2;" d="M176.784,78.795l-44.133,44.132c1.418,2.276,3.04,4.353,4.907,6.049
		c0.048,0.043,0.098,0.083,0.146,0.126l48.64-48.637C183.901,79.706,180.583,79.151,176.784,78.795z"/>
	<path style="fill:#F2F2F2;" d="M10.703,84.009c2.837-0.263,5.61-1.288,5.354-2.136c-0.27-0.887-2.799-1.336-5.891-1.07
		c-3.102,0.265-5.574,1.283-5.353,2.14C5.083,83.967,7.612,84.305,10.703,84.009z"/>
	<path style="fill:#F2F2F2;" d="M204.732,80.782c-3.107-0.242-5.713,0.361-5.631,1.24c0.1,1.053,2.543,1.8,5.637,2.014
		c2.844,0.195,5.744-0.371,5.627-1.248C210.244,81.873,207.826,81.021,204.732,80.782z"/>
	<path style="fill:#05293D;" d="M155.219,72.771c-19.977,0.953-37.563,9.934-48.171,10.171
		c-10.801,0.242-22.021-8.124-48.172-10.171C26.976,70.278,0,76.52,0,76.52l1.067,12.313c0,0,5.41,1.24,6.958,7.487
		c2.154,8.692,1.426,24.124,9.1,33.189c8.968,10.595,18.035,12.857,27.299,13.383c9.043,0.508,29.413-0.679,40.679-13.383
		c4.279-4.825,7.719-11.378,10.171-17.664c2.796-7.173,4.586-14.917,7.494-17.128c1.066-0.809,2.563-0.561,4.28-0.536
		c2.363,0.033,4.391,0.012,5.889,1.606c3.641,3.868,5.223,12.527,8.563,20.343c2.189,5.118,5.744,10.222,9.633,14.449
		c10.018,10.882,32.576,12.799,40.682,12.313c8.918-0.538,18.941-3.657,25.158-11.775c3.023-3.954,5.103-8.859,6.422-13.917
		c1.902-7.312,2.436-14.931,3.75-20.339c1.742-7.186,6.42-7.496,6.42-7.496l1.605-12.846C215.17,76.52,188.135,71.2,155.219,72.771z
		 M77.611,128.975c-9.978,9.065-25.159,9.633-25.159,9.633h-7.494c0,0-5.118-0.553-10.168-2.674
		c-3.913-1.641-7.44-4.271-10.708-8.031c-0.604-0.696-1.16-1.446-1.692-2.218c-1.553-2.25-2.815-4.776-3.811-7.424
		c-0.558-1.485-1.037-3.003-1.439-4.525c-0.872-3.299-1.385-6.599-1.632-9.602c-0.249-3.024-0.227-5.747,0.011-7.813
		c0.761-6.574,5.008-12.789,12.311-15.519c2.994-1.119,7.744-1.855,13.226-2.218c3.599-0.238,7.511-0.313,11.46-0.227
		c1.914,0.042,3.833,0.122,5.729,0.239c3.55,0.221,7.01,0.574,10.173,1.06c4.348,0.667,8.134,1.583,10.796,2.75
		c7.065,3.1,10.671,10.775,10.706,14.456C89.996,105.201,86.313,121.067,77.611,128.975z M4.813,82.942
		c-0.222-0.857,2.251-1.875,5.353-2.14c3.092-0.266,5.621,0.184,5.891,1.07c0.257,0.848-2.517,1.873-5.354,2.136
		C7.612,84.305,5.083,83.967,4.813,82.942z M204.738,84.036c-3.094-0.214-5.537-0.961-5.637-2.014
		c-0.082-0.879,2.523-1.482,5.631-1.24c3.094,0.239,5.512,1.091,5.633,2.006C210.482,83.665,207.582,84.231,204.738,84.036z
		 M180.381,135.934c-5.055,2.121-10.172,2.674-10.172,2.674h-7.44c-0.201-0.129-0.471-0.154-0.804-0.049
		c-3.151-0.248-15.607-1.701-24.261-9.458c-0.048-0.043-0.098-0.083-0.146-0.126c-1.867-1.696-3.489-3.772-4.907-6.049
		c-0.768-1.233-1.474-2.521-2.114-3.854c-1.265-2.63-2.297-5.401-3.094-8.142c-1.53-5.268-2.228-10.397-2.195-14.068
		c0.033-3.681,3.639-11.356,10.705-14.456c5.141-2.255,14.464-3.579,23.977-3.966c3.806-0.155,7.64-0.159,11.25-0.013
		c1.947,0.079,3.827,0.202,5.604,0.368c3.799,0.357,7.117,0.912,9.56,1.67c0.35,0.108,0.682,0.221,0.994,0.338
		c7.303,2.729,11.553,8.944,12.314,15.519c0.838,7.33-0.902,22.759-8.568,31.582C187.82,131.663,184.291,134.294,180.381,135.934z"
		/>
</g>
</svg>