<svg width="229" height="121" viewBox="0 0 229 121" fill="none" xmlns="http://www.w3.org/2000/svg">
<path d="M177.292 121C176.493 121 175.819 120.325 175.819 119.526V97.7694C175.819 96.9703 176.493 96.2957 177.292 96.2957C178.091 96.2957 178.766 96.956 178.766 97.7694V119.526C178.766 120.34 178.106 121 177.292 121Z" fill="#7209B7"/>
<path d="M227.527 120.99C226.713 120.99 226.053 120.33 226.053 119.517V87.4054C226.053 72.644 217.231 59.4904 203.582 53.9016L151.046 32.3745C145.755 30.2022 142.334 25.1015 142.334 19.3883V1.47374C142.334 0.674668 143.009 0 143.808 0C144.607 0 145.282 0.660313 145.282 1.47374V19.3835C145.282 23.8909 147.98 27.9198 152.156 29.6423L204.701 51.1647C219.465 57.2224 229.005 71.4478 229.005 87.4006V119.512C229.005 120.325 228.345 120.986 227.531 120.986L227.527 120.99Z" fill="#7209B7"/>
<path d="M51.7122 121C50.8989 121 50.2339 120.34 50.2339 119.526V97.7694C50.2339 96.956 50.8941 96.2957 51.7026 96.2957C52.5112 96.2957 53.181 96.956 53.181 97.7694V119.526C53.181 119.919 53.0279 120.287 52.7456 120.565C52.5829 120.727 52.2337 121 51.7074 121H51.7122Z" fill="#7209B7"/>
<path d="M1.47353 120.99C0.660218 120.99 0 120.33 0 119.517V87.4054C0 71.443 9.54446 57.2176 24.3132 51.1695L76.8436 29.6471C81.025 27.9245 83.7281 23.8957 83.7281 19.3835V1.47374C83.7281 0.660313 84.3883 0 85.2016 0C86.0149 0 86.6752 0.660313 86.6752 1.47374V19.3835C86.6752 25.1063 83.2497 30.2069 77.9536 32.3745L25.4184 53.9064C11.7691 59.4952 2.94706 72.644 2.94706 87.4054V119.517C2.94706 120.33 2.28684 120.99 1.47353 120.99Z" fill="#7209B7"/>
<path d="M114.505 24.9771C111.759 24.9771 109.213 23.8813 107.338 21.8956L100.865 15.0437C100.315 14.4647 100.344 13.5077 100.922 12.9574C101.19 12.7038 101.549 12.5651 101.927 12.5651C102.166 12.5651 102.626 12.6273 103.008 13.0292L109.448 19.8572C109.496 19.9099 109.548 19.9625 109.601 20.0151L109.654 20.0773L109.749 20.1683C111.031 21.374 112.711 22.0391 114.476 22.0391C116.371 22.0391 118.198 21.2496 119.499 19.8764L125.972 13.0244C126.35 12.6177 126.805 12.5603 127.044 12.5603C127.422 12.5603 127.786 12.7038 128.068 12.967C128.446 13.3211 128.513 13.7517 128.522 13.9766C128.537 14.3738 128.393 14.7566 128.121 15.0437L121.6 21.9434L121.552 21.9961C121.485 22.0774 121.404 22.154 121.322 22.2305L121.236 22.3167C119.409 24.0344 117.021 24.9771 114.505 24.9771Z" fill="#7209B7"/>
</svg>
